<svg width="22" height="21" viewBox="0 0 22 21" fill="none" xmlns="http://www.w3.org/2000/svg">
<path d="M0.538382 7.16336L0.545526 9.82928V15.164C0.651854 18.208 3.20011 20.5927 6.24453 20.4972H14.8166C17.8594 20.5928 20.407 18.2106 20.5156 15.1683V9.83499L20.5227 7.16765C20.7063 6.20183 20.2189 5.23302 19.3341 4.80461L13.5551 1.35292C11.6991 0.215692 9.36204 0.215692 7.50605 1.35292L1.72704 4.80033C0.8422 5.22873 0.354866 6.19754 0.538382 7.16336ZM0.538382 7.16336L7.55348 11.2636C9.38649 12.3599 11.6738 12.3599 13.5068 11.2636L20.5216 7.16326M13.3885 6.21063L10.5311 5.49629L7.67378 6.21063" stroke="#C6A45A" stroke-linecap="round" stroke-linejoin="round"/>
</svg>
