<?xml version="1.0" encoding="utf-8"?>
<!-- Generator: Adobe Illustrator 29.1.0, SVG Export Plug-In . SVG Version: 9.03 Build 55587)  -->
<svg version="1.0" id="Layer_1" xmlns="http://www.w3.org/2000/svg" xmlns:xlink="http://www.w3.org/1999/xlink" x="0px" y="0px"
	 width="52px" height="13px" viewBox="0 0 52 13" enable-background="new 0 0 52 13" xml:space="preserve">
<path fill="#4d887a" d="M50.36,2.54c-0.4,0.28-0.8,0.55-1.2,0.8c-1.21,0.77-2.48,1.44-3.79,1.98c-1.12,0.44-2.02,0.71-2.38,0.81
	c-1.62,0.43-3.29,0.65-4.99,0.56c-1.22-0.05-2.43-0.26-3.62-0.56c-1.44-0.38-2.88-0.94-4.23-1.6c-0.47-0.23-1.17-0.57-1.64-0.78
	C19.86-0.18,9,0.33,1.3,6.07C1.1,6.22,0.52,6.77,0,7.27c0.09-0.02,0.23-0.04,0.32-0.06c7.5-1.34,15.35-1.19,22.57,1.38
	c1.53,0.53,3.04,1.2,4.5,1.89c3.08,1.4,6.48,2.18,9.87,1.96c2.05-0.13,4.08-0.63,5.95-1.49c3.81-1.76,6.97-4.96,8.55-8.84
	c0.05-0.13,0.11-0.27,0.16-0.4c0.01-0.03,0.02-0.06,0.03-0.09c0.03-0.1,0.05-0.2,0.06-0.3C51.41,1.77,50.62,2.33,50.36,2.54z"/>
<g>
</g>
<g>
</g>
<g>
</g>
<g>
</g>
<g>
</g>
<g>
</g>
</svg>
