<svg width="198" height="48" viewBox="0 0 198 48" fill="none" xmlns="http://www.w3.org/2000/svg">
<g clip-path="url(#clip0_292_927)">
<path d="M18.0379 13.1713L16.6246 12.47L18.0176 11.718C19.8275 10.7423 20.9053 8.7707 20.9053 6.45353C20.9053 3.34364 18.6175 0 13.5843 0H0V25.7735H14.0114C18.5056 25.7735 21.4136 23.0802 21.4136 18.9236C21.4136 16.4336 20.0918 14.1673 18.0379 13.1611V13.1713ZM5.12463 4.29896H12.3642C14.3063 4.29896 15.6688 5.5795 15.6688 7.40885C15.6688 9.2382 14.3368 10.5492 12.3642 10.5492H5.12463V4.29896ZM12.5574 21.4847H5.12463V14.8482H12.5574C14.7232 14.8482 16.1772 16.1795 16.1772 18.1512C16.1772 20.1228 14.7943 21.4948 12.5574 21.4948V21.4847Z" fill="url(#paint0_linear_292_927)"/>
<path d="M41.3218 23.4969C41.3218 22.2977 40.3456 21.322 39.1458 21.322H30.2184V0H25.0938V25.7735H41.3116V23.4969H41.3218Z" fill="url(#paint1_linear_292_927)"/>
<path d="M65.7451 15.2242V0H63.5691C61.9524 0 60.6306 1.31103 60.6306 2.93712V15.0718C60.6306 19.015 58.3327 21.3627 54.4892 21.3627C50.6457 21.3627 48.2664 19.0658 48.2664 15.0718V2.93712C48.2664 1.31103 46.9547 0 45.3279 0H43.1621V15.2649C43.1621 22.0436 47.1886 25.7735 54.4892 25.7735C61.7897 25.7735 65.7349 22.0233 65.7349 15.2242H65.7451Z" fill="url(#paint2_linear_292_927)"/>
<path d="M87.5364 23.6697C87.5364 22.4197 86.5196 21.4033 85.269 21.4033H74.552V14.838H84.7097V10.4984H74.552V4.32945H85.2893C86.5399 4.32945 87.5466 3.32331 87.5466 2.07326V0H69.4375V25.7735H87.5466V23.6697H87.5364Z" fill="url(#paint3_linear_292_927)"/>
<path d="M111.227 13.09L114.044 5.56934V25.7735H119.209V0H113.983C112.61 0 111.41 0.823206 110.912 2.09358L105.188 16.769L99.4732 2.09358C98.9749 0.823206 97.7751 0 96.4126 0H91.2168V25.7735H96.3414V10.2037H96.3516V5.55918L99.1681 13.1002L104.13 25.7633H106.255L111.227 13.0697V13.09Z" fill="url(#paint4_linear_292_927)"/>
<path d="M137.714 0H134.47C132.406 0 130.525 1.29071 129.783 3.21152L121.049 25.7735H126.682L128.339 21.2509H140.388L142.046 25.7735H147.648L137.714 0ZM129.661 16.8808L134.359 3.92293L139.016 16.8808H129.651H129.661Z" fill="url(#paint5_linear_292_927)"/>
<path d="M170.119 8.22189C170.119 3.30299 166.662 0 161.527 0H149.488V25.7735H154.603V16.3726H159.066L162.757 23.1006C163.662 24.747 165.391 25.7735 167.272 25.7735H170.088L164.262 15.9153L165.208 15.5901C166.357 15.1937 170.109 13.4762 170.109 8.22189H170.119ZM160.704 12.033H154.603V4.32945H160.704C163.164 4.32945 164.872 5.91489 164.872 8.18124C164.872 10.4476 163.164 12.033 160.704 12.033Z" fill="url(#paint6_linear_292_927)"/>
<path d="M177.053 12.8867C177.053 7.85602 180.307 4.33961 184.954 4.33961C189.6 4.33961 192.895 7.85602 192.895 12.8867C192.895 13.6794 192.803 14.4925 192.61 15.2547L196.515 19.1573C197.491 17.2873 197.999 15.1531 197.999 12.8969C197.999 5.4169 192.519 0 184.964 0C181.283 0 177.948 1.31103 175.579 3.68918C173.24 6.02668 171.959 9.29917 171.959 12.8867C171.959 19.7569 177.562 25.5295 184.415 25.7633C184.506 25.7633 184.588 25.7633 184.679 25.7633C184.76 25.7633 184.842 25.7633 184.923 25.7633C186.001 25.7633 187.262 25.7226 188.38 25.3263L184.455 21.4033C180.073 21.1594 177.063 17.7142 177.063 12.8664L177.053 12.8867Z" fill="url(#paint7_linear_292_927)"/>
<path d="M185.22 18.6186L191.127 24.5233C192.764 26.1595 195.408 26.1595 197.045 24.5233L197.665 23.9033L188.788 15.031L185.199 18.6186H185.22Z" fill="url(#paint8_linear_292_927)"/>
<path d="M41.059 37.4915C40.154 37.024 39.1169 36.7903 37.9272 36.7903H33.25V47.8782H37.9272C39.1067 47.8782 40.154 47.6444 41.059 47.1769C41.9639 46.7094 42.6655 46.059 43.1637 45.2256C43.662 44.3922 43.9162 43.4267 43.9162 42.3291C43.9162 41.2315 43.662 40.266 43.1637 39.4327C42.6655 38.5993 41.9639 37.9489 41.059 37.4814V37.4915ZM41.7809 44.5142C41.4148 45.1443 40.8963 45.6321 40.2252 45.9777C39.5541 46.3232 38.761 46.496 37.8459 46.496H34.8464V38.1623H37.8459C38.761 38.1623 39.5541 38.3351 40.2252 38.6806C40.8963 39.0262 41.4148 39.514 41.7809 40.1339C42.1469 40.7539 42.3401 41.4856 42.3401 42.319C42.3401 43.1523 42.1571 43.8638 41.7809 44.4939V44.5142Z" fill="url(#paint9_linear_292_927)"/>
<path d="M48.7147 42.9186H54.2766V41.5771H48.7147V38.1725H54.9578V36.7903H47.1387V47.8782H55.1815V46.496H48.7147V42.9186Z" fill="url(#paint10_linear_292_927)"/>
<path d="M62.4112 45.9065L58.4152 36.7903H56.707L61.5876 47.8782H63.1535L68.0138 36.7903H66.4276L62.4112 45.9065Z" fill="url(#paint11_linear_292_927)"/>
<path d="M71.805 42.9186H77.3566V41.5771H71.805V38.1725H78.0379V36.7903H70.2188V47.8782H78.2616V46.496H71.805V42.9186Z" fill="url(#paint12_linear_292_927)"/>
<path d="M83.2049 36.7903H81.6289V47.8782H89.2142V46.496H83.2049V36.7903Z" fill="url(#paint13_linear_292_927)"/>
<path d="M100.836 38.274C100.297 37.7658 99.6767 37.3695 98.9649 37.0849C98.2532 36.8105 97.4703 36.6682 96.6263 36.6682C95.7824 36.6682 94.9893 36.8105 94.2674 37.0951C93.5454 37.3796 92.9252 37.776 92.3965 38.2943C91.8677 38.8024 91.461 39.4021 91.1661 40.0932C90.8713 40.7842 90.7188 41.5261 90.7188 42.3392C90.7188 43.1522 90.8611 43.9043 91.1661 44.5852C91.461 45.2763 91.8779 45.8658 92.3965 46.3841C92.9252 46.8922 93.5454 47.2987 94.2775 47.5833C94.9994 47.8679 95.7824 48.0102 96.6263 48.0102C97.4703 48.0102 98.2532 47.8679 98.9649 47.5935C99.6767 47.3089 100.297 46.9227 100.836 46.4044C101.365 45.8962 101.781 45.2966 102.066 44.6055C102.361 43.9246 102.503 43.1624 102.503 42.3392C102.503 41.516 102.361 40.7639 102.066 40.0728C101.771 39.3919 101.365 38.7923 100.836 38.274ZM100.592 44.0262C100.378 44.5446 100.073 44.9917 99.6869 45.3779C99.3005 45.7641 98.8429 46.0589 98.3244 46.2723C97.8058 46.4857 97.2364 46.5873 96.6161 46.5873C95.9959 46.5873 95.4163 46.4857 94.8978 46.2723C94.3792 46.0589 93.9216 45.7641 93.5251 45.3779C93.1387 44.9917 92.8337 44.5446 92.61 44.0262C92.3965 43.5079 92.2846 42.949 92.2846 42.329C92.2846 41.7091 92.3965 41.1501 92.61 40.6318C92.8235 40.1135 93.1286 39.6663 93.5251 39.2801C93.9115 38.8939 94.369 38.5992 94.8978 38.3858C95.4163 38.1723 95.9959 38.0707 96.6161 38.0707C97.2364 38.0707 97.7956 38.1723 98.3244 38.3858C98.8429 38.5992 99.3005 38.8939 99.6869 39.2801C100.073 39.6663 100.368 40.1135 100.592 40.6318C100.805 41.1501 100.917 41.7091 100.917 42.329C100.917 42.949 100.805 43.5079 100.592 44.0262Z" fill="url(#paint14_linear_292_927)"/>
<path d="M112.529 37.2476C111.838 36.9427 111.014 36.7903 110.038 36.7903H105.717V47.8782H107.303V44.5244H110.048C111.014 44.5244 111.848 44.3719 112.539 44.0568C113.221 43.7418 113.749 43.3048 114.126 42.7255C114.492 42.1462 114.685 41.4653 114.685 40.6624C114.685 39.8595 114.502 39.1684 114.126 38.5891C113.76 38.0098 113.231 37.5627 112.539 37.2578L112.529 37.2476ZM112.306 42.4917C111.787 42.9288 111.014 43.1422 109.997 43.1422H107.303V38.1725H109.997C111.014 38.1725 111.777 38.3859 112.306 38.8229C112.824 39.2599 113.089 39.8697 113.089 40.6624C113.089 41.4551 112.824 42.0649 112.306 42.5019V42.4917Z" fill="url(#paint15_linear_292_927)"/>
<path d="M128.278 36.7903L123.713 44.5752L119.086 36.7903H117.795V47.8782H119.31V39.8392L123.316 46.5265H124.048L128.054 39.7884L128.075 47.8782H129.59L129.58 36.7903H128.278Z" fill="url(#paint16_linear_292_927)"/>
<path d="M135.295 42.9186H140.857V41.5771H135.295V38.1725H141.538V36.7903H133.709V47.8782H141.762V46.496H135.295V42.9186Z" fill="url(#paint17_linear_292_927)"/>
<path d="M153.068 45.0528L146.419 36.7903H145.117V47.8782H146.703V39.6156L153.353 47.8782H154.655V36.7903H153.068V45.0528Z" fill="url(#paint18_linear_292_927)"/>
<path d="M157.176 38.1725H160.979V47.8782H162.544V38.1725H166.347V36.7903H157.176V38.1725Z" fill="url(#paint19_linear_292_927)"/>
</g>
<defs>
<linearGradient id="paint0_linear_292_927" x1="-1.57603" y1="12.8867" x2="193.191" y2="12.8867" gradientUnits="userSpaceOnUse">
<stop stop-color="#CDAC6A"/>
<stop offset="0.31" stop-color="#EDD4A2"/>
<stop offset="0.5" stop-color="#FFE9C0"/>
<stop offset="1" stop-color="#CDAC6A"/>
</linearGradient>
<linearGradient id="paint1_linear_292_927" x1="-0.000688533" y1="12.8867" x2="193.19" y2="12.8867" gradientUnits="userSpaceOnUse">
<stop stop-color="#CDAC6A"/>
<stop offset="0.31" stop-color="#EDD4A2"/>
<stop offset="0.5" stop-color="#FFE9C0"/>
<stop offset="1" stop-color="#CDAC6A"/>
</linearGradient>
<linearGradient id="paint2_linear_292_927" x1="-0.00074059" y1="12.8867" x2="193.19" y2="12.8867" gradientUnits="userSpaceOnUse">
<stop stop-color="#CDAC6A"/>
<stop offset="0.31" stop-color="#EDD4A2"/>
<stop offset="0.5" stop-color="#FFE9C0"/>
<stop offset="1" stop-color="#CDAC6A"/>
</linearGradient>
<linearGradient id="paint3_linear_292_927" x1="0.000744869" y1="12.8867" x2="193.191" y2="12.8867" gradientUnits="userSpaceOnUse">
<stop stop-color="#CDAC6A"/>
<stop offset="0.31" stop-color="#EDD4A2"/>
<stop offset="0.5" stop-color="#FFE9C0"/>
<stop offset="1" stop-color="#CDAC6A"/>
</linearGradient>
<linearGradient id="paint4_linear_292_927" x1="0.000344023" y1="12.8867" x2="193.191" y2="12.8867" gradientUnits="userSpaceOnUse">
<stop stop-color="#CDAC6A"/>
<stop offset="0.31" stop-color="#EDD4A2"/>
<stop offset="0.5" stop-color="#FFE9C0"/>
<stop offset="1" stop-color="#CDAC6A"/>
</linearGradient>
<linearGradient id="paint5_linear_292_927" x1="-1.57638" y1="0" x2="193.19" y2="0" gradientUnits="userSpaceOnUse">
<stop stop-color="#CDAC6A"/>
<stop offset="0.31" stop-color="#EDD4A2"/>
<stop offset="0.5" stop-color="#FFE9C0"/>
<stop offset="1" stop-color="#CDAC6A"/>
</linearGradient>
<linearGradient id="paint6_linear_292_927" x1="-1.57654" y1="0" x2="193.19" y2="0" gradientUnits="userSpaceOnUse">
<stop stop-color="#CDAC6A"/>
<stop offset="0.31" stop-color="#EDD4A2"/>
<stop offset="0.5" stop-color="#FFE9C0"/>
<stop offset="1" stop-color="#CDAC6A"/>
</linearGradient>
<linearGradient id="paint7_linear_292_927" x1="-1.57698" y1="0" x2="193.19" y2="0" gradientUnits="userSpaceOnUse">
<stop stop-color="#CDAC6A"/>
<stop offset="0.31" stop-color="#EDD4A2"/>
<stop offset="0.5" stop-color="#FFE9C0"/>
<stop offset="1" stop-color="#CDAC6A"/>
</linearGradient>
<linearGradient id="paint8_linear_292_927" x1="-1.57532" y1="20.3869" x2="193.191" y2="20.3869" gradientUnits="userSpaceOnUse">
<stop stop-color="#CDAC6A"/>
<stop offset="0.31" stop-color="#EDD4A2"/>
<stop offset="0.5" stop-color="#FFE9C0"/>
<stop offset="1" stop-color="#CDAC6A"/>
</linearGradient>
<linearGradient id="paint9_linear_292_927" x1="0.000891917" y1="42.3291" x2="193.191" y2="42.3291" gradientUnits="userSpaceOnUse">
<stop stop-color="#CDAC6A"/>
<stop offset="0.31" stop-color="#EDD4A2"/>
<stop offset="0.5" stop-color="#FFE9C0"/>
<stop offset="1" stop-color="#CDAC6A"/>
</linearGradient>
<linearGradient id="paint10_linear_292_927" x1="0.000172232" y1="42.3291" x2="193.191" y2="42.3291" gradientUnits="userSpaceOnUse">
<stop stop-color="#CDAC6A"/>
<stop offset="0.31" stop-color="#EDD4A2"/>
<stop offset="0.5" stop-color="#FFE9C0"/>
<stop offset="1" stop-color="#CDAC6A"/>
</linearGradient>
<linearGradient id="paint11_linear_292_927" x1="0.000513547" y1="42.3291" x2="193.191" y2="42.3291" gradientUnits="userSpaceOnUse">
<stop stop-color="#CDAC6A"/>
<stop offset="0.31" stop-color="#EDD4A2"/>
<stop offset="0.5" stop-color="#FFE9C0"/>
<stop offset="1" stop-color="#CDAC6A"/>
</linearGradient>
<linearGradient id="paint12_linear_292_927" x1="-0.000979795" y1="42.3291" x2="193.19" y2="42.3291" gradientUnits="userSpaceOnUse">
<stop stop-color="#CDAC6A"/>
<stop offset="0.31" stop-color="#EDD4A2"/>
<stop offset="0.5" stop-color="#FFE9C0"/>
<stop offset="1" stop-color="#CDAC6A"/>
</linearGradient>
<linearGradient id="paint13_linear_292_927" x1="0.00081345" y1="42.3291" x2="1.01761" y2="42.3291" gradientUnits="userSpaceOnUse">
<stop stop-color="#CDAC6A"/>
<stop offset="0.31" stop-color="#EDD4A2"/>
<stop offset="0.5" stop-color="#FFE9C0"/>
<stop offset="1" stop-color="#CDAC6A"/>
</linearGradient>
<linearGradient id="paint14_linear_292_927" x1="0.000545543" y1="42.329" x2="193.191" y2="42.329" gradientUnits="userSpaceOnUse">
<stop stop-color="#CDAC6A"/>
<stop offset="0.31" stop-color="#EDD4A2"/>
<stop offset="0.5" stop-color="#FFE9C0"/>
<stop offset="1" stop-color="#CDAC6A"/>
</linearGradient>
<linearGradient id="paint15_linear_292_927" x1="0.000876501" y1="42.3291" x2="193.191" y2="42.3291" gradientUnits="userSpaceOnUse">
<stop stop-color="#CDAC6A"/>
<stop offset="0.31" stop-color="#EDD4A2"/>
<stop offset="0.5" stop-color="#FFE9C0"/>
<stop offset="1" stop-color="#CDAC6A"/>
</linearGradient>
<linearGradient id="paint16_linear_292_927" x1="-1.57651" y1="42.3291" x2="193.19" y2="42.3291" gradientUnits="userSpaceOnUse">
<stop stop-color="#CDAC6A"/>
<stop offset="0.31" stop-color="#EDD4A2"/>
<stop offset="0.5" stop-color="#FFE9C0"/>
<stop offset="1" stop-color="#CDAC6A"/>
</linearGradient>
<linearGradient id="paint17_linear_292_927" x1="-1.57524" y1="42.3291" x2="193.191" y2="42.3291" gradientUnits="userSpaceOnUse">
<stop stop-color="#CDAC6A"/>
<stop offset="0.31" stop-color="#EDD4A2"/>
<stop offset="0.5" stop-color="#FFE9C0"/>
<stop offset="1" stop-color="#CDAC6A"/>
</linearGradient>
<linearGradient id="paint18_linear_292_927" x1="-1.57554" y1="42.3291" x2="193.191" y2="42.3291" gradientUnits="userSpaceOnUse">
<stop stop-color="#CDAC6A"/>
<stop offset="0.31" stop-color="#EDD4A2"/>
<stop offset="0.5" stop-color="#FFE9C0"/>
<stop offset="1" stop-color="#CDAC6A"/>
</linearGradient>
<linearGradient id="paint19_linear_292_927" x1="-1.57611" y1="42.3291" x2="193.191" y2="42.3291" gradientUnits="userSpaceOnUse">
<stop stop-color="#CDAC6A"/>
<stop offset="0.31" stop-color="#EDD4A2"/>
<stop offset="0.5" stop-color="#FFE9C0"/>
<stop offset="1" stop-color="#CDAC6A"/>
</linearGradient>
<clipPath id="clip0_292_927">
<rect width="198" height="48" fill="white"/>
</clipPath>
</defs>
</svg>
