<svg width="23" height="24" viewBox="0 0 23 24" fill="none" xmlns="http://www.w3.org/2000/svg">
<path fill-rule="evenodd" clip-rule="evenodd" d="M7.31839 0.750011H15.4159C15.4999 0.750011 15.5835 0.755389 15.6667 0.766145C18.9627 0.996647 21.5222 3.73202 21.5333 7.03614V16.4653C21.5212 19.9444 18.694 22.7565 15.2149 22.75H7.31839C3.83875 22.7565 1.01132 19.9435 1 16.4639V7.03614C1.01132 3.5565 3.83875 0.743519 7.31839 0.750011Z" stroke="#C6A45A" stroke-width="1.5" stroke-linecap="round" stroke-linejoin="round"/>
<path fill-rule="evenodd" clip-rule="evenodd" d="M7.91363 5.33895L5.72683 7.09895C5.5156 7.30025 5.39679 7.5798 5.39845 7.87158C5.40012 8.16337 5.52211 8.44154 5.73563 8.64042L7.14803 10.3403L13.0528 17.4404C13.1512 17.5548 13.2831 17.6353 13.4298 17.6707L16.3631 18.3409C16.7509 18.3629 17.0886 18.0786 17.1331 17.6927L16.9967 14.8385C16.9866 14.692 16.9277 14.5531 16.8295 14.444L11.0611 7.50668L9.50643 5.63962C9.13215 5.14418 8.44277 5.01405 7.91363 5.33895Z" stroke="#C6A45A" stroke-width="1.5" stroke-linecap="round" stroke-linejoin="round"/>
<path d="M21.5336 7.84477C21.9478 7.84477 22.2836 7.50899 22.2836 7.09477C22.2836 6.68056 21.9478 6.34477 21.5336 6.34477V7.09477V7.84477ZM15.6669 7.09477H14.9169C14.9169 7.50899 15.2527 7.84477 15.6669 7.84477V7.09477ZM16.4169 0.766113C16.4169 0.3519 16.0812 0.0161133 15.6669 0.0161133C15.2527 0.0161133 14.9169 0.3519 14.9169 0.766113H15.6669H16.4169ZM11.8003 7.64156C11.8714 7.23349 11.5982 6.84506 11.1902 6.77397C10.7821 6.70289 10.3937 6.97607 10.3226 7.38414L11.0615 7.51285L11.8003 7.64156ZM7.2592 9.59441C6.84954 9.53321 6.46782 9.8157 6.40663 10.2254C6.34543 10.635 6.62792 11.0167 7.03759 11.0779L7.14839 10.3362L7.2592 9.59441ZM21.5336 7.09477V6.34477H15.6669V7.09477V7.84477H21.5336V7.09477ZM15.6669 7.09477H16.4169V0.766113H15.6669H14.9169V7.09477H15.6669ZM11.0615 7.51285L10.3226 7.38414C10.0707 8.83026 8.711 9.81128 7.2592 9.59441L7.14839 10.3362L7.03759 11.0779C9.29474 11.4151 11.4087 9.8899 11.8003 7.64156L11.0615 7.51285Z" fill="#C6A45A"/>
</svg>
