<svg width="40" height="40" viewBox="0 0 40 40" fill="none" xmlns="http://www.w3.org/2000/svg">
<rect width="40" height="40" rx="20" fill="#C6A45A"/>
<path d="M20.5 16C20.5488 16 24.5675 16.0017 25.5781 16.2686C25.8541 16.3425 26.1059 16.4862 26.3076 16.6855C26.5093 16.885 26.654 17.1335 26.7275 17.4053C26.9993 18.4084 27 20.5 27 20.5C27 20.5166 26.9983 22.5957 26.7275 23.5947C26.654 23.8665 26.5093 24.115 26.3076 24.3145C26.106 24.5138 25.8541 24.6575 25.5781 24.7314C24.5674 24.9983 20.5488 25 20.5 25C20.5 25 16.4376 24.9999 15.4209 24.7314C15.1449 24.6575 14.8931 24.5138 14.6914 24.3145C14.4897 24.115 14.345 23.8665 14.2715 23.5947C14.0008 22.5957 14 20.5166 14 20.5C14 20.5 13.9997 18.4084 14.2715 17.4053C14.345 17.1335 14.4897 16.885 14.6914 16.6855C14.8931 16.4861 15.1449 16.3425 15.4209 16.2686C16.4375 16.0001 20.5 16 20.5 16ZM19.2588 22.999L23.2588 20.499L19.2588 17.999V22.999Z" fill="white"/>
</svg>
