<svg version="1.2" xmlns="http://www.w3.org/2000/svg" viewBox="0 0 60 60" width="60" height="60"><style>.a{opacity:.15;fill:#fff;stroke:#fff;stroke-linejoin:round}.b{opacity:.7;fill:#fff}</style>
<path fill-rule="evenodd" class="b" d="m44 24.1c-0.4-3.4-2.1-4-5.4-4.2-2.9-0.3-6.1-0.4-8.6-0.4-2.5 0-5.9 0.1-8.7 0.4-3.3 0.2-5 0.8-5.5 4.2-0.1 1.5-0.2 3.6-0.2 5.8 0 2.1 0.1 4.3 0.2 5.8 0.5 3.4 2.2 3.9 5.5 4.2 2.8 0.2 6.2 0.3 8.7 0.3 2.5 0 5.7-0.1 8.6-0.3 3.3-0.3 5-0.8 5.4-4.2 0.3-1.5 0.4-3.7 0.4-5.8 0-2.2-0.1-4.3-0.4-5.8zm-16.9 10.2v-8.8l7.5 4.4z"/></svg>