<svg width="40" height="40" viewBox="0 0 40 40" fill="none" xmlns="http://www.w3.org/2000/svg">
<circle cx="20" cy="20" r="20" fill="#C6A45A"/>
<path d="M16.317 13.4887C16.317 14.3491 15.5987 15.0473 14.7135 15.0473C13.8284 15.0473 13.1055 14.3536 13.1055 13.4887C13.1055 12.6239 13.8238 11.9302 14.7089 11.9302C15.594 11.9302 16.3124 12.6284 16.3124 13.4887H16.317Z" fill="white"/>
<path d="M27.1061 19.9031V24.7139C27.1061 24.8311 27.0088 24.9302 26.8837 24.9302H24.3302C24.2098 24.9302 24.1078 24.8356 24.1078 24.7139V20.241C24.1078 19.0653 23.6768 18.259 22.5878 18.259C21.7582 18.259 21.267 18.7995 21.0492 19.3266C20.9704 19.5157 20.9519 19.7725 20.9519 20.0383V24.7184C20.9519 24.8356 20.8546 24.9347 20.7294 24.9347H18.176C18.0555 24.9347 17.9535 24.8401 17.9535 24.7184C17.9582 23.5293 17.986 17.7455 17.9582 16.3896C17.9582 16.268 18.0555 16.1734 18.1806 16.1734H20.7294C20.8499 16.1734 20.9519 16.268 20.9519 16.3896V17.4166C20.9519 17.4166 20.938 17.4347 20.9334 17.4437H20.9519V17.4166C21.3504 16.8221 22.0595 15.9707 23.6536 15.9707C25.6278 15.9707 27.1061 17.223 27.1061 19.9166V19.9031ZM13.5232 24.9302H16.0767C16.1972 24.9302 16.2991 24.8356 16.2991 24.7139V16.3806C16.2991 16.2635 16.2018 16.1644 16.0767 16.1644H13.5232C13.4027 16.1644 13.3008 16.259 13.3008 16.3806V24.7139C13.3008 24.8311 13.3981 24.9302 13.5232 24.9302Z" fill="white"/>
</svg>
