<svg width="52" height="52" viewBox="0 0 52 52" fill="none" xmlns="http://www.w3.org/2000/svg">
<path d="M30.379 29.8046C30.2621 30.202 30.4895 30.6189 30.8868 30.7359C31.2842 30.8528 31.7011 30.6255 31.818 30.2281L31.0985 30.0164L30.379 29.8046ZM34.4477 21.2916C34.5647 20.8942 34.3373 20.4773 33.9399 20.3604C33.5426 20.2434 33.1257 20.4708 33.0087 20.8681L33.7282 21.0799L34.4477 21.2916ZM33.5518 21.8088C33.9544 21.9062 34.3598 21.6588 34.4572 21.2562C34.5546 20.8537 34.3072 20.4483 33.9046 20.3509L33.7282 21.0799L33.5518 21.8088ZM24.8505 18.16C24.4479 18.0626 24.0426 18.31 23.9452 18.7126C23.8478 19.1152 24.0951 19.5205 24.4977 19.6179L24.6741 18.889L24.8505 18.16ZM34.1032 21.7294C34.4619 21.5223 34.5849 21.0636 34.3777 20.7049C34.1706 20.3461 33.7119 20.2232 33.3532 20.4303L33.7282 21.0799L34.1032 21.7294ZM17.7749 29.4245C17.4161 29.6316 17.2932 30.0903 17.5003 30.449C17.7074 30.8077 18.1661 30.9307 18.5249 30.7235L18.1499 30.074L17.7749 29.4245ZM31.0985 30.0164L31.818 30.2281L34.4477 21.2916L33.7282 21.0799L33.0087 20.8681L30.379 29.8046L31.0985 30.0164ZM33.7282 21.0799L33.9046 20.3509L24.8505 18.16L24.6741 18.889L24.4977 19.6179L33.5518 21.8088L33.7282 21.0799ZM33.7282 21.0799L33.3532 20.4303L17.7749 29.4245L18.1499 30.074L18.5249 30.7235L34.1032 21.7294L33.7282 21.0799Z" fill="#F5F1E8"/>
</svg>
