<svg version="1.2" xmlns="http://www.w3.org/2000/svg" viewBox="0 0 45 16" width="45" height="16"><style>.a{fill:#fff}</style><path class="a" d="m30.2 3.1q-1.1-0.4-2.2-0.9c-4.3-2.3-9.6-2.8-14.2-1.1-1.3 0.5-2.7 1.2-3.8 2.1 4.3-0.5 8.7-0.2 12.8 1.1q1.3 0.4 2.6 1c0.6 0.2 1.1 0.5 1.7 0.7q0.7 0.3 1.3 0.5c3.3 1.1 7.1 1.1 10.2-0.6 1.3-0.7 2.5-1.6 3.3-2.9-3.8 1.6-8 1.6-11.7 0.1z"/><path class="a" d="m43.4 6.7q-0.5 0.4-1 0.7-1.6 1-3.3 1.7c-1 0.4-1.8 0.6-2.1 0.7-1.4 0.4-2.8 0.6-4.3 0.5q-1.6-0.1-3.1-0.5c-1.3-0.3-2.5-0.8-3.7-1.4-0.4-0.2-1-0.5-1.4-0.7-7.5-3.4-16.9-2.9-23.5 2.1-0.2 0.1-0.7 0.6-1.2 1 0.1 0 0.2 0 0.3-0.1 6.5-1.1 13.3-1 19.5 1.2 1.4 0.5 2.7 1.1 3.9 1.7 2.7 1.2 5.6 1.9 8.6 1.7 1.7-0.1 3.5-0.6 5.1-1.3 3.3-1.5 6-4.3 7.4-7.7q0.1-0.1 0.2-0.3 0-0.1 0-0.1 0-0.1 0-0.3c-0.5 0.4-1.2 0.9-1.4 1.1z"/></svg>
