<svg xmlns="http://www.w3.org/2000/svg"
     viewBox="0 0 56 56"
     width="56"
     height="56">
  <g transform="translate(15.5 15.5)">
    <path fill="#006a51" d="m12.2 24.9q3.7 0 7.4-0.1c2.5 0 3.7-1.2 3.7-3.7q0-3.6 0-7.3c0-1.2-0.3-1.7-1-1.6-0.6 0-0.8 0.4-0.8 1.7q0 3.3 0 6.6c0 0.3 0 0.7-0.1 1 0 1-0.5 1.4-1.4 1.5q-0.4 0-0.8 0-7 0-14 0-0.2 0-0.4 0c-1.5 0-2-0.5-2-2q0-3.9 0-7.7 0-3.6 0-7.1c0-1.5 0.5-2 2.1-2q3.4 0 6.8 0 0.6 0 1.1-0.1c0.5-0.1 0.7-0.4 0.7-0.8 0-0.5-0.2-0.8-0.7-0.9-0.3-0.1-0.7-0.1-1.1-0.1q-3.4 0-6.9 0c-2.6 0-3.8 1.2-3.8 3.8q0 7.5 0 15c0 2.5 1.2 3.7 3.8 3.8q3.7 0 7.4 0 0 0 0 0z"/>
    <path fill="#006a51" fill-rule="evenodd" d="m10.4 10.1c0-0.5 0.3-0.9 0.6-1.2 2.5-2.5 4.9-5 7.4-7.4 1.1-1.1 2.4-1.1 3.5 0q1.2 1.1 2.2 2.2c1.1 1.2 1.2 2.4 0 3.6-2.4 2.5-4.8 4.9-7.3 7.4-0.4 0.4-0.8 0.7-1.4 0.7-1.4 0.2-2.8 0.4-4.2 0.5-0.9 0.1-1.3-0.3-1.3-1.4 0.1-1.3 0.3-2.9 0.5-4.4zm4.5 3.5c0.4-0.1 0.7-0.3 0.9-0.6q2-2 4.1-4.1c0.4-0.4 0.5-0.8 0-1.2q-1-1-2-2.1c-0.4-0.4-0.7-0.3-1 0.1q-2.1 2.1-4.3 4.3-0.4 0.4-0.5 1.1c0 0.6-0.1 1.1-0.2 1.7-0.1 1 0 1.1 1 1q1-0.1 2-0.2zm7.9-8.6q-1.1-1.1-2.1-2.1c-0.6-0.6-1-0.1-1.4 0.3-0.4 0.3-0.5 0.7-0.1 1.1q1.1 1 2.1 2.1c0.2 0.2 0.4 0.5 0.8 0.2 0.4-0.2 0.8-0.6 0.9-1.1 0-0.2-0.1-0.3-0.2-0.5z"/>
  </g>
</svg>