<svg width="20" height="20" viewBox="0 0 20 20" fill="none" xmlns="http://www.w3.org/2000/svg">
<circle cx="10" cy="10" r="9.5" stroke="#C6A45A"/>
<path d="M18.8891 12.2221C18.8891 7.92657 14.9094 4.44434 10.0002 4.44434C5.09102 4.44434 1.11133 7.92657 1.11133 12.2221" stroke="#C6A45A"/>
<path d="M18.8891 7.77789C18.8891 12.0734 14.9094 15.5557 10.0002 15.5557C5.09102 15.5557 1.11133 12.0734 1.11133 7.77789" stroke="#C6A45A"/>
<path d="M9.99935 18.8893C8.1584 18.8893 6.66602 14.9097 6.66602 10.0005C6.66602 5.09126 8.1584 1.11157 9.99935 1.11157" stroke="#C6A45A"/>
<path d="M10.0007 18.8893C11.8416 18.8893 13.334 14.9097 13.334 10.0005C13.334 5.09126 11.8416 1.11157 10.0007 1.11157" stroke="#C6A45A"/>
<path d="M1.66602 10H18.8882" stroke="#C6A45A"/>
</svg>
