<svg version="1.2" xmlns="http://www.w3.org/2000/svg" viewBox="0 0 60 60" width="60" height="60"><style>.a{opacity:.15;fill:#fff;stroke:#fff;stroke-linejoin:round}.b{opacity:.7;fill:#fff}</style>
<path fill-rule="evenodd" class="b" d="m39.1 22.1c-1.6-1-2.8-2.8-3.1-4.6 0-0.5-0.1-0.8-0.1-1.3h-4.8v11.3 7.9c0 2.2-1.8 4-4 4-0.7 0-1.3-0.2-1.9-0.5-1.3-0.6-2.2-2-2.2-3.5 0-2.3 1.8-4.1 4.1-4.1 0.4 0 0.8 0.1 1.2 0.2v-3.8-1.1c-0.4 0-0.8-0.1-1.2-0.1-4.9 0-8.9 3.9-8.9 8.9 0 2.9 1.5 5.6 3.8 7.2 1.5 1 3.2 1.6 5.1 1.6 4.9 0 8.8-4 8.8-8.8v-10c1.8 1.7 4.2 2.4 6.6 2.3v-3.6-1.2c-1.2 0.2-2.4-0.2-3.4-0.8z"/></svg>