<svg width="21" height="21" viewBox="0 0 21 21" fill="none" xmlns="http://www.w3.org/2000/svg">
<path fill-rule="evenodd" clip-rule="evenodd" d="M1.55709 5.02379C2.6337 3.88867 3.01493 3.57027 3.47328 3.4232C3.79096 3.33964 4.12422 3.33474 4.44422 3.40892C4.86544 3.53172 4.97539 3.62452 6.35756 4.99952C7.57124 6.20745 7.69118 6.33881 7.80827 6.57012C8.03474 6.98644 8.07116 7.48008 7.90822 7.92512C7.78828 8.26066 7.61122 8.4834 6.87587 9.22301L6.39611 9.70419C6.26989 9.83222 6.23997 10.0267 6.32186 10.1868C7.38687 12.0038 8.89752 13.5193 10.7111 14.5902C10.9203 14.7023 11.178 14.6659 11.3479 14.5002L11.8091 14.0462C12.0941 13.7538 12.3959 13.4782 12.713 13.2209C13.2101 12.9133 13.8308 12.8836 14.355 13.1424C14.6106 13.2623 14.6963 13.3409 15.9485 14.5888C17.2336 15.8738 17.275 15.9152 17.4192 16.2108C17.6885 16.7004 17.6858 17.2943 17.4121 17.7814C17.2693 18.0555 17.1893 18.1555 16.464 18.8965C16.0256 19.3448 15.6072 19.7532 15.5473 19.8132C14.9482 20.3083 14.1803 20.5514 13.4055 20.4914C11.9879 20.3616 10.616 19.923 9.38605 19.2063C6.66003 17.7621 4.33949 15.6576 2.63655 13.0853C2.26416 12.5475 1.9329 11.9824 1.64561 11.3947C0.880148 10.0825 0.484421 8.58749 0.500469 7.06843C0.558047 6.27102 0.93993 5.53204 1.55709 5.02379Z" stroke="#C6A45A" stroke-linecap="round" stroke-linejoin="round"/>
<path d="M13.6452 0.0296367C13.3852 -0.0636465 13.0989 0.0714307 13.0056 0.33134C12.9124 0.591249 13.0474 0.877569 13.3073 0.970852L13.4763 0.500244L13.6452 0.0296367ZM20.0051 7.55632C20.1027 7.81462 20.3913 7.94484 20.6496 7.84718C20.9079 7.74952 21.0381 7.46096 20.9405 7.20266L20.4728 7.37949L20.0051 7.55632ZM12.0163 3.22931C11.7469 3.16848 11.4793 3.33752 11.4184 3.60688C11.3576 3.87624 11.5267 4.14391 11.796 4.20474L11.9062 3.71703L12.0163 3.22931ZM16.8605 9.18534C16.9258 9.45365 17.1963 9.6182 17.4646 9.55289C17.7329 9.48757 17.8974 9.21712 17.8321 8.94881L17.3463 9.06708L16.8605 9.18534ZM13.4763 0.500244L13.3073 0.970852C16.3965 2.07955 18.8444 4.48646 20.0051 7.55632L20.4728 7.37949L20.9405 7.20266C19.6762 3.8589 17.0099 1.23725 13.6452 0.0296367L13.4763 0.500244ZM11.9062 3.71703L11.796 4.20474C14.293 4.76865 16.255 6.69821 16.8605 9.18534L17.3463 9.06708L17.8321 8.94881C17.1368 6.09268 14.8837 3.87687 12.0163 3.22931L11.9062 3.71703Z" fill="#C6A45A"/>
</svg>
