<?xml version="1.0" encoding="utf-8"?>
<!-- Generator: Adobe Illustrator 29.1.0, SVG Export Plug-In . SVG Version: 9.03 Build 55587)  -->
<svg version="1.0" id="Layer_1" xmlns="http://www.w3.org/2000/svg" xmlns:xlink="http://www.w3.org/1999/xlink" x="0px" y="0px"
	 viewBox="0 0 153 90" enable-background="new 0 0 153 90" xml:space="preserve">
<path fill="#ffffff" d="M89.32,28.87c-1.18-0.45-2.36-0.96-3.49-1.52c-7.05-3.6-15.63-4.45-23.1-1.71c-2.23,0.83-4.4,1.91-6.19,3.49
	c6.98-0.84,14.08-0.44,20.76,1.7c1.45,0.47,2.92,1.02,4.32,1.64c0.89,0.39,1.82,0.85,2.71,1.22c0.71,0.29,1.46,0.57,2.19,0.8
	c5.32,1.74,11.52,1.67,16.51-1.01c2.13-1.16,4.1-2.69,5.39-4.76C102.3,31.35,95.45,31.24,89.32,28.87"/>
<path fill="#ffffff" d="M150.41,60.07c-1.5-1.18-3.35-1.43-4.64-1.43h-6.65v0.49h0.17c0.15,0,0.62,0.15,0.87,0.31
	c0.34,0.22,0.72,0.55,0.72,1.19v9.45c0,0.64-0.39,0.97-0.72,1.19c-0.25,0.16-0.72,0.31-0.87,0.31h-0.17v0.49h6.65
	c1.29,0,3.14-0.25,4.64-1.43c1.48-1.17,2.23-2.95,2.23-5.29C152.64,63.02,151.89,61.24,150.41,60.07 M145.77,70.5h-1.67V60.22h1.67
	c2.69,0,3.65,2.65,3.65,5.14C149.43,67.84,148.47,70.5,145.77,70.5"/>
<path fill="#ffffff" d="M30.42,59.14h0.17c0.14,0,0.62,0.15,0.87,0.31c0.34,0.22,0.72,0.55,0.72,1.19v9.45
	c0,0.64-0.39,0.97-0.72,1.19c-0.25,0.16-0.72,0.31-0.87,0.31h-0.17v0.49h10.83v-2.88h-0.49v0.17c0,0.41-0.25,0.66-0.47,0.82
	c-0.26,0.2-0.62,0.31-0.98,0.31h-3.92v-4.45h1.49c0.36,0,0.72,0.11,0.98,0.31c0.22,0.16,0.47,0.41,0.47,0.82v0.17h0.49v-4.19h-0.49
	v0.17c0,0.41-0.25,0.66-0.47,0.82c-0.26,0.2-0.62,0.31-0.98,0.31h-1.49v-4.24h3.92c0.36,0,0.72,0.11,0.98,0.31
	c0.32,0.24,0.47,0.5,0.47,0.82v0.17h0.49v-2.88H30.42V59.14z"/>
<path fill="#ffffff" d="M50.38,59.14h0.17c0.14,0,0.62,0.15,0.87,0.31c0.34,0.22,0.72,0.55,0.72,1.19v9.45
	c0,0.64-0.39,0.97-0.72,1.19c-0.25,0.16-0.72,0.31-0.87,0.31h-0.17v0.49h10.83v-2.88h-0.49v0.17c0,0.41-0.25,0.66-0.47,0.82
	c-0.26,0.2-0.62,0.31-0.98,0.31h-3.92v-4.45h1.49c0.36,0,0.72,0.11,0.98,0.31c0.32,0.24,0.47,0.5,0.47,0.82v0.17h0.49v-4.19h-0.49
	v0.17c0,0.32-0.14,0.58-0.47,0.82c-0.26,0.2-0.62,0.31-0.98,0.31h-1.49v-4.24h3.92c0.36,0,0.72,0.11,0.98,0.31
	c0.32,0.24,0.47,0.5,0.47,0.82v0.17h0.49v-2.88H50.38V59.14z"/>
<path fill="#ffffff" d="M83.24,59.14h0.17c0.14,0,0.62,0.15,0.87,0.31c0.34,0.22,0.72,0.55,0.72,1.19v9.45
	c0,0.64-0.39,0.97-0.72,1.19c-0.25,0.16-0.72,0.31-0.87,0.31h-0.17v0.49h10.83v-2.88h-0.49v0.17c0,0.41-0.25,0.66-0.47,0.82
	c-0.26,0.2-0.62,0.31-0.98,0.31h-3.92v-4.45h1.49c0.36,0,0.72,0.11,0.98,0.31c0.22,0.17,0.47,0.41,0.47,0.82v0.17h0.49v-4.19h-0.49
	v0.17c0,0.41-0.25,0.66-0.47,0.82c-0.26,0.2-0.62,0.31-0.98,0.31h-1.49v-4.24h3.92c0.36,0,0.72,0.11,0.98,0.31
	c0.32,0.24,0.47,0.5,0.47,0.82v0.17h0.49v-2.88H83.24V59.14z"/>
<path fill="#ffffff" d="M21.67,59.14h0.17c0.14,0,0.62,0.15,0.87,0.31c0.34,0.22,0.72,0.55,0.73,1.19v3.83h-4.53v-3.83
	c0-0.64,0.39-0.97,0.72-1.19c0.25-0.16,0.72-0.31,0.87-0.31h0.17v-0.49h-6.74v0.49h0.17c0.14,0,0.62,0.15,0.87,0.31
	c0.34,0.22,0.72,0.55,0.72,1.19v9.45c0,0.64-0.39,0.97-0.72,1.19c-0.25,0.16-0.72,0.31-0.87,0.31h-0.17v0.49h6.74v-0.49H20.5
	c-0.14,0-0.62-0.15-0.87-0.31c-0.34-0.22-0.72-0.55-0.72-1.19v-4.04h4.53v4.04c0,0.64-0.39,0.97-0.73,1.19
	c-0.25,0.16-0.72,0.31-0.87,0.31h-0.17v0.49h6.74v-0.49h-0.17c-0.14,0-0.62-0.15-0.87-0.31c-0.34-0.22-0.73-0.55-0.73-1.19v-9.45
	c0-0.64,0.39-0.97,0.73-1.19c0.25-0.16,0.72-0.31,0.87-0.31h0.17v-0.49h-6.74V59.14z"/>
<path fill="#ffffff" d="M137.76,69.78c0,0.26-0.13,0.45-0.4,0.57l0,0c-0.18,0.09-0.59,0.14-1.05,0.14h-3.55v-9.86
	c0-0.64,0.39-0.97,0.72-1.19c0.25-0.16,0.72-0.31,0.87-0.31h0.17v-0.49h-6.74v0.49h0.17c0.14,0,0.62,0.15,0.87,0.31
	c0.34,0.22,0.72,0.55,0.72,1.19v9.45c0,0.64-0.39,0.97-0.73,1.19c-0.25,0.16-0.72,0.31-0.87,0.31h-0.17v0.49h10.45v-2.47h-0.49
	V69.78z"/>
<path fill="#ffffff" d="M72.07,67l-4.21-8.36h-5.04v0.49h0.17c0.14,0,0.47,0.15,0.69,0.34c0.26,0.23,0.55,0.65,0.59,1.17v9.43
	c-0.04,0.51-0.33,0.94-0.59,1.17c-0.22,0.19-0.55,0.34-0.69,0.34h-0.17v0.49h4.33v-0.49h-0.17c-0.14,0-0.47-0.15-0.69-0.34
	c-0.26-0.23-0.56-0.65-0.59-1.17v-8.4l5.35,10.61l5.18-10.28v8.08c0,0.64-0.39,0.97-0.73,1.19c-0.25,0.16-0.72,0.31-0.87,0.31h-0.17
	v0.49h6.74v-0.49h-0.17c-0.14,0-0.62-0.15-0.87-0.31c-0.34-0.22-0.72-0.55-0.73-1.19v-9.45c0-0.64,0.39-0.97,0.73-1.19
	c0.25-0.16,0.72-0.31,0.87-0.31h0.17v-0.49h-4.91L72.07,67z"/>
<path fill="#ffffff" d="M108.97,71.21l-0.07-0.04c-0.3-0.17-0.65-0.37-1.13-1.16l-1.87-3.85c0.93-0.11,2.36-0.84,2.53-3.1
	c0.03-0.4-0.03-0.77-0.08-1.09l-0.01-0.04c-0.51-3.3-3.24-3.3-4.87-3.29l-7.65,0v0.49H96c0.15,0,0.62,0.15,0.87,0.31
	c0.26,0.17,0.57,0.42,0.68,0.85v9.79c0,0.64-0.39,0.97-0.72,1.19c-0.25,0.16-0.72,0.31-0.87,0.31h-0.17v0.49h6.74v-0.49h-0.17
	c-0.14,0-0.62-0.15-0.87-0.31c-0.34-0.22-0.72-0.55-0.72-1.19v-3.42h1.58l1.64,3.49l0.01,0.02c0.27,0.45,0.28,0.87,0.02,1.12
	c-0.18,0.18-0.65,0.29-0.84,0.29h-0.17v0.49h7.17v-0.49h-0.17C109.85,71.58,109.34,71.43,108.97,71.21 M105.22,62.65
	c0,1.27-0.91,2.43-1.91,2.43l-2.55,0v-4.86h2.55C104.31,60.22,105.22,61.38,105.22,62.65"/>
<path fill="#ffffff" d="M0.36,61.53h0.49v-0.17c0-0.32,0.14-0.58,0.47-0.82c0.26-0.2,0.62-0.31,0.98-0.31h2.08v9.87
	c0,0.64-0.39,0.97-0.73,1.18c-0.25,0.16-0.72,0.31-0.87,0.31H2.62v0.49h6.74v-0.49H9.18c-0.14,0-0.62-0.15-0.87-0.31
	c-0.34-0.22-0.72-0.55-0.72-1.19v-9.86h2.08c0.36,0,0.72,0.11,0.98,0.31c0.32,0.24,0.47,0.5,0.47,0.82v0.17h0.49v-2.88H0.36V61.53z"
	/>
<path fill="#ffffff" d="M125.43,71.27L125.43,71.27c-0.47-0.28-0.8-0.69-1-1.25l-4.21-11.38h-5.1v0.49h0.17
	c0.21,0,0.6,0.07,0.79,0.26c0.18,0.18,0.26,0.64,0.07,1.17l-3.5,9.45c-0.16,0.43-0.57,1-0.82,1.22c-0.22,0.19-0.55,0.34-0.69,0.34
	h-0.17v0.49h4.22v-0.49h-0.17c-0.21,0-0.6-0.07-0.8-0.26c-0.18-0.18-0.27-0.65-0.07-1.18l1.29-3.48h4.27l1.29,3.48
	c0.14,0.38-0.06,0.96-0.33,1.18c-0.21,0.17-0.72,0.26-0.89,0.26h-0.17v0.49h6.87v-0.49h-0.17
	C126.16,71.58,125.73,71.45,125.43,71.27 M119.12,65.08h-3.1l1.55-4.19L119.12,65.08z"/>
<path fill="#ffffff" d="M38.84,84.78c0.72-0.72,1.08-1.58,1.08-2.56c0-0.7-0.17-1.36-0.51-1.95c-0.34-0.59-0.83-1.07-1.46-1.42
	c-0.46-0.25-0.98-0.41-1.52-0.48c-0.52-0.07-1.15-0.1-1.87-0.1h-3.05v11.72h1.8V79.95h1.49c0.7,0,1.23,0.04,1.58,0.12
	c0.33,0.07,0.59,0.19,0.8,0.33c0.29,0.2,0.52,0.46,0.69,0.77c0.17,0.31,0.25,0.62,0.25,0.93c0,0.44-0.11,0.81-0.34,1.15
	c-0.23,0.34-0.54,0.6-0.94,0.78c-0.28,0.12-0.58,0.2-0.91,0.24c-0.34,0.04-0.7,0.06-1.08,0.06l-0.36-0.03l-1.04,0l4.4,5.68L40.1,90
	l-3.24-4.18C37.61,85.69,38.27,85.35,38.84,84.78"/>
<rect x="41.41" y="78.28" fill="#ffffff" width="1.8" height="11.72"/>
<polygon fill="#ffffff" points="49.96,87.44 46.2,78.27 44.22,78.28 49.22,89.99 50.73,89.99 55.73,78.28 53.78,78.28 "/>
<polygon fill="#ffffff" points="56.4,89.99 65.14,89.99 65.14,88.32 58.2,88.32 58.2,84.91 65.14,84.91 65.14,83.27 58.2,83.27 
	58.2,79.95 65.14,79.95 65.14,78.28 56.4,78.28 "/>
<path fill="#ffffff" d="M74.44,84.78c0.72-0.72,1.08-1.58,1.08-2.56c0-0.7-0.17-1.36-0.51-1.95c-0.34-0.59-0.83-1.07-1.46-1.42
	c-0.46-0.25-0.98-0.41-1.52-0.48c-0.52-0.07-1.15-0.1-1.87-0.1h-3.05v11.72h1.8V79.95h1.49c0.7,0,1.23,0.04,1.58,0.12
	c0.33,0.07,0.59,0.19,0.8,0.33c0.29,0.2,0.52,0.46,0.69,0.77c0.17,0.31,0.25,0.62,0.25,0.93c0,0.44-0.11,0.81-0.34,1.15
	c-0.23,0.34-0.54,0.6-0.94,0.78c-0.28,0.12-0.58,0.2-0.91,0.24c-0.34,0.04-0.7,0.06-1.08,0.06l-0.36-0.03l-1.04,0l4.4,5.68L75.71,90
	l-3.24-4.18C73.22,85.69,73.88,85.35,74.44,84.78"/>
<path fill="#ffffff" d="M89.05,78.95c-0.49-0.31-0.99-0.5-1.47-0.57c-0.45-0.07-1.06-0.1-1.8-0.1h-3.32v11.72h1.8v-4.45h1.83
	c0.67,0,1.19-0.04,1.61-0.13c0.58-0.12,1.1-0.34,1.55-0.65c0.95-0.69,1.43-1.64,1.43-2.84c0-0.62-0.15-1.2-0.43-1.72
	C89.95,79.68,89.55,79.26,89.05,78.95 M88.87,81.92c0,0.33-0.07,0.62-0.22,0.89c-0.15,0.27-0.35,0.48-0.63,0.65
	c-0.28,0.18-0.57,0.29-0.86,0.33c-0.32,0.05-0.74,0.07-1.25,0.07h-1.64v-3.91h1.98c0.27,0,0.54,0.02,0.79,0.05
	c0.24,0.03,0.44,0.09,0.63,0.17C88.48,80.49,88.87,81.07,88.87,81.92"/>
<path fill="#ffffff" d="M96.19,78.28L91,89.99l1.96,0l1.63-3.71h4.88l1.66,3.71l1.96,0l-5.2-11.71H96.19z M98.74,84.61h-3.39
	l1.71-3.88L98.74,84.61z"/>
<path fill="#ffffff" d="M111.31,84.78c0.72-0.72,1.08-1.58,1.08-2.56c0-0.7-0.17-1.36-0.51-1.95c-0.34-0.59-0.83-1.07-1.46-1.42
	c-0.46-0.25-0.98-0.41-1.52-0.48c-0.52-0.07-1.15-0.1-1.87-0.1h-3.05v11.72h1.8V79.95h1.49c0.7,0,1.23,0.04,1.58,0.12
	c0.33,0.07,0.59,0.19,0.8,0.33c0.29,0.2,0.52,0.46,0.69,0.77c0.17,0.31,0.25,0.62,0.25,0.93c0,0.44-0.11,0.81-0.34,1.15
	c-0.23,0.34-0.54,0.6-0.94,0.78c-0.28,0.12-0.58,0.2-0.91,0.24c-0.34,0.04-0.7,0.06-1.08,0.06l-0.36-0.03l-1.04,0l4.4,5.68
	l2.25,0.01l-3.24-4.18C110.09,85.69,110.75,85.35,111.31,84.78"/>
<polygon fill="#ffffff" points="122.77,78.28 120.46,78.27 115.68,84.02 115.68,78.28 113.88,78.28 113.88,89.99 115.68,89.99 
	115.68,86.76 116.83,85.39 120.51,89.98 122.76,90 118,83.99 "/>
<path fill="#ffffff" d="M113.15,31.88c0.1-0.32,0.13-0.66,0.08-0.99C110.28,13.17,94.86,0,76.71,0c-5,0-9.84,0.98-14.41,2.91
	c-4.41,1.86-8.37,4.53-11.77,7.93c-3.4,3.4-6.07,7.36-7.93,11.77c-1.93,4.56-2.91,9.41-2.91,14.41c0,0.94,0.11,2.84,0.11,2.84
	s0.38-0.07,0.57-0.1c10.57-1.89,21.65-1.68,31.82,1.95c2.15,0.74,4.28,1.69,6.34,2.66c4.34,1.98,9.13,3.07,13.91,2.76
	c2.89-0.18,5.76-0.89,8.38-2.1c5.37-2.49,9.82-6.99,12.06-12.46c0.08-0.19,0.15-0.37,0.22-0.56
	C113.12,31.97,113.13,31.93,113.15,31.88 M93.48,39.02c-1.72-0.08-3.43-0.36-5.1-0.79c-2.03-0.54-4.06-1.32-5.97-2.25
	c-0.66-0.32-1.64-0.81-2.31-1.1c-12.18-5.55-27.48-4.83-38.34,3.26c-0.48,0.37-0.96,0.76-1.41,1.18c-0.05-0.77-0.07-1.54-0.07-2.3
	c0-20.1,16.35-36.44,36.44-36.44c17.83,0,32.98,12.92,35.92,30.32c0.05,0.3-0.03,0.61-0.23,0.84c-0.44,0.51-0.95,0.99-1.49,1.44
	c-0.56,0.39-1.12,0.77-1.69,1.13c-1.71,1.08-3.5,2.03-5.35,2.79c-1.58,0.62-2.85,1-3.36,1.14C98.23,38.85,95.87,39.14,93.48,39.02"
	/>
</svg>
