<?xml version="1.0" encoding="utf-8"?>
<!-- Generator: Adobe Illustrator 29.1.0, SVG Export Plug-In . SVG Version: 9.03 Build 55587)  -->
<svg version="1.0" id="Layer_1" xmlns="http://www.w3.org/2000/svg" xmlns:xlink="http://www.w3.org/1999/xlink" x="0px" y="0px"
	 width="574px" height="287px" viewBox="0 0 574 287" enable-background="new 0 0 574 287" xml:space="preserve">
<g>
	<g>
		<path fill="#006B52" d="M445.83,252.84l0.58,4.13h-0.31c-0.29-1.14-0.95-2.04-1.99-2.7c-1.04-0.65-2.53-0.98-4.48-0.98h-0.58
			c-0.67,0-1.23,0.14-1.67,0.42c-0.44,0.28-0.66,0.7-0.66,1.26v21.53c0,0.54,0.2,0.94,0.6,1.22s0.88,0.42,1.42,0.42v0.28h-6.85
			v-0.28c0.57,0,1.05-0.14,1.44-0.42s0.58-0.69,0.58-1.22v-21.53c0-0.56-0.22-0.98-0.66-1.26s-1-0.42-1.67-0.42H431
			c-1.95,0-3.44,0.33-4.48,0.98c-1.04,0.65-1.7,1.55-1.98,2.7h-0.31l0.58-4.13H445.83z"/>
		<path fill="#006B52" d="M447.97,252.84h10.12c1.4,0,2.68,0.17,3.83,0.53c1.15,0.35,2.15,0.86,2.98,1.52
			c0.83,0.67,1.48,1.46,1.95,2.4c0.47,0.93,0.7,2,0.7,3.18c0,1.21-0.23,2.32-0.68,3.31c-0.46,0.99-1.09,1.84-1.91,2.55
			c-0.82,0.71-1.79,1.26-2.9,1.65s-2.33,0.58-3.66,0.58h-5.6v7.95c0,0.54,0.19,0.94,0.58,1.22c0.39,0.28,0.87,0.42,1.44,0.42v0.28
			h-6.85v-0.28c0.57,0,1.05-0.14,1.44-0.42c0.39-0.28,0.58-0.69,0.58-1.22v-21.74c0-0.54-0.19-0.95-0.58-1.22
			c-0.39-0.28-0.87-0.42-1.44-0.42V252.84z M452.79,268.1h5.45c0.93,0,1.8-0.18,2.59-0.54c0.79-0.36,1.48-0.87,2.06-1.52
			s1.04-1.45,1.36-2.38c0.32-0.93,0.49-1.97,0.49-3.12s-0.16-2.16-0.49-3.06s-0.79-1.66-1.4-2.28c-0.61-0.62-1.33-1.09-2.16-1.42
			s-1.75-0.49-2.76-0.49h-2.02c-1.17,0-1.98,0.14-2.43,0.42s-0.68,0.69-0.68,1.22V268.1z"/>
		<path fill="#006B52" d="M470.77,275.21c0.57,0,1.05,0.17,1.44,0.52c0.39,0.35,0.58,0.79,0.58,1.33c0,0.51-0.19,0.95-0.58,1.29
			c-0.39,0.35-0.87,0.53-1.44,0.53c-0.6,0-1.09-0.17-1.48-0.53c-0.39-0.35-0.58-0.78-0.58-1.29c0-0.54,0.2-0.98,0.58-1.33
			C469.68,275.38,470.18,275.21,470.77,275.21z"/>
		<path fill="#006B52" d="M484.78,254.77c0-0.56-0.2-0.97-0.6-1.24s-0.88-0.4-1.42-0.4v-0.28h6.85v0.28c-0.57,0-1.05,0.13-1.44,0.4
			c-0.39,0.27-0.58,0.68-0.58,1.24v10.71h12.26v-10.71c0-0.56-0.2-0.97-0.6-1.24s-0.88-0.4-1.42-0.4v-0.28h6.85v0.28
			c-0.57,0-1.05,0.13-1.44,0.4c-0.39,0.27-0.58,0.68-0.58,1.24v21.74c0,0.54,0.19,0.94,0.58,1.22c0.39,0.28,0.87,0.42,1.44,0.42
			v0.28h-6.85v-0.28c0.54,0,1.02-0.14,1.42-0.42s0.6-0.69,0.6-1.22v-10.57h-12.26v10.57c0,0.54,0.19,0.94,0.58,1.22
			c0.39,0.28,0.87,0.42,1.44,0.42v0.28h-6.85v-0.28c0.54,0,1.02-0.14,1.42-0.42s0.6-0.69,0.6-1.22V254.77z"/>
		<path fill="#006B52" d="M520.86,252.98c-1.71,0-3.24,0.29-4.59,0.86c-1.35,0.57-2.49,1.4-3.42,2.49s-1.64,2.41-2.12,3.97
			c-0.48,1.56-0.72,3.33-0.72,5.29c0,1.98,0.25,3.75,0.74,5.3c0.49,1.55,1.21,2.87,2.14,3.96c0.93,1.08,2.07,1.91,3.41,2.49
			c1.34,0.57,2.85,0.86,4.53,0.86c2.34,0,4.3-0.53,5.9-1.59c1.6-1.06,2.76-2.59,3.48-4.6l0.51,0.18c-0.83,2.22-2.13,3.89-3.89,5.02
			s-3.97,1.7-6.62,1.7c-1.97,0-3.77-0.32-5.39-0.96c-1.62-0.64-3.01-1.54-4.17-2.71s-2.04-2.57-2.67-4.22s-0.92-3.48-0.9-5.51
			c0.03-2.03,0.37-3.85,1.03-5.46c0.66-1.61,1.62-2.97,2.88-4.09c1.26-1.12,2.79-1.97,4.59-2.55c1.8-0.58,3.85-0.88,6.13-0.88
			c1.66,0,3.15,0.15,4.48,0.45c1.32,0.3,2.39,0.72,3.19,1.26l0.16,4.06h-0.31c-0.83-1.8-1.91-3.13-3.23-3.99
			C524.68,253.42,522.97,252.98,520.86,252.98z"/>
		<path fill="#006B52" d="M557.8,252.84v0.28c-0.54,0-1.02,0.13-1.42,0.4s-0.6,0.68-0.6,1.24v21.74c0,0.54,0.2,0.94,0.6,1.22
			s0.88,0.42,1.42,0.42v0.28h-6.85v-0.28c0.57,0,1.05-0.14,1.44-0.42c0.39-0.28,0.58-0.69,0.58-1.22v-22.12l-8.6,24.01L536,257.01
			l-0.35-0.84v18.97c0,0.84,0.25,1.55,0.74,2.13c0.49,0.58,1.32,0.88,2.49,0.88v0.28h-6.85v-0.28c1.14,0,1.95-0.29,2.41-0.88
			c0.47-0.58,0.7-1.29,0.7-2.13v-18.97c0-0.23-0.01-0.46-0.02-0.68c-0.01-0.22-0.05-0.43-0.1-0.61c-0.29-0.51-0.64-0.93-1.07-1.26
			c-0.43-0.33-0.94-0.49-1.54-0.49v-0.28h4.87l8.17,21.07l7.51-21.07H557.8z"/>
	</g>
</g>
<g>
	<g>
		<path fill="#006B52" d="M252.8,206.41c-0.67,0-1.24-0.22-1.72-0.65c-0.48-0.43-0.72-0.95-0.72-1.55c0-0.97,0.38-1.91,1.14-2.83
			c0.76-0.92,1.55-1.66,2.36-2.22l0.33,0.3c-0.15,0.13-0.34,0.34-0.58,0.62c-0.24,0.28-0.45,0.57-0.64,0.85
			c-0.19,0.28-0.31,0.53-0.36,0.73s0.01,0.3,0.19,0.3c0.7,0,1.3,0.22,1.78,0.65s0.72,0.97,0.72,1.6c0,0.6-0.24,1.12-0.72,1.55
			C254.1,206.19,253.51,206.41,252.8,206.41z M259.42,206.41c-0.67,0-1.24-0.22-1.72-0.65c-0.48-0.43-0.72-0.95-0.72-1.55
			c0-0.97,0.38-1.91,1.14-2.83c0.76-0.92,1.55-1.66,2.36-2.22l0.33,0.3c-0.15,0.13-0.34,0.34-0.58,0.62s-0.45,0.57-0.64,0.85
			c-0.19,0.28-0.31,0.53-0.36,0.73c-0.05,0.2,0.01,0.3,0.2,0.3c0.7,0,1.3,0.22,1.78,0.65c0.48,0.43,0.72,0.97,0.72,1.6
			c0,0.6-0.24,1.12-0.72,1.55C260.72,206.19,260.12,206.41,259.42,206.41z"/>
		<path fill="#006B52" d="M268.7,205.61c-0.26-0.67-0.54-1.33-0.83-2c-0.3-0.67-0.64-1.26-1.03-1.78c-0.39-0.52-0.85-0.94-1.39-1.28
			c-0.54-0.33-1.16-0.5-1.86-0.5v-0.4h10.84v0.4c-0.89,0-1.53,0.12-1.92,0.35c-0.39,0.23-0.62,0.55-0.69,0.95
			c-0.08,0.4-0.03,0.88,0.14,1.42s0.36,1.16,0.58,1.83l9.84,26.3c0.52-1.27,1.03-2.53,1.53-3.8c0.5-1.27,0.97-2.47,1.42-3.6
			c0.45-1.13,0.84-2.16,1.2-3.08c0.35-0.92,0.64-1.64,0.86-2.17c0.33-0.8,0.78-1.9,1.33-3.3c0.56-1.4,1.1-2.86,1.64-4.38
			c0.54-1.52,1.01-2.97,1.42-4.35c0.41-1.38,0.61-2.46,0.61-3.23c0-0.87-0.31-1.58-0.92-2.12c-0.61-0.55-1.47-0.83-2.59-0.83v-0.4
			h9.79v0.4c-1.08,0-2.02,0.37-2.84,1.1s-1.59,1.9-2.33,3.5c-0.33,0.77-0.76,1.83-1.28,3.17c-0.52,1.35-1.25,3.24-2.2,5.67
			c-0.95,2.43-2.16,5.53-3.64,9.3c-1.48,3.77-3.39,8.45-5.73,14.05L268.7,205.61z"/>
		<path fill="#006B52" d="M303.29,202.31c0-0.77-0.29-1.34-0.86-1.72c-0.58-0.38-1.25-0.58-2.03-0.58v-0.35h9.79v0.35
			c-0.82,0-1.5,0.19-2.06,0.58c-0.56,0.38-0.83,0.96-0.83,1.72v24.2c0,1.7,0.29,3.12,0.86,4.25c0.57,1.13,1.35,2.05,2.33,2.75
			c0.98,0.7,2.1,1.2,3.36,1.5c1.26,0.3,2.58,0.45,3.95,0.45c1.22,0,2.43-0.12,3.61-0.38c1.19-0.25,2.24-0.7,3.17-1.35
			c0.93-0.65,1.67-1.53,2.22-2.62c0.56-1.1,0.83-2.5,0.83-4.2c0-3.73,0.01-7.48,0.03-11.25s0.03-7.52,0.03-11.25
			c0-1.2-0.33-2.23-1-3.1c-0.67-0.87-1.82-1.3-3.45-1.3v-0.35h9.79v0.35c-1.67,0-2.86,0.43-3.56,1.3c-0.71,0.87-1.06,1.9-1.06,3.1
			v22.7c0,1.9-0.35,3.47-1.06,4.72s-1.64,2.25-2.81,3s-2.49,1.28-3.98,1.58c-1.48,0.3-3,0.45-4.56,0.45c-1.67,0-3.26-0.17-4.78-0.5
			c-1.52-0.33-2.87-0.89-4.06-1.68c-1.19-0.78-2.13-1.82-2.83-3.12c-0.71-1.3-1.06-2.92-1.06-4.85V202.31z M314.41,189.81l7.95,7.35
			h-0.72l-10.56-6.45L314.41,189.81z"/>
		<path fill="#006B52" d="M362.28,236.16l-21.07-30.55c-0.08-0.13-0.16-0.27-0.25-0.4c-0.09-0.13-0.18-0.27-0.25-0.4v26.7
			c0,1.2,0.35,2.22,1.06,3.05c0.7,0.83,1.89,1.25,3.56,1.25v0.4h-9.79v-0.4c1.63,0,2.78-0.42,3.45-1.25c0.67-0.83,1-1.85,1-3.05
			v-27.1c0-0.17,0-0.33,0-0.5s-0.02-0.33-0.06-0.5c-0.48-0.9-0.99-1.68-1.53-2.35c-0.54-0.67-1.31-1-2.31-1v-0.4h5.73l20.46,29.7
			v-25c0-1.2-0.35-2.22-1.06-3.05c-0.71-0.83-1.89-1.25-3.56-1.25v-0.4h9.79v0.4c-1.63,0-2.78,0.42-3.45,1.25
			c-0.67,0.83-1,1.85-1,3.05v31.85h-0.72V236.16z"/>
		<path fill="#006B52" d="M399.26,220.36c0-0.77-0.28-1.33-0.83-1.7c-0.56-0.37-1.24-0.55-2.06-0.55v-0.4h9.23v0.4
			c-1.56,0-2.34,0.75-2.34,2.25v6.9c-1.19,3.17-3.04,5.56-5.56,7.17c-2.52,1.62-5.67,2.43-9.45,2.43c-2.82,0-5.38-0.46-7.7-1.38
			c-2.32-0.92-4.3-2.21-5.95-3.88c-1.65-1.67-2.92-3.68-3.81-6.03c-0.89-2.35-1.32-4.97-1.28-7.88c0.04-2.9,0.53-5.5,1.47-7.8
			s2.32-4.25,4.11-5.85c1.8-1.6,3.98-2.82,6.56-3.65c2.58-0.83,5.5-1.25,8.76-1.25c2.37,0,4.5,0.22,6.39,0.65
			c1.89,0.43,3.41,1.03,4.56,1.8l0.22,5.8h-0.44c-1.19-2.57-2.72-4.47-4.62-5.7c-1.89-1.23-4.34-1.85-7.34-1.85
			c-2.45,0-4.63,0.41-6.56,1.22c-1.93,0.82-3.56,2-4.89,3.55c-1.33,1.55-2.35,3.44-3.03,5.67c-0.69,2.23-1.03,4.75-1.03,7.55
			c0,2.83,0.35,5.38,1.06,7.62s1.71,4.16,3.03,5.72c1.32,1.57,2.93,2.78,4.84,3.62c1.91,0.85,4.05,1.28,6.42,1.28
			c2.15,0,4.08-0.33,5.78-1s3.19-1.62,4.45-2.85V220.36z"/>
		<path fill="#006B52" d="M437.79,215.11l7.56-10.7c0.85-1.2,1.22-2.23,1.11-3.1c-0.11-0.87-0.98-1.3-2.61-1.3v-0.35h9.79v0.35
			c-1.63,0-3.07,0.43-4.31,1.3c-1.24,0.87-2.29,1.9-3.14,3.1l-8.01,11.35l12.01,17.7c0.52,0.8,1.17,1.39,1.95,1.78
			c0.78,0.38,1.56,0.57,2.34,0.57v0.4h-9.56v-0.4c1.52,0,1.76-0.78,0.72-2.35l-9.79-14.45l-8.79,12.5c-0.85,1.2-1.16,2.22-0.92,3.05
			c0.24,0.83,1.2,1.25,2.86,1.25v0.4h-9.79v-0.4c1.63,0,2.99-0.42,4.09-1.25c1.09-0.83,2.07-1.85,2.92-3.05l9.23-13.1l-10.84-16
			c-1.08-1.57-2.45-2.35-4.11-2.35v-0.4h9.56v0.4c-0.78,0-1.26,0.19-1.45,0.58c-0.19,0.38,0,0.98,0.56,1.78L437.79,215.11z"/>
		<path fill="#006B52" d="M486.38,230.26c0.26,0.67,0.54,1.33,0.83,2c0.3,0.67,0.64,1.26,1.03,1.78c0.39,0.52,0.85,0.94,1.39,1.27
			c0.54,0.33,1.16,0.5,1.86,0.5v0.4h-10.84v-0.4c0.89,0,1.53-0.12,1.92-0.35c0.39-0.23,0.62-0.55,0.7-0.95
			c0.07-0.4,0.03-0.88-0.14-1.45c-0.17-0.57-0.36-1.17-0.58-1.8l-2.78-7.45h-14.51c-0.37,1.03-0.68,1.89-0.92,2.58
			c-0.24,0.68-0.44,1.27-0.58,1.75c-0.15,0.48-0.27,0.88-0.36,1.2c-0.09,0.32-0.18,0.61-0.25,0.88c-0.59,1.8-0.64,3.18-0.14,4.15
			c0.5,0.97,1.47,1.45,2.92,1.45v0.4h-9.79v-0.4c1.3,0,2.35-0.35,3.17-1.05s1.61-1.93,2.39-3.7c0.37-0.83,0.81-1.94,1.33-3.32
			c0.52-1.38,1.25-3.28,2.2-5.7s2.15-5.48,3.61-9.17c1.46-3.7,3.33-8.27,5.59-13.7L486.38,230.26z M479.49,223.16l-6.73-18.05
			c-1.04,2.53-2.08,5.09-3.11,7.67c-1.04,2.58-2.06,5.14-3.06,7.67c-0.19,0.5-0.37,0.98-0.56,1.45c-0.19,0.47-0.35,0.88-0.5,1.25
			H479.49z"/>
		<path fill="#006B52" d="M519.91,236.16l-21.07-30.55c-0.08-0.13-0.16-0.27-0.25-0.4c-0.09-0.13-0.18-0.27-0.25-0.4v26.7
			c0,1.2,0.35,2.22,1.06,3.05c0.7,0.83,1.89,1.25,3.56,1.25v0.4h-9.79v-0.4c1.63,0,2.78-0.42,3.45-1.25c0.67-0.83,1-1.85,1-3.05
			v-27.1c0-0.17,0-0.33,0-0.5s-0.02-0.33-0.06-0.5c-0.48-0.9-0.99-1.68-1.53-2.35c-0.54-0.67-1.31-1-2.31-1v-0.4h5.73l20.46,29.7
			v-25c0-1.2-0.35-2.22-1.06-3.05c-0.71-0.83-1.89-1.25-3.56-1.25v-0.4h9.79v0.4c-1.63,0-2.78,0.42-3.45,1.25
			c-0.67,0.83-1,1.85-1,3.05v31.85h-0.72V236.16z"/>
		<path fill="#006B52" d="M529.92,202.41c0-0.8-0.29-1.39-0.86-1.78c-0.58-0.38-1.25-0.58-2.03-0.58v-0.4h9.79v0.4
			c-0.82,0-1.5,0.19-2.06,0.58c-0.56,0.38-0.83,0.98-0.83,1.78v15.3h17.51v-15.3c0-0.8-0.29-1.39-0.86-1.78
			c-0.58-0.38-1.25-0.58-2.03-0.58v-0.4h9.79v0.4c-0.82,0-1.5,0.19-2.06,0.58c-0.56,0.38-0.83,0.98-0.83,1.78v31.05
			c0,0.77,0.28,1.35,0.83,1.75c0.56,0.4,1.24,0.6,2.06,0.6v0.4h-9.79v-0.4c0.78,0,1.46-0.2,2.03-0.6c0.57-0.4,0.86-0.98,0.86-1.75
			v-15.1h-17.51v15.1c0,0.77,0.28,1.35,0.83,1.75c0.56,0.4,1.24,0.6,2.06,0.6v0.4h-9.79v-0.4c0.78,0,1.45-0.2,2.03-0.6
			c0.57-0.4,0.86-0.98,0.86-1.75V202.41z"/>
		<path fill="#006B52" d="M564.17,199.16c0.67,0,1.24,0.22,1.72,0.65c0.48,0.43,0.72,0.95,0.72,1.55c0,0.97-0.38,1.91-1.14,2.82
			c-0.76,0.92-1.55,1.66-2.36,2.23l-0.33-0.3c0.18-0.17,0.39-0.38,0.61-0.65c0.22-0.27,0.43-0.54,0.61-0.83
			c0.19-0.28,0.31-0.52,0.36-0.72c0.05-0.2-0.01-0.3-0.2-0.3c-0.7,0-1.3-0.22-1.78-0.65c-0.48-0.43-0.72-0.97-0.72-1.6
			c0-0.6,0.24-1.12,0.72-1.55C562.87,199.37,563.46,199.16,564.17,199.16z M570.79,199.16c0.67,0,1.24,0.22,1.72,0.65
			c0.48,0.43,0.72,0.95,0.72,1.55c0,0.97-0.38,1.91-1.14,2.82c-0.76,0.92-1.55,1.66-2.36,2.23l-0.33-0.3
			c0.19-0.17,0.39-0.38,0.61-0.65c0.22-0.27,0.42-0.54,0.61-0.83c0.18-0.28,0.31-0.52,0.36-0.72s-0.01-0.3-0.19-0.3
			c-0.71,0-1.3-0.22-1.78-0.65c-0.48-0.43-0.72-0.97-0.72-1.6c0-0.6,0.24-1.12,0.72-1.55C569.49,199.37,570.08,199.16,570.79,199.16
			z"/>
	</g>
</g>
<g>
	<g>
		<path fill="#006B52" d="M199.49,217.32c-1.17,1.63-2.82,2.45-4.94,2.45c-1.45,0-2.51-0.37-3.17-1.1c-0.66-0.74-0.99-1.9-0.99-3.48
			V203.6h-3.08l0.08-0.28l0.89-0.17c0.6-0.16,1.15-0.41,1.65-0.74c0.51-0.33,0.97-0.71,1.38-1.15s0.76-0.92,1.03-1.44
			c0.27-0.51,0.45-1.03,0.53-1.54h0.31v4.45h6.27l-0.31,0.88h-5.96v11.48c0,1.33,0.21,2.29,0.62,2.87c0.42,0.58,1.08,0.88,1.99,0.88
			c0.7,0,1.36-0.15,1.96-0.46c0.61-0.3,1.1-0.71,1.46-1.22L199.49,217.32z"/>
		<path fill="#006B52" d="M214.63,216.3c0,0.86,0.06,1.44,0.17,1.73s0.33,0.44,0.64,0.44c0.6,0,1.09-0.4,1.48-1.19l0.27,0.11
			c-0.29,0.72-0.72,1.3-1.3,1.73s-1.2,0.65-1.85,0.65c-0.78,0-1.34-0.22-1.69-0.67s-0.53-1.17-0.53-2.17v-0.84
			c-0.36,0.4-0.8,0.81-1.32,1.24c-0.52,0.43-1.08,0.83-1.69,1.19c-0.61,0.36-1.26,0.66-1.95,0.89c-0.69,0.23-1.38,0.35-2.08,0.35
			c-1.19,0-2.19-0.32-2.98-0.96c-0.79-0.64-1.19-1.45-1.19-2.43c0-0.7,0.2-1.33,0.6-1.89c0.4-0.56,0.93-1.06,1.58-1.5
			c0.65-0.44,1.38-0.84,2.2-1.19c0.82-0.35,1.64-0.66,2.47-0.93s1.63-0.5,2.39-0.7s1.42-0.37,1.97-0.51v-0.8
			c0-0.65-0.03-1.28-0.1-1.89c-0.06-0.61-0.22-1.15-0.47-1.63c-0.25-0.48-0.62-0.86-1.11-1.16c-0.49-0.29-1.18-0.44-2.06-0.44
			c-1.06,0-2.11,0.22-3.13,0.65c-1.03,0.43-1.9,1.02-2.63,1.77l-0.23-0.17c0.93-1,2.06-1.8,3.39-2.38s2.67-0.88,4.05-0.88
			c1.06,0,1.93,0.18,2.61,0.54c0.67,0.36,1.19,0.84,1.56,1.44s0.61,1.28,0.74,2.05c0.13,0.77,0.2,1.58,0.2,2.42V216.3z
			 M211.83,210.11c-0.73,0.21-1.58,0.46-2.57,0.74c-0.99,0.28-1.92,0.63-2.8,1.05c-0.88,0.42-1.63,0.93-2.24,1.52
			s-0.91,1.3-0.91,2.12c0,0.72,0.29,1.35,0.88,1.87c0.58,0.52,1.36,0.79,2.32,0.79c0.91,0,1.86-0.26,2.86-0.79
			c1-0.53,1.82-1.15,2.47-1.87V210.11z M208.91,221.31c0.57,0,1.05,0.17,1.44,0.52c0.39,0.35,0.58,0.79,0.58,1.33
			c0,0.51-0.19,0.95-0.58,1.29c-0.39,0.35-0.87,0.53-1.44,0.53c-0.6,0-1.09-0.17-1.48-0.53c-0.39-0.35-0.58-0.78-0.58-1.29
			c0-0.54,0.19-0.98,0.58-1.33C207.82,221.48,208.31,221.31,208.91,221.31z"/>
		<path fill="#006B52" d="M223,217.46c0,0.54,0.19,0.93,0.58,1.19s0.87,0.38,1.44,0.38v0.28h-6.85v-0.28c0.54,0,1.02-0.13,1.42-0.38
			c0.4-0.26,0.6-0.65,0.6-1.19v-11.83c0-0.61-0.21-1.01-0.64-1.21s-0.9-0.3-1.42-0.3l-0.08-0.28l4.94-1.12V217.46z M221.29,196.35
			c0.57,0,1.05,0.17,1.44,0.53c0.39,0.35,0.58,0.79,0.58,1.33c0,0.51-0.19,0.95-0.58,1.3c-0.39,0.35-0.87,0.52-1.44,0.52
			c-0.6,0-1.09-0.17-1.48-0.52c-0.39-0.35-0.58-0.78-0.58-1.3c0-0.54,0.19-0.98,0.58-1.33C220.2,196.53,220.69,196.35,221.29,196.35
			z"/>
	</g>
</g>
<g>
	<g>
		<path fill="#006B52" d="M2.56,68.4h9.92c1.27,0,2.43,0.13,3.48,0.4c1.05,0.27,1.95,0.64,2.69,1.12c0.74,0.48,1.32,1.06,1.73,1.73
			s0.62,1.42,0.62,2.24c0,1.35-0.53,2.52-1.58,3.5c-1.05,0.98-2.47,1.61-4.26,1.89c1.27,0.16,2.38,0.47,3.33,0.93s1.73,1,2.36,1.64
			c0.62,0.64,1.09,1.37,1.4,2.19c0.31,0.82,0.47,1.68,0.47,2.59c0,1.07-0.21,2.06-0.64,2.97c-0.43,0.91-1.03,1.69-1.79,2.33
			c-0.77,0.64-1.69,1.14-2.76,1.5c-1.08,0.36-2.26,0.54-3.56,0.54H2.56v-0.28c0.57,0,1.05-0.14,1.44-0.42
			c0.39-0.28,0.58-0.69,0.58-1.22V70.33c0-0.54-0.19-0.95-0.58-1.22c-0.39-0.28-0.87-0.42-1.44-0.42V68.4z M7.38,79.15h5.76
			c0.75,0,1.44-0.12,2.06-0.37c0.62-0.25,1.16-0.6,1.62-1.05c0.45-0.46,0.81-0.99,1.07-1.61c0.26-0.62,0.39-1.29,0.39-2.01
			c0-0.77-0.14-1.48-0.43-2.13c-0.29-0.65-0.68-1.21-1.19-1.66s-1.12-0.81-1.83-1.07s-1.5-0.38-2.35-0.38H9.56
			c-0.6,0-1.11,0.12-1.54,0.37C7.6,69.47,7.38,69.9,7.38,70.5V79.15z M13.81,93.53c0.91,0,1.74-0.16,2.49-0.49
			c0.75-0.33,1.39-0.79,1.93-1.4c0.53-0.61,0.95-1.33,1.25-2.17c0.3-0.84,0.45-1.76,0.45-2.77c0-0.96-0.14-1.87-0.41-2.73
			s-0.69-1.62-1.27-2.26c-0.57-0.64-1.28-1.16-2.12-1.54s-1.85-0.58-3.02-0.58H7.38v12.29c0,0.61,0.21,1.03,0.64,1.28
			c0.43,0.25,0.94,0.37,1.54,0.37H13.81z"/>
		<path fill="#006B52" d="M26.73,70.33c0-0.56-0.2-0.97-0.6-1.24s-0.88-0.4-1.42-0.4V68.4h6.85v0.28c-0.57,0-1.05,0.13-1.44,0.4
			c-0.39,0.27-0.58,0.68-0.58,1.24v21.74c0,0.54,0.19,0.94,0.58,1.22c0.39,0.28,0.87,0.42,1.44,0.42v0.28H24.7v-0.28
			c0.54,0,1.02-0.14,1.42-0.42s0.6-0.69,0.6-1.22V70.33z"/>
		<path fill="#006B52" d="M51.33,93.99H33.89v-0.28c0.52,0,0.99-0.14,1.4-0.42s0.62-0.69,0.62-1.22V70.33
			c0-0.49-0.19-0.88-0.56-1.17s-0.86-0.45-1.46-0.47V68.4h17.44l0.58,4.13H51.6c-0.29-1.14-0.95-2.04-1.99-2.7
			c-1.04-0.65-2.53-0.98-4.48-0.98h-4.09c-0.67,0-1.23,0.14-1.67,0.42s-0.66,0.7-0.66,1.26v10.15h6.62c0.93,0,1.67-0.22,2.22-0.67
			s0.82-1.18,0.82-2.21h0.31v6.2h-0.31c0-1.05-0.27-1.79-0.82-2.22s-1.28-0.65-2.22-0.65h-6.62v10.75c0,0.54,0.22,0.94,0.66,1.22
			s1,0.42,1.67,0.42h4.09c1.95,0,3.44-0.33,4.48-0.98s1.7-1.55,1.99-2.7h0.31L51.33,93.99z M43.46,61.54l5.06,5.11h-0.39l-4.71-2.59
			l-4.63,2.59H38.4L43.46,61.54z M47.86,57.1c0.39,0,0.79,0.03,1.21,0.1s0.8,0.19,1.15,0.37c0.35,0.18,0.64,0.4,0.86,0.68
			c0.22,0.28,0.33,0.63,0.33,1.05c0,0.54-0.18,0.96-0.53,1.26c-0.35,0.3-0.73,0.58-1.13,0.84c-0.4,0.26-0.78,0.54-1.13,0.84
			c-0.35,0.3-0.53,0.74-0.53,1.29h-0.31c-0.23-0.68-0.25-1.21-0.06-1.59c0.2-0.38,0.45-0.73,0.78-1.03c0.32-0.3,0.64-0.61,0.95-0.91
			c0.31-0.3,0.47-0.7,0.47-1.19c0-0.47-0.15-0.83-0.45-1.08c-0.3-0.26-0.66-0.38-1.07-0.38c-0.34,0-0.63,0.08-0.88,0.23
			c-0.25,0.15-0.46,0.34-0.64,0.56s-0.32,0.47-0.43,0.74s-0.17,0.52-0.19,0.75l-1.56-0.91c0.36-0.4,0.82-0.76,1.38-1.1
			C46.65,57.27,47.24,57.1,47.86,57.1z"/>
		<path fill="#006B52" d="M56.27,70.26c0-0.54-0.2-0.94-0.6-1.21c-0.4-0.27-0.88-0.4-1.42-0.4V68.4h6.85v0.25
			c-0.57,0-1.05,0.13-1.44,0.4c-0.39,0.27-0.58,0.67-0.58,1.21V87.2c0,1.19,0.2,2.18,0.6,2.97c0.4,0.79,0.95,1.44,1.63,1.93
			c0.69,0.49,1.47,0.84,2.36,1.05c0.88,0.21,1.8,0.31,2.76,0.31c0.86,0,1.7-0.09,2.53-0.26c0.83-0.18,1.57-0.49,2.22-0.95
			c0.65-0.46,1.17-1.07,1.56-1.84c0.39-0.77,0.58-1.75,0.58-2.94c0-2.61,0.01-5.24,0.02-7.88c0.01-2.64,0.02-5.26,0.02-7.88
			c0-0.84-0.23-1.56-0.7-2.17c-0.47-0.61-1.27-0.91-2.41-0.91V68.4h6.85v0.25c-1.17,0-2,0.3-2.49,0.91s-0.74,1.33-0.74,2.17v15.89
			c0,1.33-0.25,2.43-0.74,3.31c-0.49,0.88-1.15,1.58-1.97,2.1c-0.82,0.53-1.75,0.89-2.78,1.1s-2.1,0.32-3.19,0.32
			c-1.17,0-2.28-0.12-3.35-0.35c-1.06-0.23-2.01-0.62-2.84-1.17c-0.83-0.55-1.49-1.28-1.99-2.19s-0.74-2.04-0.74-3.4V70.26z"/>
		<path fill="#006B52" d="M107.65,68.4l0.58,4.13h-0.31c-0.29-1.14-0.95-2.04-1.99-2.7c-1.04-0.65-2.53-0.98-4.48-0.98h-0.58
			c-0.67,0-1.23,0.14-1.67,0.42c-0.44,0.28-0.66,0.7-0.66,1.26v21.53c0,0.54,0.2,0.94,0.6,1.22s0.88,0.42,1.42,0.42v0.28h-6.85
			v-0.28c0.57,0,1.05-0.14,1.44-0.42s0.58-0.69,0.58-1.22V70.54c0-0.56-0.22-0.98-0.66-1.26s-1-0.42-1.67-0.42h-0.58
			c-1.95,0-3.44,0.33-4.48,0.98c-1.04,0.65-1.7,1.55-1.98,2.7h-0.31l0.58-4.13H107.65z"/>
		<path fill="#006B52" d="M112,70.26c0-0.54-0.2-0.94-0.6-1.21c-0.4-0.27-0.88-0.4-1.42-0.4V68.4h6.85v0.25
			c-0.57,0-1.05,0.13-1.44,0.4c-0.39,0.27-0.58,0.67-0.58,1.21V87.2c0,1.19,0.2,2.18,0.6,2.97c0.4,0.79,0.95,1.44,1.63,1.93
			c0.69,0.49,1.47,0.84,2.36,1.05c0.88,0.21,1.8,0.31,2.76,0.31c0.86,0,1.7-0.09,2.53-0.26c0.83-0.18,1.57-0.49,2.22-0.95
			c0.65-0.46,1.17-1.07,1.56-1.84c0.39-0.77,0.58-1.75,0.58-2.94c0-2.61,0.01-5.24,0.02-7.88c0.01-2.64,0.02-5.26,0.02-7.88
			c0-0.84-0.23-1.56-0.7-2.17c-0.47-0.61-1.27-0.91-2.41-0.91V68.4h3.62v1.22c0.88-0.12,1.43-0.5,1.63-1.15
			c0.21-0.65,0.01-1.53-0.58-2.62l2.37,0.07c0.05,1.28-0.21,2.27-0.8,2.96s-1.46,1.06-2.63,1.1v17.64c0,1.33-0.25,2.43-0.74,3.31
			c-0.49,0.88-1.15,1.58-1.97,2.1c-0.82,0.53-1.75,0.89-2.78,1.1s-2.1,0.32-3.19,0.32c-1.17,0-2.28-0.12-3.35-0.35
			c-1.06-0.23-2.01-0.62-2.84-1.17c-0.83-0.55-1.49-1.28-1.99-2.19s-0.74-2.04-0.74-3.4V70.26z"/>
		<path fill="#006B52" d="M146.95,68.05c2.46,0,4.62,0.52,6.46,1.57c0.88-0.12,1.43-0.5,1.65-1.15c0.22-0.65,0.03-1.53-0.56-2.62
			l2.37,0.07c0.05,1.19-0.17,2.13-0.68,2.82c-0.51,0.69-1.25,1.09-2.24,1.21c1.79,1.14,3.14,2.71,4.05,4.71
			c0.91,2,1.35,4.26,1.32,6.81c-0.03,1.94-0.32,3.71-0.88,5.3c-0.56,1.6-1.36,2.96-2.41,4.09c-1.05,1.13-2.33,2.01-3.85,2.64
			c-1.52,0.63-3.24,0.95-5.16,0.95c-2.02,0-3.81-0.34-5.35-1.01c-1.54-0.68-2.84-1.61-3.89-2.8c-1.05-1.19-1.85-2.61-2.39-4.25
			c-0.54-1.65-0.8-3.44-0.78-5.37c0.03-1.94,0.32-3.7,0.88-5.28s1.36-2.95,2.41-4.1c1.05-1.14,2.34-2.02,3.85-2.64
			C143.28,68.36,145.01,68.05,146.95,68.05z M146.99,68.51c-1.56,0-2.93,0.32-4.11,0.95c-1.18,0.63-2.17,1.51-2.96,2.64
			c-0.79,1.13-1.39,2.49-1.79,4.06c-0.4,1.57-0.6,3.31-0.6,5.2c0,1.91,0.2,3.65,0.6,5.21s1.01,2.89,1.81,3.99
			c0.8,1.1,1.79,1.94,2.96,2.54c1.17,0.59,2.52,0.89,4.05,0.89c1.56,0,2.92-0.32,4.11-0.95s2.17-1.5,2.96-2.62
			c0.79-1.12,1.39-2.47,1.79-4.04c0.4-1.58,0.6-3.31,0.6-5.2c0-1.94-0.2-3.68-0.6-5.23c-0.4-1.55-1.01-2.88-1.81-3.99
			c-0.8-1.11-1.79-1.96-2.96-2.56C149.87,68.81,148.52,68.51,146.99,68.51z M146.99,95.98c0.57,0,1.05,0.17,1.44,0.52
			c0.39,0.35,0.58,0.79,0.58,1.33c0,0.51-0.19,0.95-0.58,1.29c-0.39,0.35-0.87,0.53-1.44,0.53c-0.6,0-1.09-0.17-1.48-0.53
			c-0.39-0.35-0.58-0.78-0.58-1.29c0-0.54,0.2-0.98,0.58-1.33C145.9,96.16,146.4,95.98,146.99,95.98z"/>
		<path fill="#006B52" d="M180.43,93.95l-14.75-21.38c-0.05-0.09-0.11-0.19-0.17-0.28c-0.07-0.09-0.12-0.19-0.18-0.28V90.7
			c0,0.84,0.25,1.55,0.74,2.13c0.49,0.58,1.32,0.88,2.49,0.88v0.28h-6.85v-0.28c1.14,0,1.95-0.29,2.41-0.88
			c0.47-0.58,0.7-1.29,0.7-2.13V71.73c0-0.12,0-0.23,0-0.35c0-0.12-0.01-0.23-0.04-0.35c-0.34-0.63-0.69-1.18-1.07-1.65
			c-0.38-0.47-0.91-0.7-1.62-0.7V68.4h4.01l14.32,20.79v-17.5c0-0.84-0.25-1.55-0.74-2.13c-0.49-0.58-1.32-0.88-2.49-0.88V68.4h6.85
			v0.28c-1.14,0-1.95,0.29-2.41,0.88c-0.47,0.58-0.7,1.29-0.7,2.13v22.29h-0.51V93.95z"/>
		<path fill="#006B52" d="M206.31,82.89c0-0.54-0.19-0.93-0.58-1.19c-0.39-0.26-0.87-0.38-1.44-0.38v-0.28h6.46v0.28
			c-1.09,0-1.63,0.53-1.63,1.58v4.83c-0.83,2.22-2.13,3.89-3.89,5.02s-3.97,1.7-6.62,1.7c-1.97,0-3.77-0.32-5.39-0.96
			c-1.62-0.64-3.01-1.54-4.17-2.71s-2.04-2.57-2.67-4.22s-0.92-3.48-0.9-5.51c0.03-2.03,0.37-3.85,1.03-5.46
			c0.66-1.61,1.62-2.97,2.88-4.09c1.26-1.12,2.79-1.97,4.59-2.55c1.8-0.58,3.85-0.88,6.13-0.88c1.66,0,3.15,0.15,4.48,0.45
			c1.32,0.3,2.39,0.72,3.19,1.26l0.16,4.06h-0.31c-0.83-1.8-1.91-3.13-3.23-3.99c-1.32-0.86-3.04-1.29-5.14-1.29
			c-1.71,0-3.24,0.29-4.59,0.86c-1.35,0.57-2.49,1.4-3.42,2.49s-1.64,2.41-2.12,3.97c-0.48,1.56-0.72,3.33-0.72,5.29
			c0,1.98,0.25,3.76,0.74,5.34c0.49,1.58,1.2,2.91,2.12,4.01c0.92,1.1,2.05,1.94,3.39,2.54c1.34,0.6,2.83,0.89,4.5,0.89
			c1.5,0,2.85-0.23,4.05-0.7c1.19-0.47,2.23-1.13,3.11-2V82.89z"/>
	</g>
</g>
<g>
	<linearGradient id="SVGID_1_" gradientUnits="userSpaceOnUse" x1="200.6766" y1="83.6927" x2="389.8847" y2="-10.9114">
		<stop  offset="0" style="stop-color:#7F1416"/>
		<stop  offset="0.3556" style="stop-color:#DB414B"/>
		<stop  offset="0.6768" style="stop-color:#C4202D"/>
		<stop  offset="1" style="stop-color:#7F1416"/>
	</linearGradient>
	<path fill="url(#SVGID_1_)" d="M228.8,27.81h23.46c3,0,5.75,0.35,8.23,1.06c2.48,0.71,4.6,1.69,6.35,2.94
		c1.75,1.26,3.11,2.78,4.09,4.55c0.98,1.78,1.47,3.74,1.47,5.89c0,3.56-1.24,6.62-3.73,9.2c-2.48,2.58-5.84,4.23-10.07,4.97
		c3,0.43,5.63,1.24,7.87,2.44c2.24,1.2,4.09,2.64,5.57,4.32c1.47,1.69,2.58,3.6,3.31,5.75c0.74,2.15,1.1,4.42,1.1,6.81
		c0,2.82-0.51,5.43-1.52,7.82c-1.01,2.39-2.42,4.43-4.23,6.12c-1.81,1.69-3.99,3.01-6.53,3.96c-2.55,0.95-5.35,1.43-8.42,1.43H228.8
		v-0.74c1.35,0,2.48-0.37,3.4-1.1s1.38-1.81,1.38-3.22V32.87c0-1.41-0.46-2.48-1.38-3.22s-2.06-1.1-3.4-1.1V27.81z M240.2,56.05
		h13.62c1.78,0,3.4-0.32,4.88-0.97c1.47-0.64,2.74-1.56,3.82-2.76c1.07-1.2,1.92-2.61,2.53-4.23c0.61-1.62,0.92-3.39,0.92-5.29
		c0-2.02-0.34-3.89-1.01-5.61c-0.68-1.72-1.61-3.17-2.81-4.37c-1.2-1.2-2.64-2.13-4.32-2.81c-1.69-0.67-3.54-1.01-5.57-1.01h-6.9
		c-1.41,0-2.62,0.32-3.63,0.97c-1.01,0.64-1.52,1.76-1.52,3.36V56.05z M255.38,93.86c2.15,0,4.11-0.43,5.89-1.29
		c1.78-0.86,3.3-2.08,4.55-3.68c1.26-1.59,2.24-3.5,2.94-5.7c0.7-2.21,1.06-4.63,1.06-7.27c0-2.51-0.32-4.91-0.97-7.18
		c-0.64-2.27-1.64-4.25-2.99-5.93c-1.35-1.69-3.02-3.04-5.01-4.05c-1.99-1.01-4.37-1.52-7.13-1.52H240.2v32.29
		c0,1.59,0.51,2.71,1.52,3.36c1.01,0.64,2.22,0.97,3.63,0.97H255.38z"/>
	
		<linearGradient id="SVGID_00000006682765493169128230000002313586422133108877_" gradientUnits="userSpaceOnUse" x1="210.7358" y1="103.811" x2="399.9439" y2="9.207">
		<stop  offset="0" style="stop-color:#7F1416"/>
		<stop  offset="0.3556" style="stop-color:#DB414B"/>
		<stop  offset="0.6768" style="stop-color:#C4202D"/>
		<stop  offset="1" style="stop-color:#7F1416"/>
	</linearGradient>
	<path fill="url(#SVGID_00000006682765493169128230000002313586422133108877_)" d="M322.82,95.06H281.6v-0.74
		c1.23,0,2.33-0.37,3.31-1.1c0.98-0.74,1.47-1.81,1.47-3.22V32.87c0-1.29-0.45-2.31-1.33-3.08c-0.89-0.77-2.04-1.18-3.45-1.24v-0.74
		h41.22l1.38,10.86h-0.74c-0.68-3-2.24-5.37-4.69-7.08c-2.45-1.72-5.98-2.58-10.58-2.58h-9.66c-1.6,0-2.91,0.37-3.96,1.1
		c-1.04,0.74-1.56,1.84-1.56,3.31V60.1h15.64c2.21,0,3.96-0.58,5.24-1.75c1.29-1.16,1.93-3.1,1.93-5.8h0.74v16.28h-0.74
		c0-2.76-0.64-4.71-1.93-5.84s-3.04-1.7-5.24-1.7h-15.64v28.24c0,1.41,0.52,2.48,1.56,3.22c1.04,0.74,2.36,1.1,3.96,1.1h9.66
		c4.6,0,8.13-0.86,10.58-2.58c2.45-1.72,4.02-4.08,4.69-7.08h0.74L322.82,95.06z M304.24,9.77l11.96,13.43h-0.92l-11.13-6.81
		l-10.95,6.81h-0.92L304.24,9.77z M327.14,1.49l5.52,1.66l-17.48,11.87h-1.2L327.14,1.49z"/>
	
		<linearGradient id="SVGID_00000173159540479087831620000011878125252245953431_" gradientUnits="userSpaceOnUse" x1="222.2175" y1="126.7745" x2="411.4256" y2="32.1704">
		<stop  offset="0" style="stop-color:#7F1416"/>
		<stop  offset="0.3556" style="stop-color:#DB414B"/>
		<stop  offset="0.6768" style="stop-color:#C4202D"/>
		<stop  offset="1" style="stop-color:#7F1416"/>
	</linearGradient>
	<path fill="url(#SVGID_00000173159540479087831620000011878125252245953431_)" d="M373.97,94.97L339.1,38.75
		c-0.12-0.25-0.26-0.49-0.41-0.74c-0.15-0.24-0.29-0.49-0.41-0.74v49.13c0,2.21,0.58,4.08,1.75,5.61c1.16,1.53,3.13,2.3,5.89,2.3
		v0.74h-16.19v-0.74c2.7,0,4.6-0.77,5.7-2.3c1.1-1.53,1.66-3.4,1.66-5.61V36.55c0-0.31,0-0.61,0-0.92c0-0.31-0.03-0.61-0.09-0.92
		c-0.8-1.66-1.64-3.1-2.53-4.32c-0.89-1.23-2.16-1.84-3.82-1.84v-0.74h9.48l33.86,54.65v-46c0-2.21-0.58-4.08-1.75-5.61
		c-1.17-1.53-3.13-2.3-5.89-2.3v-0.74h16.19v0.74c-2.7,0-4.6,0.77-5.7,2.3c-1.1,1.53-1.66,3.4-1.66,5.61v58.6h-1.2V94.97z"/>
</g>
<g>
	
		<linearGradient id="SVGID_00000054245445733134314870000014010100377547509124_" gradientUnits="userSpaceOnUse" x1="73.5048" y1="149.2338" x2="568.4867" y2="68.1446">
		<stop  offset="0" style="stop-color:#7F1416"/>
		<stop  offset="0.3556" style="stop-color:#DB414B"/>
		<stop  offset="0.6768" style="stop-color:#C4202D"/>
		<stop  offset="1" style="stop-color:#7F1416"/>
	</linearGradient>
	<path fill="url(#SVGID_00000054245445733134314870000014010100377547509124_)" d="M103.5,114.58c0-1.41-0.46-2.48-1.38-3.22
		s-2.06-1.1-3.4-1.1v-0.74h20.24c10.24,0,18.06,2.82,23.46,8.46c5.4,5.64,8.16,13.83,8.28,24.56c0.06,5.4-0.61,10.23-2.02,14.49
		c-1.41,4.26-3.47,7.85-6.16,10.76c-2.7,2.91-6.03,5.14-9.98,6.67c-3.96,1.53-8.48,2.3-13.57,2.3H98.72v-0.74
		c1.35,0,2.48-0.37,3.4-1.1s1.38-1.81,1.38-3.22V114.58z M110.12,171.25c0,1.59,0.49,2.71,1.47,3.36c0.98,0.64,2.18,0.97,3.59,0.97
		h3.77c8.34,0,14.57-2.56,18.68-7.68c4.11-5.12,6.16-13.39,6.16-24.79c0-5.64-0.51-10.5-1.52-14.58c-1.01-4.08-2.55-7.44-4.6-10.07
		c-2.06-2.64-4.62-4.58-7.68-5.84c-3.07-1.26-6.66-1.89-10.76-1.89h-4.05c-1.41,0-2.61,0.32-3.59,0.97
		c-0.98,0.64-1.47,1.76-1.47,3.36V171.25z"/>
	
		<linearGradient id="SVGID_00000142176660152935899570000000308986301060210848_" gradientUnits="userSpaceOnUse" x1="75.1531" y1="159.2958" x2="570.1351" y2="78.2066">
		<stop  offset="0" style="stop-color:#7F1416"/>
		<stop  offset="0.3556" style="stop-color:#DB414B"/>
		<stop  offset="0.6768" style="stop-color:#C4202D"/>
		<stop  offset="1" style="stop-color:#7F1416"/>
	</linearGradient>
	<path fill="url(#SVGID_00000142176660152935899570000000308986301060210848_)" d="M160.54,114.39c0-1.41-0.48-2.47-1.43-3.17
		c-0.95-0.7-2.07-1.06-3.36-1.06v-0.64h16.19v0.64c-1.35,0-2.48,0.35-3.4,1.06c-0.92,0.71-1.38,1.76-1.38,3.17v44.53
		c0,3.13,0.47,5.74,1.43,7.82c0.95,2.09,2.24,3.77,3.86,5.06c1.62,1.29,3.48,2.21,5.57,2.76c2.08,0.55,4.26,0.83,6.53,0.83
		c2.02,0,4.02-0.23,5.98-0.69c1.96-0.46,3.71-1.29,5.24-2.48c1.53-1.2,2.76-2.81,3.68-4.83c0.92-2.02,1.38-4.6,1.38-7.73
		c0-6.87,0.01-13.77,0.05-20.7c0.03-6.93,0.05-13.83,0.05-20.7c0-2.21-0.55-4.11-1.66-5.7c-1.1-1.59-3.01-2.39-5.7-2.39v-0.64h16.19
		v0.64c-2.76,0-4.72,0.8-5.89,2.39c-1.17,1.6-1.75,3.5-1.75,5.7v41.77c0,3.5-0.58,6.39-1.75,8.69c-1.17,2.3-2.71,4.14-4.65,5.52
		c-1.93,1.38-4.13,2.35-6.58,2.9c-2.45,0.55-4.97,0.83-7.54,0.83c-2.76,0-5.4-0.31-7.91-0.92c-2.52-0.61-4.75-1.64-6.72-3.08
		c-1.96-1.44-3.53-3.36-4.69-5.75c-1.17-2.39-1.75-5.37-1.75-8.92V114.39z"/>
	
		<linearGradient id="SVGID_00000132054064420471574680000005717803462918097558_" gradientUnits="userSpaceOnUse" x1="77.1136" y1="171.2629" x2="572.0955" y2="90.1737">
		<stop  offset="0" style="stop-color:#7F1416"/>
		<stop  offset="0.3556" style="stop-color:#DB414B"/>
		<stop  offset="0.6768" style="stop-color:#C4202D"/>
		<stop  offset="1" style="stop-color:#7F1416"/>
	</linearGradient>
	<path fill="url(#SVGID_00000132054064420471574680000005717803462918097558_)" d="M281.98,109.52l1.38,10.86h-0.74
		c-0.68-3-2.24-5.37-4.69-7.08c-2.45-1.72-5.98-2.58-10.58-2.58h-1.38c-1.6,0-2.91,0.37-3.96,1.1s-1.56,1.84-1.56,3.31v56.58
		c0,1.41,0.47,2.48,1.43,3.22c0.95,0.74,2.07,1.1,3.36,1.1v0.74h-16.19v-0.74c1.35,0,2.48-0.37,3.4-1.1s1.38-1.81,1.38-3.22v-56.58
		c0-1.47-0.52-2.58-1.56-3.31s-2.36-1.1-3.96-1.1h-1.38c-4.6,0-8.13,0.86-10.58,2.58c-2.45,1.72-4.02,4.08-4.69,7.08h-0.74
		l1.38-10.86H281.98z"/>
	
		<linearGradient id="SVGID_00000011033337847589509530000016612421751695519360_" gradientUnits="userSpaceOnUse" x1="78.7908" y1="181.5006" x2="573.7727" y2="100.4114">
		<stop  offset="0" style="stop-color:#7F1416"/>
		<stop  offset="0.3556" style="stop-color:#DB414B"/>
		<stop  offset="0.6768" style="stop-color:#C4202D"/>
		<stop  offset="1" style="stop-color:#7F1416"/>
	</linearGradient>
	<path fill="url(#SVGID_00000011033337847589509530000016612421751695519360_)" d="M291.82,114.58c0-1.47-0.48-2.56-1.43-3.27
		c-0.95-0.7-2.07-1.06-3.36-1.06v-0.74h16.19v0.74c-1.35,0-2.48,0.35-3.4,1.06c-0.92,0.71-1.38,1.79-1.38,3.27v28.15h28.98v-28.15
		c0-1.47-0.48-2.56-1.43-3.27c-0.95-0.7-2.07-1.06-3.36-1.06v-0.74h16.19v0.74c-1.35,0-2.48,0.35-3.4,1.06
		c-0.92,0.71-1.38,1.79-1.38,3.27v57.13c0,1.41,0.46,2.48,1.38,3.22s2.05,1.1,3.4,1.1v0.74h-16.19v-0.74c1.29,0,2.41-0.37,3.36-1.1
		c0.95-0.74,1.43-1.81,1.43-3.22v-27.78h-28.98v27.78c0,1.41,0.46,2.48,1.38,3.22s2.05,1.1,3.4,1.1v0.74h-16.19v-0.74
		c1.29,0,2.41-0.37,3.36-1.1c0.95-0.74,1.43-1.81,1.43-3.22V114.58z"/>
	
		<linearGradient id="SVGID_00000167380799814556185910000015551538018453728136_" gradientUnits="userSpaceOnUse" x1="80.0824" y1="189.3848" x2="575.0643" y2="108.2956">
		<stop  offset="0" style="stop-color:#7F1416"/>
		<stop  offset="0.3556" style="stop-color:#DB414B"/>
		<stop  offset="0.6768" style="stop-color:#C4202D"/>
		<stop  offset="1" style="stop-color:#7F1416"/>
	</linearGradient>
	<path fill="url(#SVGID_00000167380799814556185910000015551538018453728136_)" d="M349.14,114.39c0-1.41-0.48-2.47-1.43-3.17
		c-0.95-0.7-2.07-1.06-3.36-1.06v-0.64h16.19v0.64c-1.35,0-2.48,0.35-3.4,1.06c-0.92,0.71-1.38,1.76-1.38,3.17v44.53
		c0,3.13,0.47,5.74,1.43,7.82c0.95,2.09,2.24,3.77,3.86,5.06c1.62,1.29,3.48,2.21,5.57,2.76c2.08,0.55,4.26,0.83,6.53,0.83
		c2.02,0,4.02-0.23,5.98-0.69c1.96-0.46,3.71-1.29,5.24-2.48c1.53-1.2,2.76-2.81,3.68-4.83c0.92-2.02,1.38-4.6,1.38-7.73
		c0-6.87,0.01-13.77,0.05-20.7c0.03-6.93,0.05-13.83,0.05-20.7c0-2.21-0.55-4.11-1.66-5.7c-1.1-1.59-3.01-2.39-5.7-2.39v-0.64h16.19
		v0.64c-2.76,0-4.72,0.8-5.89,2.39c-1.17,1.6-1.75,3.5-1.75,5.7v41.77c0,3.5-0.58,6.39-1.75,8.69c-1.17,2.3-2.71,4.14-4.65,5.52
		c-1.93,1.38-4.13,2.35-6.58,2.9c-2.45,0.55-4.97,0.83-7.54,0.83c-2.76,0-5.4-0.31-7.91-0.92c-2.52-0.61-4.75-1.64-6.72-3.08
		c-1.96-1.44-3.53-3.36-4.69-5.75c-1.17-2.39-1.75-5.37-1.75-8.92V114.39z"/>
	
		<linearGradient id="SVGID_00000122705877269611642240000016577880307018658484_" gradientUnits="userSpaceOnUse" x1="81.5728" y1="198.4825" x2="576.5547" y2="117.3933">
		<stop  offset="0" style="stop-color:#7F1416"/>
		<stop  offset="0.3556" style="stop-color:#DB414B"/>
		<stop  offset="0.6768" style="stop-color:#C4202D"/>
		<stop  offset="1" style="stop-color:#7F1416"/>
	</linearGradient>
	<path fill="url(#SVGID_00000122705877269611642240000016577880307018658484_)" d="M420.71,176.77v-0.74c1.29,0,2.41-0.34,3.36-1.01
		c0.95-0.67,1.43-1.72,1.43-3.13v-17.76l-18.12-39.65c-0.68-1.59-1.44-2.71-2.3-3.36c-0.86-0.64-1.93-0.97-3.22-0.97v-0.64h15.64
		v0.64c-3.19,0-3.99,1.75-2.39,5.24l16.56,36.34c2.21-5.15,4.43-10.18,6.67-15.09c2.24-4.91,4.46-9.97,6.67-15.18
		c0.43-1.04,0.87-2.22,1.33-3.54c0.46-1.32,0.69-2.54,0.69-3.68c0-1.13-0.31-2.1-0.92-2.9c-0.61-0.8-1.81-1.2-3.59-1.2v-0.64h15.73
		v0.64c-2.7,0-4.88,0.78-6.53,2.35c-1.66,1.56-2.98,3.45-3.96,5.66l-15.64,35.6v18.12c0,1.41,0.47,2.45,1.43,3.13
		c0.95,0.68,2.07,1.01,3.36,1.01v0.74H420.71z"/>
	
		<linearGradient id="SVGID_00000143605284031671489050000002572810135801882557_" gradientUnits="userSpaceOnUse" x1="81.2723" y1="196.6483" x2="576.2542" y2="115.5591">
		<stop  offset="0" style="stop-color:#7F1416"/>
		<stop  offset="0.3556" style="stop-color:#DB414B"/>
		<stop  offset="0.6768" style="stop-color:#C4202D"/>
		<stop  offset="1" style="stop-color:#7F1416"/>
	</linearGradient>
	<path fill="url(#SVGID_00000143605284031671489050000002572810135801882557_)" d="M502.22,176.77h-41.22v-0.74
		c1.23,0,2.33-0.37,3.31-1.1c0.98-0.74,1.47-1.81,1.47-3.22v-57.13c0-1.29-0.45-2.31-1.33-3.08c-0.89-0.77-2.04-1.18-3.45-1.24
		v-0.74h41.22l1.38,10.86h-0.74c-0.68-3-2.24-5.37-4.69-7.08c-2.45-1.72-5.98-2.58-10.58-2.58h-9.66c-1.6,0-2.91,0.37-3.96,1.1
		c-1.04,0.74-1.56,1.84-1.56,3.31v26.68h15.64c2.21,0,3.96-0.58,5.24-1.75c1.29-1.16,1.93-3.1,1.93-5.8h0.74v16.28h-0.74
		c0-2.76-0.64-4.71-1.93-5.84s-3.04-1.7-5.24-1.7h-15.64v28.24c0,1.41,0.52,2.48,1.56,3.22c1.04,0.74,2.36,1.1,3.96,1.1h9.66
		c4.6,0,8.13-0.86,10.58-2.58c2.45-1.72,4.02-4.08,4.69-7.08h0.74L502.22,176.77z M483.64,91.48l11.96,13.43h-0.92l-11.13-6.81
		l-10.95,6.81h-0.92L483.64,91.48z M485.39,81.36l13.16,13.52h-1.2l-17.48-11.87L485.39,81.36z"/>
	
		<linearGradient id="SVGID_00000119839058483401825510000016566199755372002990_" gradientUnits="userSpaceOnUse" x1="84.5243" y1="216.4991" x2="579.5062" y2="135.4099">
		<stop  offset="0" style="stop-color:#7F1416"/>
		<stop  offset="0.3556" style="stop-color:#DB414B"/>
		<stop  offset="0.6768" style="stop-color:#C4202D"/>
		<stop  offset="1" style="stop-color:#7F1416"/>
	</linearGradient>
	<path fill="url(#SVGID_00000119839058483401825510000016566199755372002990_)" d="M553.37,176.68l-34.87-56.21
		c-0.12-0.25-0.26-0.49-0.41-0.74c-0.15-0.24-0.29-0.49-0.41-0.74v49.13c0,2.21,0.58,4.08,1.75,5.61c1.16,1.53,3.13,2.3,5.89,2.3
		v0.74h-16.19v-0.74c2.7,0,4.6-0.77,5.7-2.3c1.1-1.53,1.66-3.4,1.66-5.61v-49.86c0-0.31,0-0.61,0-0.92c0-0.31-0.03-0.61-0.09-0.92
		c-0.8-1.66-1.64-3.1-2.53-4.32c-0.89-1.23-2.16-1.84-3.82-1.84v-0.74h9.48l33.86,54.65v-46c0-2.21-0.58-4.08-1.75-5.61
		c-1.17-1.53-3.13-2.3-5.89-2.3v-0.74h16.19v0.74c-2.7,0-4.6,0.77-5.7,2.3c-1.1,1.53-1.66,3.4-1.66,5.61v58.6h-1.2V176.68z"/>
</g>
<path opacity="0.2" fill="#046C53" d="M229.45,230.59c-0.38,0.27-0.77,0.53-1.15,0.77c-1.16,0.74-2.38,1.39-3.65,1.91
	c-1.08,0.42-1.94,0.68-2.29,0.78c-1.56,0.42-3.16,0.62-4.8,0.54c-1.18-0.05-2.34-0.25-3.48-0.54c-1.38-0.37-2.77-0.9-4.07-1.53
	c-0.45-0.22-1.12-0.55-1.58-0.75c-8.31-3.79-18.74-3.29-26.15,2.22c-0.19,0.15-0.75,0.68-1.25,1.15c0.09-0.02,0.22-0.04,0.31-0.05
	c7.21-1.29,14.76-1.15,21.7,1.33c1.47,0.51,2.92,1.15,4.33,1.81c2.96,1.35,6.23,2.09,9.49,1.89c1.97-0.13,3.93-0.61,5.72-1.43
	c3.66-1.7,6.7-4.76,8.22-8.5c0.05-0.13,0.1-0.25,0.15-0.38c0.01-0.02,0.02-0.05,0.03-0.08c0.03-0.1,0.05-0.19,0.06-0.29
	C230.47,229.84,229.7,230.38,229.45,230.59z"/>
<g>
</g>
<g>
</g>
<g>
</g>
<g>
</g>
<g>
</g>
<g>
</g>
</svg>
