<?xml version="1.0" encoding="utf-8"?>
<!-- Generator: Adobe Illustrator 25.4.1, SVG Export Plug-In . SVG Version: 6.00 Build 0)  -->
<svg version="1.1" id="Layer_1" xmlns="http://www.w3.org/2000/svg" xmlns:xlink="http://www.w3.org/1999/xlink" x="0px" y="0px"
	 viewBox="0 0 137 205" style="enable-background:new 0 0 137 205;" xml:space="preserve">
<style type="text/css">
	.st0{fill:url(#SVGID_1_);}
	.st1{fill:url(#SVGID_00000127742683073112555770000016081024116799698307_);}
</style>
<linearGradient id="SVGID_1_" gradientUnits="userSpaceOnUse" x1="68.5" y1="-94.4364" x2="68.5" y2="213.1279">
	<stop  offset="0" style="stop-color:#DBA73E"/>
	<stop  offset="0.16" style="stop-color:#D89D3A"/>
	<stop  offset="0.3" style="stop-color:#A46B28"/>
	<stop  offset="0.4159" style="stop-color:#F4F3B8"/>
	<stop  offset="0.495" style="stop-color:#D5B767"/>
	<stop  offset="0.6103" style="stop-color:#A76F29"/>
	<stop  offset="0.6219" style="stop-color:#AC7630;stop-opacity:0.9518"/>
	<stop  offset="0.6875" style="stop-color:#C29951;stop-opacity:0.6785"/>
	<stop  offset="0.7493" style="stop-color:#D3B269;stop-opacity:0.4209"/>
	<stop  offset="0.8054" style="stop-color:#DDC278;stop-opacity:0.1875"/>
	<stop  offset="0.8504" style="stop-color:#E0C77D;stop-opacity:0"/>
</linearGradient>
<path class="st0" d="M133.5,108.5c-2.4-7.3-5.9-13.8-10.7-19.3c-4.7-5.6-10.9-10.1-18.3-13.4c-7.4-3.3-16.2-5-26.1-5
	c-12,0-22.9,2.5-32.6,7.4c-7.5,3.8-14.1,8.9-19.7,15.2c0.3-9.2,1.3-18.2,2.8-27c1.9-10.9,5-20.9,9.1-29.5
	c4.1-8.5,9.2-15.4,15.3-20.5c6-5,12.8-7.5,21-7.5c5.3,0,10.1,1.1,14.2,3.2c4.2,2.1,7.9,5.1,11,8.8c3.1,3.7,5.6,8.1,7.2,13
	c1.7,4.9,2.5,10.3,2.5,16v2.5h7l5.6-38.2l-1.3-0.9c-4.8-3.3-10.8-6.3-17.9-9.1C95.5,1.4,87.4,0,78.7,0c-12,0-22.9,3-32.5,9
	c-9.4,5.9-17.5,13.8-24,23.4C15.7,41.9,10.6,52.9,6.9,65C3.2,77.1,1,89.7,0.3,102.4c-0.7,12.7,0.1,25.3,2.4,37.3
	c2.3,12.2,6.3,23.2,12,32.8c5.7,9.7,13.1,17.6,22.2,23.5c9.1,6,20.2,9,32.8,9c10.6,0,20.1-2.1,28.4-6.4c8.2-4.2,15.3-9.8,21.1-16.7
	c5.8-6.8,10.2-14.7,13.3-23.5c3-8.7,4.6-17.8,4.6-27.1C137,123.4,135.8,115.7,133.5,108.5z M72.5,79.8c6.6,0,12.4,1.6,17.2,4.7
	c5,3.1,9.1,7.4,12.3,12.6c3.3,5.3,5.8,11.5,7.4,18.2c1.6,6.9,2.4,14.2,2.4,21.7c0,7.7-0.9,15.2-2.6,22.2c-1.7,7-4.2,13.2-7.4,18.5
	c-3.1,5.2-7.1,9.5-11.7,12.6c-4.5,3.1-9.7,4.7-15.5,4.9c-6.1,0.2-11.7-1.4-16.5-4.6c-5-3.3-9.5-8-13.5-13.8c-4-5.9-7.4-12.9-10-20.9
	c-2.7-8-4.8-16.6-6.4-25.5c0.2-7.4,1.5-14.2,3.8-20.3c2.3-6.1,5.6-11.6,9.6-16.1c4-4.5,8.6-8.1,13.8-10.5
	C60.8,81.1,66.4,79.8,72.5,79.8z"/>
<g>
	
		<linearGradient id="SVGID_00000142884588269847811730000017176573781097692305_" gradientUnits="userSpaceOnUse" x1="61.8591" y1="-7.1633" x2="71.8591" y2="187.8367">
		<stop  offset="0" style="stop-color:#800000"/>
		<stop  offset="0.2894" style="stop-color:#DB404A"/>
		<stop  offset="0.4248" style="stop-color:#C41A2C"/>
		<stop  offset="0.6144" style="stop-color:#800000"/>
		<stop  offset="0.6437" style="stop-color:#800000;stop-opacity:0.9241"/>
		<stop  offset="1" style="stop-color:#800000;stop-opacity:0"/>
	</linearGradient>
	<path style="fill:url(#SVGID_00000142884588269847811730000017176573781097692305_);" d="M74.3,6.5c-8.7,0-16.2,2.7-22.6,8.1
		C45.3,20,40,27.1,35.8,35.9c-4.2,8.8-7.3,18.9-9.3,30.1c-2,11.2-2.9,22.8-2.9,34.6C29.9,92,37.7,85.3,47,80.5
		c9.3-4.8,19.8-7.2,31.4-7.2c9.6,0,18,1.6,25.1,4.8c7.1,3.2,12.9,7.4,17.4,12.7c4.5,5.3,7.9,11.5,10.2,18.4c2.3,7,3.4,14.4,3.4,22.1
		c0,9-1.5,17.8-4.4,26.3c-2.9,8.5-7.2,16-12.8,22.7c-5.6,6.6-12.4,12-20.4,16c-8,4.1-17.1,6.1-27.3,6.1c-12.2,0-22.7-2.9-31.4-8.6
		c-8.8-5.7-15.9-13.3-21.4-22.7c-5.5-9.4-9.4-20-11.7-32c-2.3-11.9-3.1-24.2-2.4-36.7c0.7-12.6,2.8-24.8,6.5-36.7
		c3.6-11.9,8.7-22.6,15-32c6.4-9.4,14.2-16.9,23.3-22.7c9.1-5.7,19.5-8.6,31.1-8.6c8.5,0,16.1,1.4,23,4.1c6.9,2.7,12.7,5.7,17.4,8.9
		l-5,34.5h-2.4c0-6-0.9-11.6-2.7-16.8c-1.8-5.2-4.3-9.8-7.7-13.8c-3.3-4-7.3-7.1-11.8-9.4C85.1,7.6,80,6.5,74.3,6.5z M25.9,130.6
		c1.6,9.2,3.7,17.9,6.5,26.1c2.8,8.2,6.2,15.4,10.3,21.5c4.1,6.1,8.8,10.9,14.2,14.5c5.3,3.5,11.3,5.2,18,5
		c6.3-0.2,11.9-1.9,16.8-5.3c4.9-3.4,9-7.8,12.4-13.4c3.3-5.6,5.9-12,7.7-19.2c1.8-7.2,2.7-14.9,2.7-22.8c0-7.8-0.8-15.2-2.5-22.3
		c-1.7-7.1-4.2-13.4-7.7-19c-3.4-5.6-7.8-10-13.1-13.4c-5.3-3.4-11.5-5-18.6-5c-6.5,0-12.5,1.3-18,4c-5.5,2.7-10.4,6.4-14.6,11.1
		c-4.2,4.8-7.6,10.4-10,16.8C27.4,115.7,26.1,122.8,25.9,130.6z"/>
</g>
</svg>
