<svg width="89" height="89" viewBox="0 0 89 89" fill="none" xmlns="http://www.w3.org/2000/svg">
<path d="M25.7712 49.5991C26.5558 48.7614 27.7614 48.491 28.834 48.9076C30.0751 49.3775 31.4758 50.2019 33.005 51.3499C33.6654 51.8463 34.5031 52.2098 35.4206 52.4757C35.2522 51.5981 35.4428 50.4191 36.2894 49.7764C36.6129 49.5326 37.003 49.3908 37.4551 49.3509C39.7422 49.1514 43.0488 48.2206 46.7632 46.7313C51.6433 44.7811 57.2326 49.3686 57.4675 49.5636C57.5118 49.6035 57.5384 49.6523 57.5739 49.6966L57.9772 48.9963C58.0747 48.8279 58.2387 48.7037 58.4293 48.6506C58.6199 48.5974 58.8194 48.6284 58.9923 48.7259L64.6303 51.9837C64.9849 52.1876 65.1046 52.6397 64.9007 52.9943L59.0056 63.2022C58.908 63.3706 58.744 63.4947 58.5534 63.5479C58.4914 63.5657 58.4249 63.5745 58.3628 63.5745C58.2343 63.5745 58.1058 63.5391 57.9905 63.477L52.3525 60.2192C51.9979 60.0153 51.8782 59.5632 52.0821 59.2086L52.5431 58.4108C50.7258 57.6838 48.5273 58.0473 45.8235 58.4994C43.9176 58.8185 41.821 59.1731 39.5339 59.1731C38.7139 59.1731 37.8673 59.1288 36.9941 59.018C32.1406 58.4152 28.2889 55.7424 25.9086 53.5971C25.3324 53.0653 25 52.3117 25 51.5316C25 50.8092 25.2748 50.1221 25.7712 49.6035V49.5991ZM58.0969 61.8193L63.2518 52.8924L58.8947 50.3792L54.2363 58.4462C54.2363 58.4462 54.2363 58.4595 54.2274 58.4684C54.2274 58.4728 54.2185 58.4772 54.2141 58.4817L53.7398 59.3061L58.0969 61.8193ZM26.9059 52.4935C28.7232 54.1246 32.4731 56.9525 37.1803 57.5376C40.2653 57.9232 43.0887 57.4489 45.5842 57.0278C48.5007 56.5403 51.0538 56.1148 53.301 57.1032L56.9134 50.849C56.776 50.8313 56.6386 50.7914 56.5278 50.6983C56.4746 50.654 51.3906 46.4742 47.3217 48.1009C43.4743 49.639 40.0215 50.6053 37.5836 50.8224C37.5127 50.8269 37.331 50.8446 37.1847 50.9554C36.9055 51.1682 36.7725 51.7355 36.8789 52.232C36.8789 52.2408 36.8833 52.2541 36.8878 52.263C36.9631 52.5378 37.1759 52.7727 37.464 52.9057C40.7528 53.3844 44.1968 53.0209 44.2456 53.0121C44.6578 52.9677 45.0168 53.2603 45.0656 53.6681C45.1099 54.0758 44.8174 54.4393 44.4096 54.4881C44.2279 54.5102 41.8255 54.7629 39.0508 54.5634H39.0463C36.6174 54.3905 33.9003 53.8675 32.1229 52.5334C30.3588 51.2036 29.0778 50.5787 28.311 50.2906C27.7969 50.0911 27.2251 50.2196 26.8528 50.6186C26.6178 50.8668 26.4893 51.1903 26.4893 51.5272C26.4893 51.8995 26.64 52.2453 26.9148 52.4979L26.9059 52.4935Z" fill="#C6A45A"/>
<path d="M48.1774 38.9477C48.1065 38.9477 48.04 38.9388 47.9735 38.9166L44.9994 37.875L42.0252 38.9166C41.8302 38.9831 41.6219 38.9477 41.4579 38.8369C41.2983 38.7172 41.2008 38.5222 41.2008 38.3183L41.2717 35.1668L39.3658 32.6625C39.2461 32.5029 39.2062 32.2902 39.2682 32.0952C39.3303 31.9001 39.4854 31.7494 39.6805 31.6918L42.6945 30.7876L44.4896 28.1991C44.6049 28.0306 44.7955 27.9331 44.9994 27.9331C45.2033 27.9331 45.3939 28.0306 45.5091 28.1991L47.3042 30.7876L50.3183 31.6918C50.5133 31.7494 50.664 31.9001 50.7305 32.0952C50.797 32.2902 50.7527 32.4985 50.633 32.6625L48.727 35.1668L48.798 38.3183C48.8068 38.5222 48.7093 38.7128 48.5409 38.8369C48.4345 38.9078 48.306 38.9521 48.1774 38.9521V38.9477ZM45.0038 36.5941C45.0747 36.5941 45.1412 36.6029 45.2077 36.6251L47.5436 37.4407L47.486 34.9674C47.486 34.83 47.5258 34.6926 47.6145 34.5773L49.1082 32.6137L46.7413 31.9046C46.6039 31.8647 46.4887 31.776 46.4089 31.6608L45.0038 29.6307L43.5987 31.6608C43.5189 31.776 43.4037 31.8647 43.2663 31.9046L40.8994 32.6137L42.3931 34.5773C42.4818 34.6926 42.5216 34.83 42.5216 34.9674L42.464 37.4407L44.7999 36.6251C44.8664 36.6074 44.9285 36.5941 45.0038 36.5941Z" fill="#C6A45A"/>
<path d="M45.0034 45.1621C38.8999 45.1621 33.9268 40.1934 33.9268 34.0855C33.9268 27.9776 38.8955 23 45.0034 23C51.1113 23 56.08 27.9687 56.08 34.0766C56.08 40.1845 51.1113 45.1621 45.0034 45.1621ZM45.0034 24.4804C39.7066 24.4804 35.3983 28.7887 35.3983 34.0855C35.3983 39.3822 39.7066 43.6906 45.0034 43.6906C50.3001 43.6906 54.6084 39.3822 54.6084 34.0855C54.6084 28.7887 50.3001 24.4804 45.0034 24.4804Z" fill="#C6A45A"/>
</svg>
