<svg width="18" height="18" viewBox="0 0 18 18" fill="none" xmlns="http://www.w3.org/2000/svg">
<path d="M3.52129 9.00355C3.52129 5.48876 5.7704 3.03195 8.98243 3.03195C12.1945 3.03195 14.4717 5.48876 14.4717 9.00355C14.4717 9.5574 14.4084 10.1254 14.2749 10.658L16.9738 13.3846C17.6486 12.0781 18 10.587 18 9.01065C18 3.78462 14.2116 0 8.98946 0C6.44514 0 4.13979 0.915976 2.50215 2.57751C0.88559 4.21065 0 6.49704 0 9.00355C0 13.8036 3.87271 17.8367 8.60992 18C8.67317 18 8.72941 18 8.79267 18C8.84889 18 8.90512 18 8.96134 18C9.70636 18 10.5779 17.9716 11.351 17.6947L8.63804 14.9538C5.60875 14.7834 3.52831 12.3763 3.52831 8.98935L3.52129 9.00355Z" fill="white"/>
</svg>
