<?xml version="1.0" encoding="utf-8"?>
<!-- Generator: Adobe Illustrator 29.1.0, SVG Export Plug-In . SVG Version: 9.03 Build 55587)  -->
<svg version="1.0" id="Layer_1" xmlns="http://www.w3.org/2000/svg" xmlns:xlink="http://www.w3.org/1999/xlink" x="0px" y="0px"
	 width="45px" height="15.2px" viewBox="0 0 45 15.2" enable-background="new 0 0 45 15.2" xml:space="preserve">
<path fill="#8bafa6" d="M30.32,2.99c-0.73-0.27-1.45-0.59-2.14-0.93C23.85-0.15,18.58-0.68,14,1c-1.37,0.51-2.7,1.17-3.8,2.14
	c4.28-0.52,8.64-0.27,12.74,1.04c0.89,0.29,1.79,0.63,2.65,1.01c0.54,0.24,1.12,0.52,1.67,0.75c0.44,0.18,0.9,0.35,1.35,0.49
	c3.27,1.07,7.07,1.03,10.13-0.62c1.31-0.71,2.52-1.65,3.31-2.92C38.29,4.51,34.08,4.45,30.32,2.99"/>
<path fill="#8bafa6" d="M43.58,6.6c-0.34,0.24-0.69,0.47-1.04,0.69C41.49,7.95,40.39,8.53,39.26,9c-0.97,0.38-1.75,0.61-2.06,0.7
	c-1.4,0.38-2.85,0.56-4.32,0.48c-1.06-0.05-2.11-0.22-3.13-0.49c-1.24-0.33-2.49-0.81-3.66-1.38c-0.41-0.2-1.01-0.5-1.42-0.67
	c-7.48-3.41-16.87-2.97-23.54,2C0.95,9.78,0.45,10.26,0,10.69c0.08-0.01,0.2-0.04,0.28-0.05c6.49-1.16,13.29-1.03,19.53,1.2
	c1.32,0.46,2.63,1.04,3.89,1.63c2.66,1.21,5.61,1.89,8.54,1.7c1.77-0.11,3.53-0.55,5.15-1.29c3.3-1.53,6.03-4.29,7.4-7.65
	c0.05-0.11,0.09-0.23,0.13-0.35c0.01-0.02,0.02-0.05,0.02-0.08c0.03-0.09,0.04-0.17,0.05-0.26C44.49,5.93,43.8,6.41,43.58,6.6z"/>
<g>
</g>
<g>
</g>
<g>
</g>
<g>
</g>
<g>
</g>
<g>
</g>
</svg>
