<?xml version="1.0" encoding="utf-8"?>
<!-- Generator: Adobe Illustrator 29.1.0, SVG Export Plug-In . SVG Version: 9.03 Build 55587)  -->
<svg version="1.0" id="Layer_1" xmlns="http://www.w3.org/2000/svg" xmlns:xlink="http://www.w3.org/1999/xlink" x="0px" y="0px"
	 width="152.3px" height="31.4px" viewBox="0 0 152.3 31.4" enable-background="new 0 0 152.3 31.4" xml:space="preserve">
<path fill="#ffffff" d="M150.06,1.45c-1.5-1.18-3.35-1.43-4.64-1.43h-6.65v0.49h0.17c0.15,0,0.62,0.15,0.87,0.31
	c0.34,0.22,0.72,0.55,0.72,1.19v9.45c0,0.64-0.39,0.97-0.72,1.19c-0.25,0.16-0.72,0.31-0.87,0.31h-0.17v0.49h6.65
	c1.29,0,3.14-0.25,4.64-1.43c1.48-1.17,2.23-2.95,2.23-5.29C152.29,4.4,151.54,2.62,150.06,1.45 M145.42,11.88h-1.67V1.6h1.67
	c2.69,0,3.65,2.65,3.65,5.14C149.08,9.22,148.12,11.88,145.42,11.88"/>
<path fill="#ffffff" d="M30.07,0.51h0.17c0.14,0,0.62,0.15,0.87,0.31c0.34,0.22,0.72,0.55,0.72,1.19v9.45
	c0,0.64-0.39,0.97-0.72,1.19c-0.25,0.16-0.72,0.31-0.87,0.31h-0.17v0.49H40.9v-2.88h-0.49v0.17c0,0.41-0.25,0.66-0.47,0.82
	c-0.26,0.2-0.62,0.31-0.98,0.31h-3.92V7.42h1.49c0.36,0,0.72,0.11,0.98,0.31c0.22,0.16,0.47,0.41,0.47,0.82v0.17h0.49V4.54h-0.49
	v0.17c0,0.41-0.25,0.66-0.47,0.82c-0.26,0.2-0.62,0.31-0.98,0.31h-1.49V1.6h3.92c0.36,0,0.72,0.11,0.98,0.31
	c0.32,0.24,0.47,0.5,0.47,0.82v0.17h0.49V0.02H30.07V0.51z"/>
<path fill="#ffffff" d="M50.03,0.52h0.17c0.14,0,0.62,0.15,0.87,0.31c0.34,0.22,0.72,0.55,0.72,1.19v9.45
	c0,0.64-0.39,0.97-0.72,1.19c-0.25,0.16-0.72,0.31-0.87,0.31h-0.17v0.49h10.83v-2.88h-0.49v0.17c0,0.41-0.25,0.66-0.47,0.82
	c-0.26,0.2-0.62,0.31-0.98,0.31H55V7.42h1.49c0.36,0,0.72,0.11,0.98,0.31c0.32,0.24,0.47,0.5,0.47,0.82v0.17h0.49V4.54h-0.49v0.17
	c0,0.32-0.14,0.58-0.47,0.82c-0.26,0.2-0.62,0.31-0.98,0.31H55V1.6h3.92c0.36,0,0.72,0.11,0.98,0.31c0.32,0.24,0.47,0.5,0.47,0.82
	v0.17h0.49V0.02H50.03V0.52z"/>
<path fill="#ffffff" d="M82.89,0.51h0.17c0.14,0,0.62,0.15,0.87,0.31c0.34,0.22,0.72,0.55,0.72,1.19v9.45
	c0,0.64-0.39,0.97-0.72,1.19c-0.25,0.16-0.72,0.31-0.87,0.31h-0.17v0.49h10.83v-2.88h-0.49v0.17c0,0.41-0.25,0.66-0.47,0.82
	c-0.26,0.2-0.62,0.31-0.98,0.31h-3.92V7.42h1.49c0.36,0,0.72,0.11,0.98,0.31c0.22,0.17,0.47,0.41,0.47,0.82v0.17h0.49V4.54h-0.49
	v0.17c0,0.41-0.25,0.66-0.47,0.82c-0.26,0.2-0.62,0.31-0.98,0.31h-1.49V1.6h3.92c0.36,0,0.72,0.11,0.98,0.31
	c0.32,0.24,0.47,0.5,0.47,0.82v0.17h0.49V0.02H82.89V0.51z"/>
<path fill="#ffffff" d="M21.32,0.52h0.17c0.14,0,0.62,0.15,0.87,0.31c0.34,0.22,0.72,0.55,0.73,1.19v3.83h-4.53V2.01
	c0-0.64,0.39-0.97,0.72-1.19c0.25-0.16,0.72-0.31,0.87-0.31h0.17V0.02h-6.74v0.49h0.17c0.14,0,0.62,0.15,0.87,0.31
	c0.34,0.22,0.72,0.55,0.72,1.19v9.45c0,0.64-0.39,0.97-0.72,1.19c-0.25,0.16-0.72,0.31-0.87,0.31h-0.17v0.49h6.74v-0.49h-0.17
	c-0.14,0-0.62-0.15-0.87-0.31c-0.34-0.22-0.72-0.55-0.72-1.19V7.42h4.53v4.04c0,0.64-0.39,0.97-0.73,1.19
	c-0.25,0.16-0.72,0.31-0.87,0.31h-0.17v0.49h6.74v-0.49h-0.17c-0.14,0-0.62-0.15-0.87-0.31c-0.34-0.22-0.73-0.55-0.73-1.19V2.01
	c0-0.64,0.39-0.97,0.73-1.19c0.25-0.16,0.72-0.31,0.87-0.31h0.17V0.02h-6.74V0.52z"/>
<path fill="#ffffff" d="M137.41,11.16c0,0.26-0.13,0.45-0.4,0.57l0,0c-0.18,0.09-0.59,0.14-1.05,0.14h-3.55V2.01
	c0-0.64,0.39-0.97,0.72-1.19c0.25-0.16,0.72-0.31,0.87-0.31h0.17V0.02h-6.74v0.49h0.17c0.14,0,0.62,0.15,0.87,0.31
	c0.34,0.22,0.72,0.55,0.72,1.19v9.45c0,0.64-0.39,0.97-0.73,1.19c-0.25,0.16-0.72,0.31-0.87,0.31h-0.17v0.49h10.45v-2.47h-0.49
	V11.16z"/>
<path fill="#ffffff" d="M71.72,8.38l-4.21-8.36h-5.04v0.49h0.17c0.14,0,0.47,0.15,0.69,0.34c0.26,0.23,0.55,0.65,0.59,1.17v9.43
	c-0.04,0.51-0.33,0.94-0.59,1.17c-0.22,0.19-0.55,0.34-0.69,0.34h-0.17v0.49h4.33v-0.49h-0.17c-0.14,0-0.47-0.15-0.69-0.34
	c-0.26-0.23-0.56-0.65-0.59-1.17v-8.4l5.35,10.61l5.18-10.28v8.08c0,0.64-0.39,0.97-0.73,1.19c-0.25,0.16-0.72,0.31-0.87,0.31h-0.17
	v0.49h6.74v-0.49h-0.17c-0.14,0-0.62-0.15-0.87-0.31c-0.34-0.22-0.72-0.55-0.73-1.19V2.01c0-0.64,0.39-0.97,0.73-1.19
	c0.25-0.16,0.72-0.31,0.87-0.31h0.17V0.02h-4.91L71.72,8.38z"/>
<path fill="#ffffff" d="M108.62,12.59l-0.07-0.04c-0.3-0.17-0.65-0.37-1.13-1.16l-1.87-3.85c0.93-0.11,2.36-0.84,2.53-3.1
	c0.03-0.4-0.03-0.77-0.08-1.09L108,3.31c-0.51-3.3-3.24-3.3-4.87-3.29l-7.65,0v0.49h0.17c0.15,0,0.62,0.15,0.87,0.31
	c0.26,0.17,0.57,0.42,0.68,0.85v9.79c0,0.64-0.39,0.97-0.72,1.19c-0.25,0.16-0.72,0.31-0.87,0.31h-0.17v0.49h6.74v-0.49H102
	c-0.14,0-0.62-0.15-0.87-0.31c-0.34-0.22-0.72-0.55-0.72-1.19V8.04h1.58l1.64,3.49l0.01,0.02c0.27,0.45,0.28,0.87,0.02,1.12
	c-0.18,0.18-0.65,0.29-0.84,0.29h-0.17v0.49h7.17v-0.49h-0.17C109.5,12.96,108.99,12.81,108.62,12.59 M104.87,4.03
	c0,1.27-0.91,2.43-1.91,2.43l-2.55,0V1.6h2.55C103.96,1.6,104.87,2.76,104.87,4.03"/>
<path fill="#ffffff" d="M0.01,2.91H0.5V2.73c0-0.32,0.14-0.58,0.47-0.82C1.23,1.71,1.59,1.6,1.95,1.6h2.08v9.87
	c0,0.64-0.39,0.97-0.73,1.18c-0.25,0.16-0.72,0.31-0.87,0.31H2.27v0.49H9v-0.49H8.83c-0.14,0-0.62-0.15-0.87-0.31
	c-0.34-0.22-0.72-0.55-0.72-1.19V1.6h2.08c0.36,0,0.72,0.11,0.98,0.31c0.32,0.24,0.47,0.5,0.47,0.82v0.17h0.49V0.02H0.01V2.91z"/>
<path fill="#ffffff" d="M125.08,12.65L125.08,12.65c-0.47-0.28-0.8-0.69-1-1.25l-4.21-11.38h-5.1v0.49h0.17
	c0.21,0,0.6,0.07,0.79,0.26c0.18,0.18,0.26,0.64,0.07,1.17l-3.5,9.45c-0.16,0.43-0.57,1-0.82,1.22c-0.22,0.19-0.55,0.34-0.69,0.34
	h-0.17v0.49h4.22v-0.49h-0.17c-0.21,0-0.6-0.07-0.8-0.26c-0.18-0.18-0.27-0.65-0.07-1.18l1.29-3.48h4.27l1.29,3.48
	c0.14,0.38-0.06,0.96-0.33,1.18c-0.21,0.17-0.72,0.26-0.89,0.26h-0.17v0.49h6.87v-0.49h-0.17
	C125.81,12.96,125.38,12.83,125.08,12.65 M118.77,6.46h-3.1l1.55-4.19L118.77,6.46z"/>
<path fill="#ffffff" d="M38.49,26.16c0.72-0.72,1.08-1.58,1.08-2.56c0-0.7-0.17-1.36-0.51-1.95c-0.34-0.59-0.83-1.07-1.46-1.42
	c-0.46-0.25-0.98-0.41-1.52-0.48c-0.52-0.07-1.15-0.1-1.87-0.1h-3.05v11.72h1.8V21.33h1.49c0.7,0,1.23,0.04,1.58,0.12
	c0.33,0.07,0.59,0.19,0.8,0.33c0.29,0.2,0.52,0.46,0.69,0.77c0.17,0.31,0.25,0.62,0.25,0.93c0,0.44-0.11,0.81-0.34,1.15
	c-0.23,0.34-0.54,0.6-0.94,0.78c-0.28,0.12-0.58,0.2-0.91,0.24c-0.34,0.04-0.7,0.06-1.08,0.06l-0.36-0.03l-1.04,0l4.4,5.68
	l2.25,0.01l-3.24-4.18C37.26,27.07,37.92,26.73,38.49,26.16"/>
<rect x="41.06" y="19.66" fill="#ffffff" width="1.8" height="11.72"/>
<polygon fill="#ffffff" points="49.61,28.82 45.85,19.65 43.87,19.66 48.87,31.37 50.38,31.37 55.38,19.66 53.43,19.66 "/>
<polygon fill="#ffffff" points="56.05,31.37 64.79,31.37 64.79,29.7 57.85,29.7 57.85,26.29 64.79,26.29 64.79,24.65 57.85,24.65 
	57.85,21.33 64.79,21.33 64.79,19.66 56.05,19.66 "/>
<path fill="#ffffff" d="M74.09,26.16c0.72-0.72,1.08-1.58,1.08-2.56c0-0.7-0.17-1.36-0.51-1.95c-0.34-0.59-0.83-1.07-1.46-1.42
	c-0.46-0.25-0.98-0.41-1.52-0.48c-0.52-0.07-1.15-0.1-1.87-0.1h-3.05v11.72h1.8V21.33h1.49c0.7,0,1.23,0.04,1.58,0.12
	c0.33,0.07,0.59,0.19,0.8,0.33c0.29,0.2,0.52,0.46,0.69,0.77c0.17,0.31,0.25,0.62,0.25,0.93c0,0.44-0.11,0.81-0.34,1.15
	c-0.23,0.34-0.54,0.6-0.94,0.78c-0.28,0.12-0.58,0.2-0.91,0.24c-0.34,0.04-0.7,0.06-1.08,0.06l-0.36-0.03l-1.04,0l4.4,5.68
	l2.25,0.01l-3.24-4.18C72.87,27.07,73.53,26.73,74.09,26.16"/>
<path fill="#ffffff" d="M88.7,20.33c-0.49-0.31-0.99-0.5-1.47-0.57c-0.45-0.07-1.06-0.1-1.8-0.1h-3.32v11.72h1.8v-4.45h1.83
	c0.67,0,1.19-0.04,1.61-0.13c0.58-0.12,1.1-0.34,1.55-0.65c0.95-0.69,1.43-1.64,1.43-2.84c0-0.62-0.15-1.2-0.43-1.72
	C89.6,21.06,89.2,20.64,88.7,20.33 M88.52,23.3c0,0.33-0.07,0.62-0.22,0.89c-0.15,0.27-0.35,0.48-0.63,0.65
	c-0.28,0.18-0.57,0.29-0.86,0.33c-0.32,0.05-0.74,0.07-1.25,0.07h-1.64v-3.91h1.98c0.27,0,0.54,0.02,0.79,0.05
	c0.24,0.03,0.44,0.09,0.63,0.17C88.13,21.87,88.52,22.45,88.52,23.3"/>
<path fill="#ffffff" d="M95.84,19.66l-5.2,11.71l1.96,0l1.63-3.71h4.88l1.66,3.71l1.96,0l-5.2-11.71H95.84z M98.39,25.99H95
	l1.71-3.88L98.39,25.99z"/>
<path fill="#ffffff" d="M110.96,26.16c0.72-0.72,1.08-1.58,1.08-2.56c0-0.7-0.17-1.36-0.51-1.95c-0.34-0.59-0.83-1.07-1.46-1.42
	c-0.46-0.25-0.98-0.41-1.52-0.48c-0.52-0.07-1.15-0.1-1.87-0.1h-3.05v11.72h1.8V21.33h1.49c0.7,0,1.23,0.04,1.58,0.12
	c0.33,0.07,0.59,0.19,0.8,0.33c0.29,0.2,0.52,0.46,0.69,0.77c0.17,0.31,0.25,0.62,0.25,0.93c0,0.44-0.11,0.81-0.34,1.15
	c-0.23,0.34-0.54,0.6-0.94,0.78c-0.28,0.12-0.58,0.2-0.91,0.24c-0.34,0.04-0.7,0.06-1.08,0.06l-0.36-0.03l-1.04,0l4.4,5.68
	l2.25,0.01l-3.24-4.18C109.74,27.07,110.4,26.73,110.96,26.16"/>
<polygon fill="#ffffff" points="122.42,19.66 120.11,19.65 115.33,25.4 115.33,19.66 113.53,19.66 113.53,31.37 115.33,31.37 
	115.33,28.14 116.48,26.77 120.16,31.36 122.41,31.38 117.65,25.37 "/>
<g>
</g>
<g>
</g>
<g>
</g>
<g>
</g>
<g>
</g>
<g>
</g>
</svg>
