<svg width="89" height="89" viewBox="0 0 89 89" fill="none" xmlns="http://www.w3.org/2000/svg">
<path d="M64.3812 28.8734L45.2875 23.0422C45.1 22.9859 44.9 22.9859 44.7125 23.0422L25.6187 28.8734C25.25 28.9859 25 29.3047 25 29.6609V43.9609C25 55.0484 33.1187 64.9172 44.75 67.9609C44.8313 67.9797 44.9125 67.9922 45 67.9922C45.0875 67.9922 45.1688 67.9797 45.25 67.9609C56.8813 64.9172 65 55.0484 65 43.9609V29.6672C65 29.3109 64.75 28.9922 64.3812 28.8797V28.8734ZM63.1813 43.9672C63.1813 54.2359 55.7188 63.3797 45 66.2984C34.2812 63.3797 26.8188 54.2297 26.8188 43.9672V30.2672L45 24.7109L63.1813 30.2672V43.9672Z" fill="#C6A45A"/>
<path d="M44.7133 28.3112L31.0758 32.48C30.707 32.5925 30.457 32.9112 30.457 33.2675V43.9612C30.457 52.2737 36.1758 59.7987 44.6883 62.6862C44.7883 62.7237 44.9008 62.7362 45.007 62.7362C45.1133 62.7362 45.2195 62.7175 45.3258 62.6862C53.8383 59.7987 59.557 52.2737 59.557 43.9612V33.2675C59.557 32.9112 59.307 32.5925 58.9383 32.48L45.3008 28.3112C45.1133 28.255 44.9133 28.255 44.7258 28.3112H44.7133ZM57.7258 33.8675V43.9612C57.7258 51.4737 52.6258 58.2862 45.0008 61.0112C37.3758 58.2862 32.2758 51.4737 32.2758 43.9612V33.8675L45.0008 29.98L57.7258 33.8675Z" fill="#C6A45A"/>
<path d="M39.2812 43.93C38.925 43.605 38.35 43.605 37.9938 43.93C37.6375 44.255 37.6375 44.78 37.9938 45.1113L43.0562 49.755C43.225 49.9113 43.4562 49.9988 43.7 49.9988C43.7187 49.9988 43.7375 49.9988 43.7562 49.9988C44.0125 49.9863 44.2562 49.8675 44.4187 49.68L52.0813 40.6863C52.3875 40.3238 52.3188 39.7988 51.925 39.5175C51.5312 39.2363 50.9563 39.2988 50.65 39.6613L43.6187 47.9113L39.2812 43.9363V43.93Z" fill="#C6A45A"/>
</svg>
