<?xml version="1.0" encoding="utf-8"?>
<!-- Generator: Adobe Illustrator 29.1.0, SVG Export Plug-In . SVG Version: 9.03 Build 55587)  -->
<svg version="1.0" id="Layer_1" xmlns="http://www.w3.org/2000/svg" xmlns:xlink="http://www.w3.org/1999/xlink" x="0px" y="0px"
	 width="235px" height="53.5px" viewBox="0 0 235 53.5" enable-background="new 0 0 235 53.5" xml:space="preserve">
<g>
	<linearGradient id="SVGID_1_" gradientUnits="userSpaceOnUse" x1="-0.2672" y1="32.3266" x2="234.5535" y2="5.2968">
		<stop  offset="0" style="stop-color:#7F1416"/>
		<stop  offset="0.3556" style="stop-color:#DB414B"/>
		<stop  offset="0.6768" style="stop-color:#C4202D"/>
		<stop  offset="1" style="stop-color:#7F1416"/>
	</linearGradient>
	<path fill="url(#SVGID_1_)" d="M0.84,14.55L0.1,20.36h0.84l0.04-0.2c0.31-1.4,1.05-2.52,2.19-3.31c1.15-0.81,2.84-1.21,5.03-1.21
		h0.67c0.72,0,1.33,0.17,1.79,0.49c0.44,0.31,0.66,0.78,0.66,1.42v27.67c0,0.62-0.19,1.07-0.58,1.38c-0.4,0.32-0.91,0.49-1.51,0.49
		H9v0.86h8.42v-0.86h-0.25c-0.58,0-1.07-0.16-1.49-0.49c-0.4-0.31-0.6-0.76-0.6-1.38V17.54c0-0.64,0.22-1.1,0.66-1.42
		c0.46-0.33,1.07-0.49,1.79-0.49h0.67c2.19,0,3.88,0.41,5.03,1.21c1.14,0.8,1.88,1.92,2.19,3.31l0.04,0.2h0.84l-0.74-5.81H0.84z"/>
	
		<linearGradient id="SVGID_00000111902777818599240440000011311825600928874684_" gradientUnits="userSpaceOnUse" x1="-2.2945" y1="14.7147" x2="232.5263" y2="-12.315">
		<stop  offset="0" style="stop-color:#7F1416"/>
		<stop  offset="0.3556" style="stop-color:#DB414B"/>
		<stop  offset="0.6768" style="stop-color:#C4202D"/>
		<stop  offset="1" style="stop-color:#7F1416"/>
	</linearGradient>
	<polygon fill="url(#SVGID_00000111902777818599240440000011311825600928874684_)" points="42.37,9.51 47.74,12.8 48.82,12.8 
		42.41,5.6 36.01,12.8 37.08,12.8 	"/>
	
		<linearGradient id="SVGID_00000148639371983931909450000005517984285535776394_" gradientUnits="userSpaceOnUse" x1="-2.8129" y1="10.2114" x2="232.0079" y2="-16.8183">
		<stop  offset="0" style="stop-color:#7F1416"/>
		<stop  offset="0.3556" style="stop-color:#DB414B"/>
		<stop  offset="0.6768" style="stop-color:#C4202D"/>
		<stop  offset="1" style="stop-color:#7F1416"/>
	</linearGradient>
	<path fill="url(#SVGID_00000148639371983931909450000005517984285535776394_)" d="M45.9,3.53c0.03-0.28,0.1-0.58,0.21-0.91
		C46.22,2.3,46.38,2,46.57,1.74c0.19-0.26,0.42-0.48,0.68-0.66c0.25-0.17,0.53-0.25,0.87-0.25c0.42,0,0.76,0.14,1.06,0.43
		c0.3,0.28,0.44,0.68,0.44,1.21c0,0.57-0.16,1.02-0.47,1.36c-0.36,0.39-0.73,0.78-1.1,1.17c-0.39,0.41-0.71,0.88-0.95,1.4
		c-0.25,0.55-0.23,1.3,0.06,2.23l0.05,0.18h0.79V8.54c0-0.65,0.17-1.14,0.53-1.48c0.39-0.38,0.82-0.73,1.28-1.06
		c0.47-0.33,0.92-0.71,1.33-1.1c0.45-0.44,0.68-1.04,0.68-1.8c0-0.59-0.14-1.09-0.43-1.49c-0.28-0.39-0.64-0.71-1.07-0.95
		c-0.43-0.24-0.9-0.41-1.4-0.5c-0.49-0.09-0.98-0.14-1.44-0.14c-0.77,0-1.5,0.23-2.19,0.7c-0.66,0.45-1.22,0.94-1.65,1.47
		l-0.18,0.22l2.38,1.55L45.9,3.53z"/>
	
		<linearGradient id="SVGID_00000052073898414583466680000006742991519724599999_" gradientUnits="userSpaceOnUse" x1="0.1754" y1="36.1721" x2="234.9962" y2="9.1424">
		<stop  offset="0" style="stop-color:#7F1416"/>
		<stop  offset="0.3556" style="stop-color:#DB414B"/>
		<stop  offset="0.6768" style="stop-color:#C4202D"/>
		<stop  offset="1" style="stop-color:#7F1416"/>
	</linearGradient>
	<path fill="url(#SVGID_00000052073898414583466680000006742991519724599999_)" d="M53.25,19.05c-1.23-1.55-2.78-2.78-4.61-3.65
		c-1.83-0.87-3.94-1.31-6.27-1.31c-2.28,0-4.33,0.41-6.11,1.22c-1.78,0.81-3.31,1.97-4.54,3.47c-1.23,1.49-2.18,3.29-2.84,5.35
		c-0.65,2.05-0.99,4.36-1.02,6.87c-0.03,2.5,0.28,4.85,0.91,6.98c0.64,2.13,1.58,4,2.81,5.55c1.23,1.55,2.78,2.79,4.59,3.67
		c1.81,0.88,3.93,1.33,6.3,1.33c2.25,0,4.29-0.42,6.07-1.24c1.78-0.82,3.31-1.99,4.54-3.46c1.23-1.47,2.18-3.27,2.83-5.35
		c0.65-2.07,0.99-4.38,1.02-6.89c0.03-2.5-0.27-4.85-0.89-6.98C55.42,22.47,54.48,20.6,53.25,19.05z M53.05,31.22
		c0,2.4-0.23,4.63-0.69,6.63c-0.46,1.99-1.14,3.71-2.04,5.12c-0.89,1.4-2.01,2.51-3.34,3.29c-1.32,0.78-2.87,1.18-4.62,1.18
		c-1.72,0-3.25-0.38-4.56-1.11c-1.31-0.74-2.43-1.81-3.33-3.18c-0.91-1.38-1.6-3.08-2.06-5.05c-0.46-1.98-0.69-4.22-0.69-6.65
		c0-2.4,0.23-4.63,0.69-6.63c0.46-1.99,1.14-3.72,2.04-5.14c0.89-1.42,2.01-2.53,3.34-3.32c1.32-0.78,2.87-1.18,4.62-1.18
		c1.72,0,3.25,0.38,4.56,1.12c1.31,0.74,2.43,1.82,3.33,3.2c0.91,1.39,1.6,3.09,2.06,5.05C52.82,26.52,53.05,28.76,53.05,31.22z"/>
	
		<linearGradient id="SVGID_00000028307460599004928410000015724159385224212898_" gradientUnits="userSpaceOnUse" x1="0.5387" y1="39.3284" x2="235.3595" y2="12.2987">
		<stop  offset="0" style="stop-color:#7F1416"/>
		<stop  offset="0.3556" style="stop-color:#DB414B"/>
		<stop  offset="0.6768" style="stop-color:#C4202D"/>
		<stop  offset="1" style="stop-color:#7F1416"/>
	</linearGradient>
	<path fill="url(#SVGID_00000028307460599004928410000015724159385224212898_)" d="M77.08,15.41h0.25c1.26,0,2.16,0.35,2.68,1.03
		c0.53,0.7,0.8,1.58,0.8,2.59v21.62l-16.17-26.1h-5.02v0.86h0.25c0.73,0,1.28,0.26,1.67,0.8c0.42,0.58,0.82,1.27,1.2,2.05
		c0.02,0.13,0.03,0.25,0.03,0.37v24.84c0,1.02-0.26,1.9-0.76,2.6c-0.49,0.68-1.36,1.02-2.59,1.02h-0.25v0.86h8.42v-0.86h-0.25
		c-1.26,0-2.16-0.35-2.68-1.03c-0.53-0.7-0.8-1.57-0.8-2.59V20.38l16.96,27.34v0.22h1.08V19.03c0-1.02,0.26-1.9,0.76-2.6
		c0.49-0.68,1.36-1.02,2.59-1.02h0.25v-0.86h-8.42V15.41z"/>
	
		<linearGradient id="SVGID_00000045577220845667599150000016813068187018149779_" gradientUnits="userSpaceOnUse" x1="0.9645" y1="43.0271" x2="235.7853" y2="15.9973">
		<stop  offset="0" style="stop-color:#7F1416"/>
		<stop  offset="0.3556" style="stop-color:#DB414B"/>
		<stop  offset="0.6768" style="stop-color:#C4202D"/>
		<stop  offset="1" style="stop-color:#7F1416"/>
	</linearGradient>
	<path fill="url(#SVGID_00000045577220845667599150000016813068187018149779_)" d="M108.4,31.65h0.25c0.6,0,1.11,0.15,1.52,0.45
		c0.39,0.28,0.57,0.72,0.57,1.33v10.61c-0.98,1.05-2.14,1.86-3.45,2.43c-1.34,0.58-2.88,0.88-4.58,0.88c-1.87,0-3.58-0.38-5.09-1.12
		s-2.79-1.82-3.83-3.19c-1.04-1.38-1.85-3.09-2.41-5.07c-0.56-1.99-0.84-4.28-0.84-6.79c0-2.49,0.28-4.75,0.82-6.73
		c0.54-1.97,1.35-3.66,2.41-5.02c1.05-1.36,2.35-2.41,3.87-3.12c1.52-0.72,3.27-1.08,5.2-1.08c2.37,0,4.31,0.54,5.79,1.62
		c1.49,1.08,2.71,2.77,3.65,5.02l0.06,0.15h0.79l-0.19-5.6l-0.1-0.07c-0.95-0.71-2.22-1.27-3.78-1.66
		c-1.55-0.39-3.31-0.59-5.24-0.59c-2.66,0-5.07,0.38-7.17,1.14c-2.11,0.76-3.93,1.88-5.4,3.34c-1.47,1.46-2.61,3.26-3.39,5.36
		c-0.77,2.09-1.18,4.48-1.21,7.1c-0.03,2.63,0.32,5.04,1.05,7.17c0.73,2.14,1.78,3.99,3.13,5.51c1.35,1.52,3,2.71,4.9,3.55
		c1.9,0.83,4.03,1.26,6.33,1.26c3.1,0,5.72-0.75,7.79-2.23c2.07-1.48,3.62-3.69,4.59-6.58l0.01-6.29c0-1.21,0.52-1.77,1.64-1.77
		h0.25v-0.86h-7.97V31.65z"/>
	
		<linearGradient id="SVGID_00000008839224576438977930000010052172905623120015_" gradientUnits="userSpaceOnUse" x1="1.7598" y1="49.9364" x2="236.5806" y2="22.9067">
		<stop  offset="0" style="stop-color:#7F1416"/>
		<stop  offset="0.3556" style="stop-color:#DB414B"/>
		<stop  offset="0.6768" style="stop-color:#C4202D"/>
		<stop  offset="1" style="stop-color:#7F1416"/>
	</linearGradient>
	<path fill="url(#SVGID_00000008839224576438977930000010052172905623120015_)" d="M148.74,19.05c-1.23-1.55-2.78-2.78-4.61-3.65
		c-1.83-0.87-3.94-1.31-6.27-1.31c-2.28,0-4.33,0.41-6.11,1.22c-1.78,0.81-3.31,1.97-4.54,3.47c-1.23,1.49-2.18,3.29-2.84,5.35
		c-0.65,2.05-0.99,4.36-1.02,6.87c-0.03,2.5,0.28,4.85,0.91,6.98c0.64,2.13,1.58,4,2.81,5.55c1.23,1.55,2.78,2.79,4.59,3.67
		c1.81,0.88,3.93,1.33,6.3,1.33c1.48,0,2.93-0.19,4.31-0.57c0.35,1.54,0.94,2.81,1.77,3.81c0.9,1.07,1.9,1.64,2.99,1.71l0.17,0.01
		l2.15-4.7l-0.7-0.35l-0.12,0.21c-0.48,0.86-1.53,0.92-2.99,0.13c-0.6-0.33-1.22-0.78-1.83-1.36c2.69-1.12,4.81-3.05,6.31-5.73
		c1.56-2.78,2.36-6.19,2.39-10.11c0.03-2.5-0.27-4.85-0.89-6.98C150.91,22.47,149.97,20.6,148.74,19.05z M148.54,31.22
		c0,2.4-0.23,4.63-0.69,6.63c-0.46,1.99-1.14,3.71-2.04,5.12c-0.89,1.4-2.01,2.51-3.34,3.29c-1.32,0.78-2.87,1.18-4.62,1.18
		c-1.72,0-3.25-0.38-4.56-1.11c-1.31-0.74-2.43-1.81-3.33-3.18c-0.91-1.38-1.6-3.08-2.06-5.05c-0.46-1.98-0.69-4.22-0.69-6.65
		c0-2.4,0.23-4.63,0.69-6.63c0.46-1.99,1.14-3.72,2.04-5.14c0.89-1.42,2.01-2.53,3.34-3.32c1.32-0.78,2.87-1.18,4.62-1.18
		c1.72,0,3.25,0.38,4.56,1.12c1.31,0.74,2.43,1.82,3.33,3.2c0.91,1.39,1.6,3.09,2.06,5.05C148.31,26.52,148.54,28.76,148.54,31.22z"
		/>
	
		<linearGradient id="SVGID_00000057827847087972793980000002153271746413179807_" gradientUnits="userSpaceOnUse" x1="1.7599" y1="49.9376" x2="236.5807" y2="22.9079">
		<stop  offset="0" style="stop-color:#7F1416"/>
		<stop  offset="0.3556" style="stop-color:#DB414B"/>
		<stop  offset="0.6768" style="stop-color:#C4202D"/>
		<stop  offset="1" style="stop-color:#7F1416"/>
	</linearGradient>
	<path fill="url(#SVGID_00000057827847087972793980000002153271746413179807_)" d="M181.33,15.36h0.25v-0.81h-8.42v0.81h0.25
		c1.24,0,2.09,0.35,2.58,1.06c0.51,0.74,0.77,1.63,0.77,2.65c0,3.36-0.01,6.73-0.02,10.12c-0.02,3.39-0.02,6.77-0.02,10.13
		c0,1.49-0.22,2.72-0.65,3.68c-0.43,0.95-1.01,1.71-1.73,2.27c-0.72,0.56-1.55,0.95-2.47,1.17c-1.99,0.47-4.12,0.43-6-0.07
		c-0.98-0.26-1.87-0.7-2.63-1.3c-0.76-0.6-1.37-1.4-1.82-2.38c-0.45-0.98-0.68-2.23-0.68-3.72V17.18c0-0.61,0.19-1.06,0.58-1.35
		c0.4-0.31,0.91-0.47,1.51-0.47h0.25v-0.81h-8.42v0.81h0.25c0.58,0,1.07,0.15,1.49,0.47c0.4,0.3,0.6,0.74,0.6,1.35v21.96
		c0,1.77,0.3,3.28,0.88,4.47c0.58,1.2,1.38,2.18,2.37,2.9c0.98,0.72,2.12,1.24,3.37,1.55c1.25,0.3,2.57,0.46,3.93,0.46
		c1.27,0,2.53-0.14,3.74-0.41c1.23-0.28,2.34-0.77,3.31-1.46c0.97-0.7,1.76-1.63,2.35-2.79s0.88-2.63,0.88-4.37V19.07
		c0-1.02,0.27-1.91,0.81-2.64C179.17,15.72,180.07,15.36,181.33,15.36z"/>
	
		<linearGradient id="SVGID_00000007393093113347627560000010518023007629845924_" gradientUnits="userSpaceOnUse" x1="2.1845" y1="53.6259" x2="237.0053" y2="26.5962">
		<stop  offset="0" style="stop-color:#7F1416"/>
		<stop  offset="0.3556" style="stop-color:#DB414B"/>
		<stop  offset="0.6768" style="stop-color:#C4202D"/>
		<stop  offset="1" style="stop-color:#7F1416"/>
	</linearGradient>
	<path fill="url(#SVGID_00000007393093113347627560000010518023007629845924_)" d="M206.11,46.68c-0.41-0.28-0.76-0.64-1.06-1.08
		c-0.31-0.45-0.58-0.97-0.81-1.55c-0.24-0.59-0.46-1.19-0.67-1.79l-9.9-28.65l-0.24,0.65c-1.83,4.9-3.36,9.05-4.52,12.33
		c-1.19,3.33-2.16,6.08-2.93,8.26c-0.76,2.18-1.36,3.89-1.78,5.13c-0.43,1.26-0.78,2.24-1.08,2.98c-0.61,1.55-1.24,2.64-1.88,3.24
		c-0.62,0.59-1.4,0.88-2.39,0.88h-0.25v0.86h8.42v-0.86h-0.25c-1.07,0-1.77-0.38-2.14-1.16c-0.38-0.81-0.33-2.01,0.13-3.57
		c0.06-0.24,0.13-0.5,0.2-0.78c0.07-0.28,0.17-0.64,0.29-1.08c0.12-0.43,0.28-0.95,0.47-1.57c0.18-0.58,0.41-1.29,0.69-2.14h11.38
		l2.19,6.53c0.18,0.57,0.33,1.1,0.47,1.61c0.12,0.47,0.16,0.88,0.11,1.2c-0.05,0.29-0.2,0.52-0.46,0.69
		c-0.27,0.18-0.75,0.27-1.41,0.27h-0.25v0.86h9.28v-0.86h-0.25C206.96,47.08,206.5,46.95,206.11,46.68z M192.3,20.46l5.11,15.24
		h-10.59l0.28-0.79c0.15-0.42,0.3-0.86,0.45-1.31c0.81-2.28,1.63-4.58,2.47-6.91C190.78,24.6,191.54,22.52,192.3,20.46z"/>
	
		<linearGradient id="SVGID_00000065754893876981875250000017947402057185420961_" gradientUnits="userSpaceOnUse" x1="2.4924" y1="56.3005" x2="237.3131" y2="29.2708">
		<stop  offset="0" style="stop-color:#7F1416"/>
		<stop  offset="0.3556" style="stop-color:#DB414B"/>
		<stop  offset="0.6768" style="stop-color:#C4202D"/>
		<stop  offset="1" style="stop-color:#7F1416"/>
	</linearGradient>
	<path fill="url(#SVGID_00000065754893876981875250000017947402057185420961_)" d="M226.48,14.55v0.86h0.25
		c1.26,0,2.16,0.35,2.68,1.03c0.53,0.7,0.8,1.58,0.8,2.59v21.62l-16.17-26.1h-5.02v0.86h0.25c0.73,0,1.28,0.26,1.67,0.8
		c0.42,0.58,0.82,1.27,1.2,2.05c0.02,0.13,0.03,0.25,0.03,0.37v24.84c0,1.02-0.26,1.9-0.76,2.6c-0.49,0.68-1.36,1.02-2.59,1.02
		h-0.25v0.86h8.42v-0.86h-0.25c-1.26,0-2.16-0.35-2.68-1.03c-0.53-0.7-0.8-1.57-0.8-2.59V20.38l16.96,27.34v0.22h1.08V19.03
		c0-1.02,0.26-1.9,0.76-2.6c0.49-0.68,1.36-1.02,2.59-1.02h0.25v-0.86H226.48z"/>
</g>
<g>
</g>
<g>
</g>
<g>
</g>
<g>
</g>
<g>
</g>
<g>
</g>
</svg>
