<?xml version="1.0" encoding="utf-8"?>
<!-- Generator: Adobe Illustrator 29.1.0, SVG Export Plug-In . SVG Version: 9.03 Build 55587)  -->
<svg version="1.0" id="Layer_1" xmlns="http://www.w3.org/2000/svg" xmlns:xlink="http://www.w3.org/1999/xlink" x="0px" y="0px"
	 width="279px" height="272px" viewBox="0 0 279 272" enable-background="new 0 0 279 272" xml:space="preserve">
<path fill="#006B52" d="M74.64,188.76l0.71,5.31h-0.38c-0.35-1.47-1.16-2.62-2.43-3.46c-1.27-0.84-3.09-1.26-5.47-1.26h-0.71
	c-0.83,0-1.51,0.18-2.05,0.54c-0.54,0.36-0.81,0.9-0.81,1.62v27.68c0,0.69,0.25,1.21,0.74,1.57c0.49,0.36,1.07,0.54,1.74,0.54v0.36
	h-8.38v-0.36c0.7,0,1.29-0.18,1.76-0.54c0.48-0.36,0.71-0.88,0.71-1.57v-27.68c0-0.72-0.27-1.26-0.81-1.62
	c-0.54-0.36-1.22-0.54-2.05-0.54h-0.71c-2.38,0-4.2,0.42-5.47,1.26c-1.27,0.84-2.08,2-2.43,3.46h-0.38l0.71-5.31H74.64z"/>
<path fill="#006B52" d="M78.17,213.69c0,0.84,0.04,1.68,0.12,2.52c0.08,0.84,0.29,1.59,0.62,2.25c0.33,0.66,0.83,1.19,1.5,1.6
	s1.6,0.61,2.81,0.61c2,0,3.78-0.79,5.33-2.38v-14.22c0-0.78-0.26-1.3-0.78-1.55c-0.52-0.25-1.1-0.38-1.74-0.38l-0.1-0.36l6.04-1.44
	v18.18c0,0.78,0.26,1.3,0.78,1.55c0.52,0.26,1.1,0.38,1.74,0.38l0.1,0.36l-5.57,1.44l-0.48-3.15c-2.09,2.1-4.43,3.15-7,3.15
	c-1.71,0-3.13-0.42-4.26-1.26c-1.13-0.84-1.86-2.03-2.21-3.56c-0.1-0.45-0.17-1-0.24-1.64c-0.06-0.65-0.1-1.4-0.1-2.27v-9.45
	c0-0.78-0.26-1.3-0.78-1.55c-0.52-0.25-1.1-0.38-1.74-0.38l-0.1-0.36l6.04-1.44V213.69z"/>
<path fill="#006B52" d="M108.43,216.75c0.25-0.63,0.59-1.48,1-2.56c0.41-1.08,0.84-2.19,1.28-3.33c0.76-1.92,1.32-3.48,1.67-4.68
	c0.35-1.2,0.54-2.14,0.57-2.83c0.03-1.5-0.71-2.25-2.24-2.25v-0.31h6.95v0.31c-0.44,0-0.86,0.13-1.24,0.38s-0.71,0.56-1,0.92
	c-0.32,0.39-0.66,0.92-1.02,1.58c-0.37,0.66-0.71,1.37-1.05,2.11c-0.33,0.75-0.66,1.52-0.98,2.29c-0.32,0.78-0.62,1.52-0.9,2.21
	c-0.38,0.96-0.75,1.91-1.12,2.86c-0.37,0.95-0.71,1.85-1.05,2.7c-0.33,0.86-0.64,1.62-0.9,2.29c-0.27,0.67-0.48,1.22-0.64,1.64
	c-1.87,4.77-3.81,8.29-5.81,10.55c-2,2.26-4.22,3.4-6.66,3.4c-1.21,0-2.43-0.24-3.66-0.72l1.43-2.75c1.36,0.66,2.62,0.99,3.76,0.99
	c1.11,0,2.12-0.26,3.02-0.77s1.73-1.19,2.48-2.02c0.74-0.84,1.43-1.79,2.05-2.86c0.62-1.07,1.18-2.17,1.69-3.31l-8-18.63
	c-0.48-1.08-0.94-1.83-1.38-2.25c-0.44-0.42-0.98-0.63-1.62-0.63v-0.31h7.47v0.31c-0.98,0-1.45,0.3-1.4,0.9
	c0.05,0.6,0.31,1.46,0.79,2.57l5.9,13.72c0.1-0.27,0.2-0.53,0.31-0.79C108.24,217.24,108.34,216.99,108.43,216.75z"/>
<path fill="#006B52" d="M137.42,216.75c-0.95,1.74-2.22,3.09-3.81,4.05c-1.59,0.96-3.33,1.44-5.24,1.44c-1.43,0-2.74-0.27-3.93-0.81
	c-1.19-0.54-2.21-1.3-3.05-2.27c-0.84-0.97-1.48-2.13-1.9-3.47c-0.43-1.33-0.61-2.8-0.55-4.39c0.1-1.71,0.46-3.25,1.09-4.61
	c0.63-1.36,1.46-2.52,2.47-3.46c1.02-0.94,2.16-1.67,3.43-2.16c1.27-0.49,2.59-0.74,3.95-0.74c2.19,0,3.96,0.63,5.31,1.89
	c1.35,1.26,2.1,3,2.26,5.22c0.06,0.45,0.05,0.72-0.05,0.81c-0.1,0.09-0.4,0.13-0.9,0.13h-14.04c-0.06,0.36-0.11,0.73-0.14,1.1
	c-0.03,0.38-0.05,0.76-0.05,1.15c0,1.26,0.16,2.5,0.48,3.71c0.32,1.21,0.79,2.31,1.43,3.29s1.43,1.75,2.38,2.34
	c0.95,0.58,2.06,0.88,3.33,0.88c1.36,0,2.67-0.36,3.93-1.08c1.25-0.72,2.34-1.8,3.26-3.24L137.42,216.75z M134.13,207.03
	c-0.22-4.05-1.81-6.08-4.76-6.08c-0.95,0-1.8,0.18-2.55,0.54c-0.75,0.36-1.4,0.86-1.98,1.49s-1.05,1.36-1.43,2.18
	c-0.38,0.83-0.67,1.7-0.86,2.63h10.71c0.41,0,0.67-0.03,0.76-0.09C134.13,207.65,134.17,207.42,134.13,207.03z M129.38,191.96
	l6.19,6.57h-0.48l-5.76-3.33l-5.66,3.33h-0.48L129.38,191.96z M129.38,224.22c0.7,0,1.28,0.22,1.76,0.67s0.71,1.02,0.71,1.71
	c0,0.66-0.24,1.21-0.71,1.67s-1.06,0.67-1.76,0.67c-0.73,0-1.33-0.22-1.81-0.67c-0.48-0.45-0.71-1.01-0.71-1.67
	c0-0.69,0.24-1.26,0.71-1.71C128.04,224.45,128.64,224.22,129.38,224.22z"/>
<path fill="#006B52" d="M153.55,219.09c-1.43,2.1-3.44,3.15-6.05,3.15c-1.78,0-3.07-0.47-3.88-1.42c-0.81-0.95-1.21-2.44-1.21-4.48
	v-14.9h-3.76l0.1-0.36l1.09-0.22c0.73-0.21,1.4-0.52,2.02-0.95c0.62-0.42,1.18-0.91,1.69-1.48c0.51-0.57,0.93-1.18,1.26-1.85
	c0.33-0.66,0.55-1.32,0.64-1.98h0.38v5.71h7.66l-0.38,1.12h-7.28v14.76c0,1.71,0.25,2.94,0.76,3.69c0.51,0.75,1.32,1.12,2.43,1.12
	c0.86,0,1.66-0.2,2.4-0.58s1.34-0.92,1.78-1.58L153.55,219.09z"/>
<path fill="#006B52" d="M173.35,222.24c-1.56,0-2.9-0.29-4.04-0.85c-1.14-0.57-2.09-1.32-2.86-2.25s-1.33-2-1.69-3.2
	c-0.37-1.2-0.55-2.45-0.55-3.74c0-1.44,0.23-2.87,0.69-4.3s1.14-2.7,2.05-3.83c0.9-1.12,2.03-2.03,3.38-2.72
	c1.35-0.69,2.89-1.04,4.64-1.04c1.02,0,2.01,0.13,2.97,0.38c0.97,0.25,1.91,0.67,2.83,1.24v-6.3h-5.76v-1.58h5.76v-2.03
	c0-0.78-0.26-1.3-0.78-1.55c-0.52-0.25-1.1-0.38-1.74-0.38l-0.1-0.36l6.04-1.44v5.8h5v1.58h-5v22.81c0,0.78,0.26,1.3,0.78,1.55
	c0.52,0.26,1.1,0.38,1.74,0.38l0.09,0.36l-5.57,1.44l-0.38-2.52c-1.14,0.81-2.35,1.43-3.62,1.87S174.68,222.24,173.35,222.24z
	 M180.77,206c-0.06-1.53-0.6-2.76-1.62-3.69c-1.02-0.93-2.33-1.4-3.95-1.4c-1.27,0-2.39,0.29-3.36,0.88
	c-0.97,0.58-1.77,1.35-2.4,2.29c-0.64,0.94-1.12,2.03-1.45,3.26s-0.5,2.47-0.5,3.73s0.16,2.48,0.48,3.67
	c0.32,1.19,0.79,2.24,1.43,3.17c0.63,0.93,1.44,1.68,2.4,2.25c0.97,0.57,2.1,0.86,3.4,0.86c0.98,0,1.95-0.17,2.9-0.52
	c0.95-0.34,1.84-0.83,2.66-1.46V206z"/>
<path fill="#006B52" d="M194.62,219.27c0,0.69,0.24,1.2,0.71,1.53c0.48,0.33,1.06,0.5,1.76,0.5v0.36h-8.38v-0.36
	c0.67,0,1.24-0.16,1.74-0.5c0.49-0.33,0.74-0.84,0.74-1.53v-15.21c0-0.78-0.26-1.3-0.79-1.55c-0.52-0.25-1.1-0.38-1.74-0.38
	l-0.09-0.36l6.04-1.44V219.27z"/>
<path fill="#006B52" d="M217.75,216.75c-0.95,1.71-2.21,3.05-3.76,4.03c-1.56,0.97-3.28,1.46-5.19,1.46h-0.14
	c-1.4,0-2.69-0.27-3.88-0.81c-1.19-0.54-2.2-1.28-3.02-2.23c-0.82-0.95-1.46-2.06-1.9-3.35c-0.44-1.29-0.63-2.67-0.57-4.14
	c0.06-1.59,0.41-3.07,1.02-4.46c0.62-1.38,1.44-2.58,2.45-3.6c1.02-1.02,2.19-1.83,3.52-2.43c1.33-0.6,2.73-0.9,4.19-0.9
	c1.33,0,2.56,0.23,3.69,0.7c1.13,0.47,2.02,1.1,2.69,1.91l-2.28,2.29c-1.4-2.76-3.22-4.14-5.47-4.14c-0.92,0-1.78,0.24-2.57,0.72
	c-0.79,0.48-1.48,1.13-2.05,1.96c-0.57,0.83-1.02,1.79-1.36,2.9c-0.33,1.11-0.5,2.33-0.5,3.65c0,1.11,0.13,2.29,0.4,3.53
	c0.27,1.25,0.71,2.38,1.33,3.42c0.62,1.04,1.41,1.89,2.38,2.57c0.97,0.67,2.13,1.01,3.5,1.01c1.36,0,2.67-0.36,3.93-1.08
	c1.25-0.72,2.34-1.8,3.26-3.24L217.75,216.75z"/>
<path fill="#006B52" d="M238.89,219.27c0,0.69,0.24,1.2,0.71,1.53c0.48,0.33,1.06,0.5,1.76,0.5v0.36h-8.38v-0.36
	c0.67,0,1.24-0.16,1.74-0.5c0.49-0.33,0.74-0.84,0.74-1.53v-10.4c0-0.75-0.04-1.54-0.12-2.36c-0.08-0.82-0.27-1.58-0.57-2.25
	c-0.3-0.67-0.75-1.24-1.36-1.69c-0.6-0.45-1.44-0.67-2.52-0.67c-0.98,0-1.98,0.25-3,0.74c-1.02,0.5-1.95,1.19-2.81,2.09v14.54
	c0,0.69,0.24,1.2,0.71,1.53c0.48,0.33,1.06,0.5,1.76,0.5v0.36h-8.38v-0.36c0.67,0,1.24-0.16,1.74-0.5c0.49-0.33,0.74-0.84,0.74-1.53
	v-27.23c0-0.69-0.26-1.18-0.79-1.48c-0.52-0.3-1.1-0.45-1.74-0.45l-0.09-0.36l6.04-1.44v15.61c1.14-1.14,2.36-2.02,3.67-2.65
	c1.3-0.63,2.59-0.95,3.85-0.95c1.46,0,2.71,0.41,3.76,1.24c1.05,0.83,1.76,1.97,2.14,3.44c0.16,0.57,0.26,1.19,0.31,1.87
	c0.05,0.67,0.07,1.4,0.07,2.18V219.27z"/>
<g>
	<path fill="#006B52" d="M40.76,237.87c1.63,0,3.05,0.29,4.25,0.86s2.2,1.32,3,2.25c0.8,0.93,1.39,2,1.78,3.19
		c0.38,1.2,0.58,2.45,0.58,3.74c0,1.44-0.24,2.87-0.73,4.28c-0.48,1.41-1.2,2.68-2.15,3.8s-2.13,2.04-3.53,2.75
		c-1.4,0.71-3.04,1.06-4.9,1.06c-2.87,0-5.55-0.99-8.05-2.97l-1.65,2.38v-29.61c0-0.78-0.27-1.3-0.83-1.55s-1.16-0.38-1.83-0.38
		l-0.1-0.36l6.35-1.44v14.49c1.17-0.78,2.42-1.39,3.75-1.82C38.04,238.09,39.39,237.87,40.76,237.87z M32.95,254.11
		c0.07,1.53,0.63,2.76,1.7,3.69c1.07,0.93,2.45,1.39,4.15,1.39c1.33,0,2.51-0.29,3.53-0.88c1.02-0.58,1.86-1.35,2.53-2.29
		c0.67-0.94,1.18-2.03,1.53-3.26c0.35-1.23,0.53-2.48,0.53-3.74s-0.17-2.48-0.5-3.67c-0.33-1.18-0.83-2.24-1.5-3.17
		c-0.67-0.93-1.51-1.68-2.53-2.25c-1.02-0.57-2.21-0.86-3.58-0.86c-1.03,0-2.05,0.17-3.05,0.52c-1,0.35-1.93,0.83-2.8,1.46V254.11z"
		/>
	<path fill="#006B52" d="M73.13,254.29c-1,1.74-2.33,3.09-4,4.05c-1.67,0.96-3.5,1.44-5.5,1.44c-1.5,0-2.88-0.27-4.13-0.81
		c-1.25-0.54-2.32-1.3-3.2-2.27c-0.88-0.97-1.55-2.13-2-3.47c-0.45-1.33-0.64-2.8-0.58-4.39c0.1-1.71,0.48-3.25,1.15-4.61
		c0.67-1.36,1.53-2.52,2.6-3.46c1.07-0.94,2.27-1.67,3.6-2.16c1.33-0.49,2.72-0.74,4.15-0.74c2.3,0,4.16,0.63,5.58,1.89
		c1.42,1.26,2.21,3,2.38,5.22c0.07,0.45,0.05,0.72-0.05,0.81s-0.42,0.13-0.95,0.13H57.42c-0.07,0.36-0.12,0.73-0.15,1.1
		c-0.03,0.38-0.05,0.76-0.05,1.15c0,1.26,0.17,2.5,0.5,3.71c0.33,1.21,0.83,2.31,1.5,3.29c0.67,0.97,1.5,1.75,2.5,2.34
		c1,0.58,2.17,0.88,3.5,0.88c1.43,0,2.81-0.36,4.13-1.08c1.32-0.72,2.46-1.8,3.43-3.24L73.13,254.29z M69.67,244.57
		c-0.23-4.05-1.9-6.08-5-6.08c-1,0-1.89,0.18-2.68,0.54c-0.78,0.36-1.48,0.86-2.08,1.49c-0.6,0.63-1.1,1.36-1.5,2.18
		s-0.7,1.7-0.9,2.63h11.26c0.43,0,0.7-0.03,0.8-0.09C69.67,245.19,69.71,244.96,69.67,244.57z M64.67,229.5l6.5,6.57h-0.5
		l-6.05-3.33l-5.95,3.33h-0.5L64.67,229.5z"/>
	<path fill="#006B52" d="M95.89,256.81c0,0.69,0.25,1.2,0.75,1.53c0.5,0.33,1.12,0.5,1.85,0.5v0.36h-8.81v-0.36
		c0.7,0,1.31-0.16,1.83-0.5c0.52-0.33,0.78-0.84,0.78-1.53v-10.4c0-0.75-0.04-1.54-0.12-2.36c-0.08-0.82-0.28-1.58-0.6-2.25
		c-0.32-0.67-0.79-1.24-1.43-1.69c-0.63-0.45-1.52-0.67-2.65-0.67c-1.03,0-2.08,0.25-3.15,0.74c-1.07,0.5-2.05,1.19-2.95,2.09v14.54
		c0,0.69,0.25,1.2,0.75,1.53c0.5,0.33,1.12,0.5,1.85,0.5v0.36h-8.81v-0.36c0.7,0,1.31-0.16,1.83-0.5c0.52-0.33,0.78-0.84,0.78-1.53
		V241.6c0-0.69-0.27-1.18-0.83-1.49c-0.55-0.3-1.16-0.45-1.83-0.45l-0.1-0.36l6.35-1.44v3.6c1.2-1.14,2.48-2.02,3.85-2.65
		c1.37-0.63,2.72-0.95,4.05-0.95c1.53,0,2.85,0.41,3.95,1.24c1.1,0.83,1.85,1.97,2.25,3.44c0.17,0.57,0.27,1.19,0.33,1.87
		c0.05,0.67,0.08,1.4,0.08,2.18V256.81z"/>
	<path fill="#006B52" d="M110.5,253.17l0.35-0.04c0.37,0.87,0.83,1.68,1.38,2.43s1.18,1.39,1.88,1.93c0.7,0.54,1.46,0.96,2.28,1.26
		c0.82,0.3,1.68,0.45,2.58,0.45c1.4,0,2.56-0.36,3.48-1.08c0.92-0.72,1.38-1.69,1.38-2.92c0-0.57-0.12-1.09-0.38-1.58
		c-0.25-0.48-0.67-0.97-1.25-1.46c-0.58-0.49-1.36-1.02-2.33-1.57c-0.97-0.55-2.17-1.18-3.6-1.87c-0.5-0.24-1.08-0.53-1.73-0.88
		s-1.27-0.77-1.85-1.26c-0.58-0.5-1.08-1.05-1.48-1.67c-0.4-0.62-0.6-1.31-0.6-2.09s0.21-1.48,0.63-2.09c0.42-0.61,1-1.15,1.75-1.6
		c0.75-0.45,1.63-0.79,2.65-1.04c1.02-0.24,2.14-0.36,3.38-0.36c1.37,0,2.73,0.14,4.1,0.43c1.37,0.29,2.43,0.65,3.2,1.1l0.1,4.5
		h-0.35c-0.7-1.59-1.72-2.9-3.05-3.92c-1.33-1.02-2.95-1.53-4.85-1.53c-1.37,0-2.46,0.28-3.28,0.83c-0.82,0.56-1.23,1.31-1.23,2.27
		c0,0.48,0.13,0.94,0.38,1.37c0.25,0.44,0.65,0.88,1.2,1.33s1.29,0.93,2.23,1.44c0.93,0.51,2.07,1.08,3.4,1.71
		c0.53,0.24,1.15,0.54,1.85,0.9c0.7,0.36,1.36,0.8,1.98,1.31c0.62,0.51,1.13,1.12,1.55,1.84c0.42,0.72,0.62,1.56,0.62,2.52
		c0,0.9-0.21,1.72-0.62,2.45c-0.42,0.74-0.99,1.37-1.73,1.89c-0.73,0.53-1.61,0.92-2.63,1.19c-1.02,0.27-2.14,0.41-3.38,0.41
		c-0.7,0-1.43-0.04-2.18-0.13s-1.48-0.22-2.18-0.38c-0.7-0.16-1.36-0.35-1.98-0.56c-0.62-0.21-1.14-0.43-1.58-0.67L110.5,253.17z"/>
	<path fill="#006B52" d="M140.47,259.78c-2.4,0-4.41-0.54-6.03-1.62c-1.62-1.08-2.83-2.43-3.63-4.05c-0.8-1.62-1.2-3.38-1.2-5.29
		s0.4-3.67,1.2-5.29c0.8-1.62,2.01-2.97,3.63-4.05c1.62-1.08,3.63-1.62,6.03-1.62c2.43,0,4.45,0.54,6.05,1.62s2.8,2.43,3.6,4.05
		c0.8,1.62,1.19,3.38,1.17,5.29s-0.42,3.67-1.23,5.29c-0.8,1.62-2,2.97-3.6,4.05C144.87,259.24,142.87,259.78,140.47,259.78z
		 M140.47,238.45c-1.6,0-2.93,0.51-3.98,1.53c-1.05,1.02-1.84,2.3-2.38,3.85c-0.53,1.54-0.8,3.21-0.8,5s0.27,3.45,0.8,4.99
		c0.53,1.55,1.33,2.83,2.4,3.85c1.07,1.02,2.38,1.53,3.95,1.53c1.57,0,2.88-0.51,3.95-1.53c1.07-1.02,1.86-2.3,2.38-3.85
		c0.52-1.54,0.78-3.21,0.8-4.99s-0.24-3.45-0.78-5s-1.33-2.83-2.38-3.85C143.39,238.96,142.07,238.45,140.47,238.45z M140.47,229.5
		l6.5,6.57h-0.5l-6.05-3.33l-5.95,3.33h-0.5L140.47,229.5z"/>
	<path fill="#006B52" d="M174.33,256.81c0,0.69,0.25,1.2,0.75,1.53c0.5,0.33,1.12,0.5,1.85,0.5v0.36h-8.8v-0.36
		c0.7,0,1.31-0.16,1.83-0.5c0.52-0.33,0.78-0.84,0.78-1.53v-10.4c0-0.75-0.04-1.54-0.12-2.36c-0.08-0.82-0.28-1.58-0.6-2.25
		c-0.32-0.67-0.79-1.24-1.43-1.69c-0.63-0.45-1.52-0.67-2.65-0.67c-1.03,0-2.08,0.25-3.15,0.74c-1.07,0.5-2.05,1.19-2.95,2.09v14.54
		c0,0.69,0.25,1.2,0.75,1.53c0.5,0.33,1.12,0.5,1.85,0.5v0.36h-8.8v-0.36c0.7,0,1.31-0.16,1.83-0.5c0.52-0.33,0.78-0.84,0.78-1.53
		V241.6c0-0.69-0.28-1.18-0.83-1.49c-0.55-0.3-1.16-0.45-1.83-0.45l-0.1-0.36l6.35-1.44v3.6c1.2-1.14,2.48-2.02,3.85-2.65
		c1.37-0.63,2.72-0.95,4.05-0.95c1.53,0,2.85,0.41,3.95,1.24c1.1,0.83,1.85,1.97,2.25,3.44c0.17,0.57,0.28,1.19,0.33,1.87
		c0.05,0.67,0.08,1.4,0.08,2.18V256.81z"/>
	<path fill="#006B52" d="M181.84,259.56c-0.93,0.42-1.63,0.98-2.08,1.69c-0.45,0.7-0.68,1.46-0.68,2.27c0,0.87,0.23,1.67,0.7,2.38
		s1.13,1.33,1.98,1.84c0.85,0.51,1.86,0.92,3.03,1.21c1.17,0.3,2.43,0.45,3.8,0.45c1.53,0,2.93-0.19,4.2-0.56
		c1.27-0.38,2.35-0.88,3.25-1.53c0.9-0.65,1.59-1.42,2.08-2.32c0.48-0.9,0.73-1.89,0.73-2.97c0-1.53-0.47-2.56-1.4-3.08
		c-0.93-0.53-2.1-0.79-3.5-0.79c-0.8,0-1.64,0.05-2.53,0.16c-0.88,0.11-1.78,0.23-2.68,0.36s-1.78,0.25-2.63,0.36
		s-1.66,0.16-2.43,0.16c-0.77,0-1.4-0.06-1.9-0.18c-0.63-0.18-1.15-0.45-1.55-0.81c-0.4-0.36-0.66-0.77-0.78-1.24
		c-0.12-0.46-0.09-0.97,0.08-1.51s0.48-1.06,0.95-1.57c0.47-0.48,0.97-0.87,1.5-1.17c0.53-0.3,1.05-0.57,1.55-0.81
		c-1.03-0.63-1.84-1.42-2.43-2.36c-0.58-0.95-0.95-1.94-1.1-2.97c-0.15-1.04-0.08-2.07,0.23-3.11c0.3-1.04,0.83-1.97,1.58-2.81
		c0.75-0.84,1.73-1.51,2.95-2.03c1.22-0.51,2.64-0.76,4.28-0.76c1.43,0,2.75,0.21,3.95,0.63l2.05-0.63h6.35l-0.4,1.12h-6.9
		c1.13,0.6,2.03,1.37,2.7,2.29c0.67,0.93,1.09,1.93,1.28,2.99c0.18,1.07,0.13,2.13-0.15,3.2c-0.28,1.07-0.8,2.03-1.55,2.9
		c-0.75,0.87-1.74,1.58-2.98,2.12s-2.68,0.81-4.35,0.81c-1.9,0-3.52-0.34-4.85-1.04c-0.47,0.18-0.96,0.41-1.48,0.7
		c-0.52,0.29-0.93,0.59-1.23,0.92c-0.57,0.6-0.82,1.16-0.75,1.69c0.07,0.52,0.58,0.8,1.55,0.83h0.15c0.5,0,1.13-0.06,1.9-0.18
		c0.77-0.12,1.6-0.25,2.5-0.41c0.9-0.15,1.83-0.29,2.8-0.41c0.97-0.12,1.92-0.18,2.85-0.18c0.97,0,1.88,0.09,2.73,0.27
		c0.85,0.18,1.6,0.5,2.25,0.95s1.17,1.06,1.55,1.82c0.38,0.77,0.58,1.75,0.58,2.95c0,1.53-0.32,2.94-0.95,4.23
		c-0.63,1.29-1.53,2.39-2.68,3.31c-1.15,0.92-2.52,1.63-4.1,2.16c-1.58,0.52-3.31,0.79-5.18,0.79c-1.5,0-2.88-0.17-4.13-0.5
		s-2.33-0.79-3.25-1.39c-0.92-0.6-1.63-1.32-2.13-2.16c-0.5-0.84-0.75-1.75-0.75-2.75c0-1.23,0.42-2.29,1.25-3.17
		c0.83-0.89,2.17-1.72,4-2.5L181.84,259.56z M189.04,238.41c-1.27,0-2.32,0.35-3.15,1.06c-0.83,0.71-1.46,1.59-1.88,2.66
		c-0.42,1.06-0.63,2.22-0.63,3.46s0.21,2.4,0.63,3.46c0.42,1.07,1.05,1.95,1.9,2.66s1.89,1.06,3.13,1.06c1.27,0,2.32-0.35,3.15-1.06
		c0.83-0.71,1.46-1.59,1.88-2.66c0.42-1.06,0.62-2.22,0.62-3.46s-0.21-2.4-0.62-3.46s-1.04-1.95-1.88-2.66
		C191.36,238.76,190.31,238.41,189.04,238.41z"/>
</g>
<g>
	<linearGradient id="SVGID_1_" gradientUnits="userSpaceOnUse" x1="26.5075" y1="163.084" x2="262.9662" y2="120.0148">
		<stop  offset="0" style="stop-color:#7F1416"/>
		<stop  offset="0.3556" style="stop-color:#DB414B"/>
		<stop  offset="0.6768" style="stop-color:#C4202D"/>
		<stop  offset="1" style="stop-color:#7F1416"/>
	</linearGradient>
	<path fill="url(#SVGID_1_)" d="M146.97,147.85c0.07-5.09-0.62-9.8-2.08-14.13c-1.45-4.33-3.62-8.05-6.49-11.18
		c-2.87-3.13-6.44-5.57-10.7-7.32c-4.26-1.75-9.12-2.62-14.58-2.62c-5.32,0-10.06,0.81-14.21,2.44c-4.15,1.63-7.66,3.94-10.54,6.95
		c-2.87,3.01-5.07,6.6-6.6,10.77c-1.53,4.17-2.32,8.81-2.39,13.9c-0.07,5.09,0.64,9.8,2.13,14.13c1.49,4.33,3.67,8.05,6.54,11.18
		c2.87,3.13,6.42,5.58,10.64,7.36c4.22,1.78,9.1,2.67,14.63,2.67c5.25,0,9.95-0.83,14.1-2.48c4.15-1.66,7.66-3.97,10.54-6.95
		s5.07-6.57,6.6-10.77C146.1,157.59,146.9,152.95,146.97,147.85z M137.34,160.78c-1.1,4.14-2.73,7.69-4.9,10.63
		c-2.17,2.95-4.86,5.25-8.09,6.9c-3.23,1.66-6.97,2.48-11.23,2.48c-4.19,0-7.88-0.78-11.07-2.35c-3.19-1.57-5.89-3.79-8.09-6.67
		c-2.2-2.88-3.85-6.38-4.95-10.49c-1.1-4.11-1.65-8.68-1.65-13.71c0-4.97,0.55-9.53,1.65-13.67c1.1-4.14,2.73-7.7,4.9-10.68
		c2.16-2.98,4.86-5.29,8.09-6.95c3.23-1.66,6.97-2.49,11.23-2.49c4.19,0,7.88,0.78,11.07,2.35c3.19,1.57,5.89,3.81,8.09,6.72
		c2.2,2.91,3.85,6.41,4.95,10.49c1.1,4.08,1.65,8.67,1.65,13.76C138.99,152.09,138.44,156.64,137.34,160.78z"/>
	
		<linearGradient id="SVGID_00000054260926651973418440000011881170184789020551_" gradientUnits="userSpaceOnUse" x1="28.3727" y1="173.3496" x2="264.8376" y2="130.2792">
		<stop  offset="0" style="stop-color:#7F1416"/>
		<stop  offset="0.3556" style="stop-color:#DB414B"/>
		<stop  offset="0.6768" style="stop-color:#C4202D"/>
		<stop  offset="1" style="stop-color:#7F1416"/>
	</linearGradient>
	<path fill="url(#SVGID_00000054260926651973418440000011881170184789020551_)" d="M209.04,113.35h-19.95v0.74
		c3.4,0,5.82,0.77,7.25,2.31c1.43,1.54,2.15,3.42,2.15,5.63v46.16l-41.71-54.83h-11.67v0.74c2.04,0,3.61,0.62,4.7,1.85
		c1.09,1.23,2.13,2.68,3.12,4.34c0.07,0.31,0.11,0.62,0.11,0.92c0,0.31,0,0.62,0,0.92v50.03c0,2.22-0.68,4.09-2.04,5.63
		c-1.36,1.54-3.7,2.31-7.03,2.31v0.74h19.95v-0.74c-3.4,0-5.82-0.77-7.25-2.31c-1.44-1.54-2.15-3.42-2.15-5.63v-49.29
		c0.15,0.25,0.32,0.49,0.51,0.74c0.19,0.25,0.36,0.49,0.51,0.74l42.96,56.4v0.09h1.47v-58.8c0-2.22,0.68-4.09,2.04-5.63
		c1.36-1.54,3.7-2.31,7.03-2.31V113.35z"/>
	
		<linearGradient id="SVGID_00000179614671434185650870000000612177101209296810_" gradientUnits="userSpaceOnUse" x1="30.7233" y1="186.2311" x2="267.1808" y2="143.162">
		<stop  offset="0" style="stop-color:#7F1416"/>
		<stop  offset="0.3556" style="stop-color:#DB414B"/>
		<stop  offset="0.6768" style="stop-color:#C4202D"/>
		<stop  offset="1" style="stop-color:#7F1416"/>
	</linearGradient>
	<path fill="url(#SVGID_00000179614671434185650870000000612177101209296810_)" d="M261.12,146.37v0.74c1.58,0,2.92,0.34,4,1.02
		c1.08,0.68,1.62,1.74,1.62,3.16v22.14c-2.45,2.3-5.33,4.06-8.65,5.3c-3.31,1.24-7.06,1.86-11.24,1.86c-4.61,0-8.77-0.79-12.48-2.37
		c-3.71-1.58-6.85-3.83-9.4-6.75c-2.56-2.91-4.52-6.47-5.89-10.65c-1.37-4.19-2.05-8.92-2.05-14.19c0-5.21,0.67-9.89,2-14.05
		c1.33-4.15,3.3-7.68,5.89-10.56c2.59-2.88,5.76-5.09,9.51-6.61c3.75-1.52,8-2.28,12.75-2.28c5.84,0,10.59,1.15,14.27,3.44
		c3.68,2.3,6.66,5.83,8.97,10.61h0.86l-0.43-10.79c-2.23-1.43-5.19-2.54-8.86-3.35c-3.67-0.81-7.82-1.21-12.43-1.21
		c-6.34,0-12.02,0.78-17.03,2.33c-5.01,1.55-9.26,3.81-12.75,6.79c-3.5,2.98-6.16,6.61-8,10.89c-1.84,4.28-2.79,9.12-2.86,14.51
		c-0.07,5.4,0.76,10.28,2.49,14.65c1.73,4.37,4.2,8.11,7.4,11.21c3.2,3.1,7.06,5.51,11.57,7.21c4.5,1.71,9.49,2.56,14.97,2.56
		c7.35,0,13.47-1.5,18.38-4.51c4.9-3.01,8.5-7.46,10.81-13.35V151.3c0-2.79,1.51-4.19,4.54-4.19v-0.74H261.12z"/>
	
		<linearGradient id="SVGID_00000110445384710077695960000017951601314067957635_" gradientUnits="userSpaceOnUse" x1="19.799" y1="126.2516" x2="256.2586" y2="83.1822">
		<stop  offset="0" style="stop-color:#7F1416"/>
		<stop  offset="0.3556" style="stop-color:#DB414B"/>
		<stop  offset="0.6768" style="stop-color:#C4202D"/>
		<stop  offset="1" style="stop-color:#7F1416"/>
	</linearGradient>
	<path fill="url(#SVGID_00000110445384710077695960000017951601314067957635_)" d="M57.69,125.07c-4.72-3.22-9.84-6.11-15.38-8.67
		s-10.66-5.25-15.38-8.07c-4.72-2.81-8.65-5.93-11.8-9.35c-3.15-3.42-4.72-7.49-4.72-12.21c0-5.63,2.25-10.08,6.75-13.34
		c4.5-3.27,10.66-4.9,18.47-4.9c3.92,0,7.56,0.5,10.93,1.48c-0.14-1.11-0.27-2.22-0.39-3.32c-2.2-0.18-4.47-0.27-6.81-0.27
		c-11.93,0-21.37,2.26-28.31,6.78C4.13,77.73,0.66,83.86,0.66,91.6c0,5.33,1.57,9.88,4.72,13.64c3.14,3.77,7.1,7.14,11.88,10.1
		c4.77,2.97,9.9,5.75,15.38,8.37c5.48,2.61,10.6,5.4,15.38,8.37c4.77,2.97,8.73,6.36,11.88,10.18c3.14,3.82,4.72,8.44,4.72,13.87
		c0,6.74-2.52,12.06-7.57,15.98c-5.04,3.92-11.91,5.88-20.58,5.88c-12.74,0-22.58-4.68-29.53-14L0,171.76l0.01,0.2
		c2.49,1.61,5.15,2.94,7.97,4c2.82,1.06,5.69,1.88,8.62,2.49c2.93,0.6,5.83,1.03,8.71,1.28c2.87,0.25,5.5,0.38,7.89,0.38
		c6.4,0,12.12-0.68,17.17-2.04c5.04-1.36,9.33-3.27,12.85-5.73c3.52-2.46,6.24-5.48,8.14-9.05c1.9-3.57,2.85-7.56,2.85-11.99
		c0-5.93-1.57-10.98-4.72-15.15C66.34,131.99,62.41,128.29,57.69,125.07z"/>
	
		<linearGradient id="SVGID_00000031180972641799136220000006592068654241977007_" gradientUnits="userSpaceOnUse" x1="19.2958" y1="123.4772" x2="255.7522" y2="80.4084">
		<stop  offset="0" style="stop-color:#7F1416"/>
		<stop  offset="0.3556" style="stop-color:#DB414B"/>
		<stop  offset="0.6768" style="stop-color:#C4202D"/>
		<stop  offset="1" style="stop-color:#7F1416"/>
	</linearGradient>
	<polygon fill="url(#SVGID_00000031180972641799136220000006592068654241977007_)" points="113.13,103.88 126.01,110.54 
		127.07,110.54 116.2,100.21 110.28,100.21 99.4,110.54 100.47,110.54 	"/>
	
		<linearGradient id="SVGID_00000071544209153923229200000001782449518172351934_" gradientUnits="userSpaceOnUse" x1="17.9545" y1="116.13" x2="254.4183" y2="73.0598">
		<stop  offset="0" style="stop-color:#7F1416"/>
		<stop  offset="0.3556" style="stop-color:#DB414B"/>
		<stop  offset="0.6768" style="stop-color:#C4202D"/>
		<stop  offset="1" style="stop-color:#7F1416"/>
	</linearGradient>
	<polygon fill="url(#SVGID_00000071544209153923229200000001782449518172351934_)" points="138.72,89.7 129.78,89.7 123.9,102.53 
		125.9,102.53 	"/>
</g>
<linearGradient id="SVGID_00000044891399744639504650000005455150794315727525_" gradientUnits="userSpaceOnUse" x1="59.5803" y1="110.9312" x2="280.8343" y2="37.4614">
	<stop  offset="0" style="stop-color:#7F1416"/>
	<stop  offset="0.3556" style="stop-color:#DB414B"/>
	<stop  offset="0.6768" style="stop-color:#C4202D"/>
	<stop  offset="1" style="stop-color:#7F1416"/>
</linearGradient>
<path fill="url(#SVGID_00000044891399744639504650000005455150794315727525_)" d="M227.27,105.12c-0.74-0.93-1.39-1.99-1.96-3.19
	c-0.57-1.2-1.09-2.4-1.59-3.6l-22.77-55.98c-4.31,9.78-7.85,18-10.64,24.66c-2.79,6.66-5.08,12.17-6.88,16.51
	c-1.8,4.35-3.2,7.77-4.18,10.26c-0.99,2.49-1.84,4.49-2.54,5.98c-1.48,3.18-3,5.4-4.55,6.66c-1.55,1.26-3.57,1.89-6.04,1.89v-0.02
	c-1.69,0-3.11-0.37-4.27-1.11c-1.15-0.74-1.73-1.82-1.73-3.24V46.37c0-1.48,0.58-2.58,1.73-3.29c1.15-0.71,2.58-1.07,4.27-1.07
	v-0.74h-20.3v0.74c1.61,0,3.02,0.36,4.21,1.07c1.19,0.71,1.79,1.81,1.79,3.29v28.37h-36.33V46.37c0-1.48,0.58-2.58,1.73-3.29
	c1.15-0.71,2.58-1.07,4.27-1.07v-0.74h-20.3v0.74c1.61,0,3.02,0.36,4.21,1.07c1.19,0.71,1.79,1.81,1.79,3.29v49.34h8.3V75.94h36.33
	v27.99c0,1.42-0.6,2.5-1.79,3.24c-1.19,0.74-2.6,1.11-4.21,1.11v0.74h20.3h18.64v-0.72c-2.75,0-4.61-0.87-5.56-2.61
	c-0.95-1.74-0.87-4.23,0.26-7.47c0.14-0.48,0.3-1,0.48-1.58c0.17-0.57,0.4-1.29,0.69-2.16c0.28-0.87,0.65-1.92,1.11-3.15
	c0.46-1.23,1.04-2.77,1.75-4.63h27.64l5.29,13.41c0.42,1.14,0.79,2.22,1.11,3.24c0.32,1.02,0.4,1.89,0.26,2.61
	c-0.14,0.72-0.58,1.29-1.32,1.71c-0.74,0.42-1.96,0.63-3.65,0.63v0.72h20.65v-0.72c-1.34,0-2.53-0.3-3.55-0.9
	C228.89,106.81,228.01,106.05,227.27,105.12z M184.02,85.54c0.28-0.66,0.6-1.41,0.95-2.25c0.35-0.84,0.71-1.71,1.06-2.61
	c1.91-4.56,3.85-9.16,5.82-13.81c1.98-4.65,3.95-9.25,5.93-13.81l12.81,32.49H184.02z"/>
<linearGradient id="SVGID_00000181072722662734100250000001627085792875555987_" gradientUnits="userSpaceOnUse" x1="66.6167" y1="132.176" x2="287.893" y2="58.6987">
	<stop  offset="0" style="stop-color:#7F1416"/>
	<stop  offset="0.3556" style="stop-color:#DB414B"/>
	<stop  offset="0.6768" style="stop-color:#C4202D"/>
	<stop  offset="1" style="stop-color:#7F1416"/>
</linearGradient>
<path fill="url(#SVGID_00000181072722662734100250000001627085792875555987_)" d="M270.82,41.27h-48.59l-1.35,10.94h0.72
	c0.66-3.03,2.19-5.41,4.59-7.14c2.4-1.73,5.85-2.6,10.35-2.6h1.35c1.56,0,2.85,0.37,3.87,1.11c1.02,0.74,1.53,1.85,1.53,3.34v57.01
	c0,1.42-0.45,2.5-1.35,3.24c-0.9,0.74-2.01,1.11-3.33,1.11v0.74h15.84v-0.74c-1.26,0-2.35-0.37-3.28-1.11
	c-0.93-0.74-1.39-1.82-1.39-3.24V46.93c0-1.48,0.51-2.6,1.53-3.34c1.02-0.74,2.31-1.11,3.87-1.11h1.35c4.5,0,7.95,0.87,10.35,2.6
	c2.4,1.73,3.93,4.11,4.59,7.14h0.72L270.82,41.27z"/>
<linearGradient id="SVGID_00000161591412224336937240000015906495353430345345_" gradientUnits="userSpaceOnUse" x1="45.7722" y1="69.3442" x2="267.0378" y2="-4.1295">
	<stop  offset="0" style="stop-color:#7F1416"/>
	<stop  offset="0.3556" style="stop-color:#DB414B"/>
	<stop  offset="0.6768" style="stop-color:#C4202D"/>
	<stop  offset="1" style="stop-color:#7F1416"/>
</linearGradient>
<path fill="url(#SVGID_00000161591412224336937240000015906495353430345345_)" d="M70.17,89.17c-3.79-4.33-6.68-9.59-8.68-15.78
	c-2-6.19-3-13.24-3-21.16c0-7.82,0.97-14.85,2.92-21.09c1.95-6.24,4.81-11.52,8.6-15.85c3.79-4.33,8.42-7.63,13.89-9.92
	c5.47-2.28,11.68-3.42,18.63-3.42c8.52,0,15.47,1.72,20.84,5.17c5.37,3.45,9.73,8.75,13.1,15.92h1.26l-0.63-16.2
	c-3.26-2.14-7.58-3.82-12.94-5.03C118.79,0.61,112.74,0,106.01,0c-9.26,0-17.55,1.17-24.86,3.49c-7.32,2.33-13.52,5.73-18.63,10.19
	c-5.11,4.47-9,9.92-11.68,16.34c-2.68,6.42-4.08,13.69-4.18,21.79c-0.11,8.1,1.1,15.43,3.63,22c2.53,6.56,6.13,12.17,10.81,16.83
	c4.68,4.66,10.31,8.26,16.89,10.82c6.58,2.56,13.86,3.84,21.86,3.84c0.22,0,0.43-0.02,0.65-0.02c0.35-0.97,0.64-1.91,0.86-2.8
	c-6.43-0.11-12.23-1.23-17.38-3.4C78.57,96.81,73.96,93.5,70.17,89.17z"/>
<linearGradient id="SVGID_00000071551052077739059590000001102084535716531362_" gradientUnits="userSpaceOnUse" x1="53.4895" y1="85.7954" x2="274.7451" y2="12.325">
	<stop  offset="0" style="stop-color:#7F1416"/>
	<stop  offset="0.3556" style="stop-color:#DB414B"/>
	<stop  offset="0.6768" style="stop-color:#C4202D"/>
	<stop  offset="1" style="stop-color:#7F1416"/>
</linearGradient>
<polygon fill="url(#SVGID_00000071551052077739059590000001102084535716531362_)" points="200.96,33.49 213.83,40.15 214.9,40.15 
	204.02,29.82 198.1,29.82 187.23,40.15 188.29,40.15 "/>
<linearGradient id="SVGID_00000099620340699652837970000012177158658141601966_" gradientUnits="userSpaceOnUse" x1="51.6223" y1="80.1976" x2="272.8892" y2="6.7235">
	<stop  offset="0" style="stop-color:#7F1416"/>
	<stop  offset="0.3556" style="stop-color:#DB414B"/>
	<stop  offset="0.6768" style="stop-color:#C4202D"/>
	<stop  offset="1" style="stop-color:#7F1416"/>
</linearGradient>
<polygon fill="url(#SVGID_00000099620340699652837970000012177158658141601966_)" points="226.55,19.31 217.6,19.31 211.72,32.14 
	213.73,32.14 "/>
<polygon fill="#006B52" points="200.08,191.81 195.02,191.81 191.69,198.82 192.83,198.82 "/>
<g>
</g>
<g>
</g>
<g>
</g>
<g>
</g>
<g>
</g>
<g>
</g>
</svg>
