<?xml version="1.0" encoding="utf-8"?>
<!-- Generator: Adobe Illustrator 29.1.0, SVG Export Plug-In . SVG Version: 9.03 Build 55587)  -->
<svg version="1.0" id="Layer_1" xmlns="http://www.w3.org/2000/svg" xmlns:xlink="http://www.w3.org/1999/xlink" x="0px" y="0px"
	 width="787px" height="338px" viewBox="0 0 787 338" enable-background="new 0 0 787 338" xml:space="preserve">
<g>
	<g>
		<path fill="#006B52" d="M141.34,244.31c-1.61,0-3.06,0.27-4.33,0.81c-1.27,0.54-2.35,1.32-3.23,2.34c-0.88,1.02-1.55,2.27-2,3.75
			c-0.45,1.47-0.68,3.13-0.68,4.98c0,1.87,0.23,3.54,0.7,5c0.46,1.46,1.14,2.71,2.02,3.73c0.88,1.02,1.95,1.8,3.21,2.34
			c1.26,0.54,2.68,0.81,4.28,0.81c2.2,0,4.05-0.5,5.56-1.5c1.5-1,2.6-2.45,3.28-4.34l0.48,0.16c-0.78,2.09-2.01,3.67-3.67,4.74
			c-1.66,1.07-3.74,1.6-6.24,1.6c-1.86,0-3.55-0.3-5.08-0.91c-1.53-0.6-2.84-1.46-3.93-2.56c-1.09-1.1-1.93-2.42-2.51-3.98
			c-0.59-1.55-0.87-3.28-0.84-5.2s0.35-3.63,0.97-5.15c0.62-1.52,1.53-2.81,2.72-3.86s2.63-1.86,4.33-2.41
			c1.7-0.55,3.63-0.83,5.78-0.83c1.57,0,2.97,0.14,4.22,0.43c1.25,0.29,2.25,0.68,3.01,1.19l0.15,3.83h-0.29
			c-0.78-1.69-1.8-2.95-3.05-3.76C144.94,244.72,143.32,244.31,141.34,244.31z"/>
		<path fill="#006B52" d="M166.7,266.55c0,0.51,0.18,0.88,0.55,1.12c0.37,0.24,0.82,0.36,1.36,0.36v0.26h-6.46v-0.26
			c0.51,0,0.96-0.12,1.34-0.36c0.38-0.24,0.57-0.62,0.57-1.12v-7.62c0-0.55-0.03-1.13-0.09-1.73c-0.06-0.6-0.21-1.15-0.44-1.65
			s-0.58-0.91-1.05-1.24c-0.46-0.33-1.11-0.49-1.94-0.49c-0.76,0-1.53,0.18-2.31,0.54s-1.5,0.88-2.17,1.53v10.66
			c0,0.51,0.18,0.88,0.55,1.12c0.37,0.24,0.82,0.36,1.36,0.36v0.26h-6.46v-0.26c0.51,0,0.96-0.12,1.34-0.36
			c0.38-0.24,0.57-0.62,0.57-1.12v-19.96c0-0.51-0.2-0.87-0.61-1.09c-0.4-0.22-0.85-0.33-1.34-0.33l-0.07-0.26l4.66-1.06v11.45
			c0.88-0.84,1.82-1.48,2.83-1.95c1-0.46,1.99-0.69,2.97-0.69c1.12,0,2.09,0.3,2.9,0.91c0.81,0.61,1.36,1.45,1.65,2.52
			c0.12,0.42,0.2,0.88,0.24,1.37c0.04,0.49,0.05,1.03,0.05,1.6V266.55z"/>
		<path fill="#006B52" d="M178.26,268.73c-1.76,0-3.24-0.4-4.42-1.19s-2.07-1.78-2.66-2.97c-0.59-1.19-0.88-2.48-0.88-3.88
			c0-1.4,0.29-2.69,0.88-3.88c0.59-1.19,1.47-2.18,2.66-2.97s2.66-1.19,4.42-1.19c1.79,0,3.27,0.4,4.44,1.19
			c1.17,0.79,2.06,1.78,2.64,2.97c0.59,1.19,0.87,2.48,0.86,3.88c-0.01,1.4-0.31,2.69-0.9,3.88c-0.59,1.19-1.47,2.18-2.64,2.97
			C181.49,268.33,180.02,268.73,178.26,268.73z M178.26,253.09c-1.17,0-2.15,0.37-2.92,1.12s-1.35,1.69-1.74,2.82
			c-0.39,1.13-0.59,2.35-0.59,3.66c0,1.31,0.2,2.53,0.59,3.66c0.39,1.13,0.98,2.07,1.76,2.82c0.78,0.75,1.75,1.12,2.9,1.12
			c1.15,0,2.12-0.37,2.9-1.12c0.78-0.75,1.36-1.69,1.74-2.82c0.38-1.13,0.57-2.35,0.59-3.66c0.01-1.31-0.18-2.53-0.57-3.66
			c-0.39-1.13-0.97-2.07-1.74-2.82S179.43,253.09,178.26,253.09z"/>
		<path fill="#006B52" d="M205.71,244.31c-1.61,0-3.06,0.27-4.33,0.81c-1.27,0.54-2.35,1.32-3.23,2.34c-0.88,1.02-1.55,2.27-2,3.75
			c-0.45,1.47-0.68,3.13-0.68,4.98c0,1.87,0.23,3.54,0.7,5c0.46,1.46,1.14,2.71,2.02,3.73c0.88,1.02,1.95,1.8,3.21,2.34
			c1.26,0.54,2.68,0.81,4.28,0.81c2.2,0,4.05-0.5,5.56-1.5c1.5-1,2.6-2.45,3.28-4.34l0.48,0.16c-0.78,2.09-2.01,3.67-3.67,4.74
			c-1.66,1.07-3.74,1.6-6.24,1.6c-1.86,0-3.55-0.3-5.08-0.91c-1.53-0.6-2.84-1.46-3.93-2.56c-1.09-1.1-1.93-2.42-2.51-3.98
			c-0.59-1.55-0.87-3.28-0.84-5.2s0.35-3.63,0.97-5.15c0.62-1.52,1.53-2.81,2.72-3.86s2.63-1.86,4.33-2.41
			c1.7-0.55,3.63-0.83,5.78-0.83c1.57,0,2.97,0.14,4.22,0.43c1.25,0.29,2.25,0.68,3.01,1.19l0.15,3.83h-0.29
			c-0.78-1.69-1.8-2.95-3.05-3.76C209.3,244.72,207.69,244.31,205.71,244.31z"/>
		<path fill="#006B52" d="M218.15,245.92c0-0.51-0.19-0.88-0.57-1.14c-0.38-0.25-0.83-0.38-1.34-0.38v-0.23h6.46v0.23
			c-0.54,0-0.99,0.13-1.36,0.38c-0.37,0.25-0.55,0.63-0.55,1.14v15.97c0,1.12,0.19,2.06,0.57,2.8c0.38,0.75,0.89,1.35,1.54,1.81
			c0.65,0.46,1.39,0.79,2.22,0.99s1.7,0.3,2.61,0.3c0.81,0,1.6-0.08,2.39-0.25c0.78-0.17,1.48-0.46,2.09-0.89
			c0.61-0.43,1.1-1.01,1.47-1.73c0.37-0.73,0.55-1.65,0.55-2.77c0-2.46,0-4.94,0.02-7.42s0.02-4.96,0.02-7.42
			c0-0.79-0.22-1.47-0.66-2.05c-0.44-0.57-1.2-0.86-2.28-0.86v-0.23h6.46v0.23c-1.1,0-1.88,0.29-2.35,0.86
			c-0.47,0.57-0.7,1.25-0.7,2.05v14.98c0,1.25-0.23,2.29-0.7,3.12c-0.46,0.83-1.08,1.49-1.85,1.98s-1.65,0.84-2.62,1.04
			c-0.98,0.2-1.98,0.3-3.01,0.3c-1.1,0-2.15-0.11-3.16-0.33c-1-0.22-1.9-0.59-2.68-1.1c-0.78-0.52-1.41-1.21-1.87-2.06
			c-0.46-0.86-0.7-1.92-0.7-3.2V245.92z"/>
		<path fill="#006B52" d="M251.1,243.85c1.88,0,3.56,0.31,5.03,0.94s2.7,1.5,3.69,2.62s1.74,2.46,2.24,4.01
			c0.5,1.55,0.74,3.24,0.72,5.07s-0.3,3.49-0.83,5c-0.53,1.51-1.28,2.79-2.27,3.86c-0.99,1.07-2.2,1.9-3.63,2.49
			c-1.43,0.59-3.05,0.89-4.86,0.89c-1.91,0-3.59-0.32-5.05-0.96c-1.46-0.64-2.68-1.52-3.67-2.64c-0.99-1.12-1.74-2.46-2.26-4.01
			c-0.51-1.55-0.76-3.24-0.73-5.07c0.02-1.83,0.3-3.49,0.83-4.98s1.29-2.78,2.28-3.86c0.99-1.08,2.2-1.91,3.63-2.49
			C247.63,244.14,249.27,243.85,251.1,243.85z M251.14,244.28c-1.47,0-2.76,0.3-3.87,0.89s-2.04,1.42-2.79,2.49
			c-0.75,1.07-1.31,2.34-1.69,3.83c-0.38,1.49-0.57,3.12-0.57,4.9c0,1.8,0.19,3.44,0.57,4.92c0.38,1.47,0.95,2.73,1.71,3.76
			c0.76,1.03,1.69,1.83,2.79,2.39c1.1,0.56,2.37,0.84,3.82,0.84c1.47,0,2.76-0.3,3.87-0.89c1.11-0.59,2.04-1.42,2.79-2.48
			c0.75-1.06,1.31-2.33,1.69-3.81c0.38-1.48,0.57-3.12,0.57-4.9c0-1.83-0.19-3.47-0.57-4.93c-0.38-1.46-0.95-2.72-1.71-3.76
			c-0.76-1.04-1.69-1.85-2.79-2.41C253.85,244.56,252.58,244.28,251.14,244.28z M251.14,237.71l4.77,4.82h-0.37l-4.44-2.44
			l-4.37,2.44h-0.37L251.14,237.71z M251.14,270.18c0.54,0,0.99,0.17,1.36,0.5s0.55,0.75,0.55,1.25c0,0.48-0.18,0.89-0.55,1.22
			c-0.37,0.33-0.82,0.5-1.36,0.5c-0.56,0-1.03-0.17-1.39-0.5c-0.37-0.33-0.55-0.74-0.55-1.22c0-0.51,0.18-0.92,0.55-1.25
			S250.58,270.18,251.14,270.18z"/>
		<path fill="#006B52" d="M278.07,244.31c-1.61,0-3.06,0.27-4.33,0.81c-1.27,0.54-2.35,1.32-3.23,2.34c-0.88,1.02-1.55,2.27-2,3.75
			c-0.45,1.47-0.68,3.13-0.68,4.98c0,1.87,0.23,3.54,0.7,5c0.46,1.46,1.14,2.71,2.02,3.73c0.88,1.02,1.95,1.8,3.21,2.34
			c1.26,0.54,2.68,0.81,4.28,0.81c2.2,0,4.05-0.5,5.56-1.5c1.5-1,2.6-2.45,3.28-4.34l0.48,0.16c-0.78,2.09-2.01,3.67-3.67,4.74
			c-1.66,1.07-3.74,1.6-6.24,1.6c-1.86,0-3.55-0.3-5.08-0.91c-1.53-0.6-2.84-1.46-3.93-2.56c-1.09-1.1-1.93-2.42-2.51-3.98
			c-0.59-1.55-0.87-3.28-0.84-5.2s0.35-3.63,0.97-5.15c0.62-1.52,1.53-2.81,2.72-3.86s2.63-1.86,4.33-2.41
			c1.7-0.55,3.63-0.83,5.78-0.83c1.57,0,2.97,0.14,4.22,0.43c1.25,0.29,2.25,0.68,3.01,1.19l0.15,3.83h-0.29
			c-0.78-1.69-1.8-2.95-3.05-3.76C281.67,244.72,280.06,244.31,278.07,244.31z"/>
		<path fill="#006B52" d="M303.62,268.73c-0.54,0-1.13-0.03-1.78-0.08c-0.65-0.06-1.3-0.15-1.96-0.28
			c-0.66-0.13-1.31-0.31-1.94-0.54c-0.64-0.23-1.24-0.52-1.8-0.87l-0.18-4.36h0.29c1.49,3.78,4.2,5.68,8.11,5.68
			c1.96,0,3.5-0.43,4.64-1.29c1.14-0.86,1.71-2.02,1.71-3.5c0-1.19-0.36-2.2-1.06-3.04c-0.71-0.84-1.6-1.58-2.68-2.23
			c-1.08-0.65-2.23-1.26-3.47-1.83c-1.24-0.57-2.39-1.18-3.47-1.83c-1.08-0.65-1.97-1.39-2.68-2.21s-1.06-1.82-1.06-2.99
			c0-1.69,0.78-3.04,2.35-4.03c1.56-0.99,3.69-1.49,6.38-1.49c1.42,0,2.73,0.14,3.93,0.43c1.2,0.29,2.18,0.68,2.94,1.19l0.15,3.83
			h-0.29c-1.57-3.32-4.09-4.98-7.56-4.98c-1.76,0-3.15,0.36-4.17,1.07c-1.02,0.71-1.52,1.69-1.52,2.92c0,1.03,0.35,1.93,1.06,2.67
			c0.71,0.75,1.6,1.43,2.66,2.05c1.06,0.62,2.22,1.2,3.47,1.76c1.25,0.56,2.4,1.19,3.47,1.9c1.06,0.71,1.95,1.51,2.66,2.43
			c0.71,0.91,1.06,2.02,1.06,3.32c0,0.97-0.21,1.84-0.64,2.62s-1.04,1.44-1.83,1.98c-0.79,0.54-1.76,0.96-2.9,1.25
			S305.06,268.73,303.62,268.73z"/>
		<path fill="#006B52" d="M326.73,243.85c1.88,0,3.56,0.31,5.03,0.94s2.7,1.5,3.69,2.62s1.74,2.46,2.24,4.01
			c0.5,1.55,0.74,3.24,0.72,5.07s-0.3,3.49-0.83,5c-0.53,1.51-1.28,2.79-2.27,3.86c-0.99,1.07-2.2,1.9-3.63,2.49
			c-1.43,0.59-3.05,0.89-4.86,0.89c-1.91,0-3.59-0.32-5.05-0.96c-1.46-0.64-2.68-1.52-3.67-2.64c-0.99-1.12-1.74-2.46-2.26-4.01
			c-0.51-1.55-0.76-3.24-0.73-5.07c0.02-1.83,0.3-3.49,0.83-4.98s1.29-2.78,2.28-3.86c0.99-1.08,2.2-1.91,3.63-2.49
			C323.27,244.14,324.9,243.85,326.73,243.85z M326.77,244.28c-1.47,0-2.76,0.3-3.87,0.89s-2.04,1.42-2.79,2.49
			c-0.75,1.07-1.31,2.34-1.69,3.83c-0.38,1.49-0.57,3.12-0.57,4.9c0,1.8,0.19,3.44,0.57,4.92c0.38,1.47,0.95,2.73,1.71,3.76
			c0.76,1.03,1.69,1.83,2.79,2.39c1.1,0.56,2.37,0.84,3.82,0.84c1.47,0,2.76-0.3,3.87-0.89c1.11-0.59,2.04-1.42,2.79-2.48
			c0.75-1.06,1.31-2.33,1.69-3.81c0.38-1.48,0.57-3.12,0.57-4.9c0-1.83-0.19-3.47-0.57-4.93c-0.38-1.46-0.95-2.72-1.71-3.76
			c-0.76-1.04-1.69-1.85-2.79-2.41C329.49,244.56,328.21,244.28,326.77,244.28z M326.77,237.71l4.77,4.82h-0.37l-4.44-2.44
			l-4.37,2.44H322L326.77,237.71z M335.91,234.74l2.2,0.59l-6.97,4.26h-0.48L335.91,234.74z"/>
		<path fill="#006B52" d="M358.29,268.27l-13.91-20.16c-0.05-0.09-0.1-0.18-0.17-0.26c-0.06-0.09-0.12-0.18-0.17-0.26v17.62
			c0,0.79,0.23,1.46,0.7,2.01s1.25,0.83,2.35,0.83v0.26h-6.46v-0.26c1.08,0,1.83-0.28,2.28-0.83s0.66-1.22,0.66-2.01v-17.89
			c0-0.11,0-0.22,0-0.33s-0.01-0.22-0.04-0.33c-0.32-0.59-0.66-1.11-1.01-1.55c-0.36-0.44-0.86-0.66-1.52-0.66v-0.26h3.78l13.5,19.6
			v-16.5c0-0.79-0.23-1.46-0.7-2.01c-0.46-0.55-1.25-0.82-2.35-0.82v-0.26h6.46v0.26c-1.08,0-1.83,0.28-2.28,0.82
			c-0.44,0.55-0.66,1.22-0.66,2.01v21.02h-0.48V268.27z"/>
		<path fill="#006B52" d="M382.7,257.84c0-0.51-0.18-0.88-0.55-1.12c-0.37-0.24-0.82-0.36-1.36-0.36v-0.26h6.09v0.26
			c-1.03,0-1.54,0.49-1.54,1.48v4.55c-0.78,2.09-2.01,3.67-3.67,4.74c-1.66,1.07-3.74,1.6-6.24,1.6c-1.86,0-3.55-0.3-5.08-0.91
			c-1.53-0.6-2.84-1.46-3.93-2.56c-1.09-1.1-1.93-2.42-2.51-3.98c-0.59-1.55-0.87-3.28-0.84-5.2s0.35-3.63,0.97-5.15
			c0.62-1.52,1.53-2.81,2.72-3.86s2.63-1.86,4.33-2.41c1.7-0.55,3.63-0.83,5.78-0.83c1.57,0,2.97,0.14,4.22,0.43
			c1.25,0.29,2.25,0.68,3.01,1.19l0.15,3.83h-0.29c-0.78-1.69-1.8-2.95-3.05-3.76c-1.25-0.81-2.86-1.22-4.84-1.22
			c-1.61,0-3.06,0.27-4.33,0.81c-1.27,0.54-2.35,1.32-3.23,2.34c-0.88,1.02-1.55,2.27-2,3.75c-0.45,1.47-0.68,3.13-0.68,4.98
			c0,1.87,0.23,3.55,0.7,5.03c0.46,1.49,1.13,2.74,2,3.78c0.87,1.03,1.93,1.83,3.19,2.39s2.67,0.84,4.24,0.84
			c1.42,0,2.69-0.22,3.82-0.66c1.12-0.44,2.1-1.07,2.94-1.88V257.84z"/>
	</g>
</g>
<g>
	<g>
		<path fill="#006B52" d="M411.04,253.02h-5.67v-1.85h5.67v-17.8c0-0.77-0.28-1.35-0.83-1.75c-0.56-0.4-1.24-0.6-2.06-0.6v-0.4
			h12.23c6.19,0,10.92,1.53,14.18,4.6c3.26,3.07,4.93,7.52,5,13.35c0.04,2.93-0.37,5.56-1.22,7.88c-0.85,2.32-2.09,4.27-3.73,5.85
			c-1.63,1.58-3.64,2.79-6.03,3.62c-2.39,0.83-5.12,1.25-8.2,1.25h-12.23v-0.4c0.82,0,1.5-0.2,2.06-0.6
			c0.56-0.4,0.83-0.98,0.83-1.75V253.02z M415.05,264.17c0,0.87,0.3,1.48,0.89,1.83s1.32,0.53,2.17,0.53h2.28
			c5.04,0,8.8-1.39,11.29-4.18c2.48-2.78,3.73-7.27,3.73-13.47c0-3.07-0.31-5.71-0.92-7.92c-0.61-2.22-1.54-4.04-2.78-5.48
			c-1.24-1.43-2.79-2.49-4.64-3.17c-1.85-0.68-4.02-1.02-6.5-1.02h-2.45c-0.85,0-1.58,0.17-2.17,0.52
			c-0.59,0.35-0.89,0.96-0.89,1.83v17.6h7.45v1.85h-7.45V264.17z"/>
		<path fill="#006B52" d="M468.98,261.22c0.26,0.67,0.54,1.33,0.83,2c0.3,0.67,0.64,1.26,1.03,1.78c0.39,0.52,0.85,0.94,1.39,1.28
			s1.16,0.5,1.86,0.5v0.4h-10.84v-0.4c0.89,0,1.53-0.12,1.92-0.35c0.39-0.23,0.62-0.55,0.7-0.95c0.07-0.4,0.03-0.88-0.14-1.45
			c-0.17-0.57-0.36-1.17-0.58-1.8l-2.78-7.45h-14.51c-0.37,1.03-0.68,1.89-0.92,2.57c-0.24,0.68-0.44,1.27-0.58,1.75
			c-0.15,0.48-0.27,0.88-0.36,1.2c-0.09,0.32-0.18,0.61-0.25,0.88c-0.59,1.8-0.64,3.18-0.14,4.15c0.5,0.97,1.47,1.45,2.92,1.45v0.4
			h-9.79v-0.4c1.3,0,2.35-0.35,3.17-1.05c0.82-0.7,1.61-1.93,2.39-3.7c0.37-0.83,0.81-1.94,1.33-3.33c0.52-1.38,1.25-3.28,2.2-5.7
			c0.95-2.42,2.15-5.47,3.61-9.17c1.46-3.7,3.33-8.27,5.59-13.7L468.98,261.22z M462.08,254.12l-6.73-18.05
			c-1.04,2.53-2.08,5.09-3.11,7.67c-1.04,2.58-2.06,5.14-3.06,7.67c-0.19,0.5-0.37,0.98-0.56,1.45c-0.19,0.47-0.35,0.88-0.5,1.25
			H462.08z"/>
		<path fill="#006B52" d="M498.5,267.82c-0.82,0-1.71-0.04-2.7-0.12c-0.98-0.08-1.97-0.23-2.97-0.43c-1-0.2-1.98-0.47-2.95-0.82
			c-0.96-0.35-1.87-0.79-2.72-1.33l-0.28-6.6h0.45c2.26,5.73,6.36,8.6,12.29,8.6c2.96,0,5.31-0.65,7.03-1.95s2.59-3.07,2.59-5.3
			c0-1.8-0.54-3.33-1.61-4.6s-2.43-2.39-4.06-3.38c-1.63-0.98-3.38-1.91-5.25-2.78c-1.87-0.87-3.62-1.79-5.25-2.78
			c-1.63-0.98-2.98-2.1-4.06-3.35c-1.08-1.25-1.61-2.76-1.61-4.53c0-2.57,1.19-4.6,3.56-6.1s5.6-2.25,9.67-2.25
			c2.15,0,4.13,0.22,5.95,0.65c1.82,0.43,3.3,1.03,4.45,1.8l0.22,5.8h-0.44c-2.37-5.03-6.19-7.55-11.45-7.55
			c-2.67,0-4.77,0.54-6.31,1.62c-1.54,1.08-2.31,2.56-2.31,4.42c0,1.57,0.54,2.92,1.61,4.05c1.07,1.13,2.42,2.17,4.03,3.1
			s3.36,1.82,5.25,2.67c1.89,0.85,3.64,1.81,5.25,2.88c1.61,1.07,2.96,2.29,4.03,3.67c1.07,1.38,1.61,3.06,1.61,5.03
			c0,1.47-0.33,2.79-0.97,3.97c-0.65,1.18-1.58,2.18-2.78,3c-1.21,0.82-2.67,1.45-4.39,1.9C502.65,267.6,500.69,267.82,498.5,267.82
			z"/>
		<path fill="#006B52" d="M544.43,261.22c0.26,0.67,0.54,1.33,0.83,2c0.3,0.67,0.64,1.26,1.03,1.78c0.39,0.52,0.85,0.94,1.39,1.28
			s1.16,0.5,1.86,0.5v0.4H538.7v-0.4c0.89,0,1.53-0.12,1.92-0.35c0.39-0.23,0.62-0.55,0.7-0.95c0.07-0.4,0.03-0.88-0.14-1.45
			c-0.17-0.57-0.36-1.17-0.58-1.8l-2.78-7.45H523.3c-0.37,1.03-0.68,1.89-0.92,2.57c-0.24,0.68-0.44,1.27-0.58,1.75
			c-0.15,0.48-0.27,0.88-0.36,1.2c-0.09,0.32-0.18,0.61-0.25,0.88c-0.59,1.8-0.64,3.18-0.14,4.15c0.5,0.97,1.47,1.45,2.92,1.45v0.4
			h-9.79v-0.4c1.3,0,2.35-0.35,3.17-1.05c0.82-0.7,1.61-1.93,2.39-3.7c0.37-0.83,0.81-1.94,1.33-3.33c0.52-1.38,1.25-3.28,2.2-5.7
			c0.95-2.42,2.15-5.47,3.61-9.17c1.46-3.7,3.33-8.27,5.59-13.7L544.43,261.22z M537.54,254.12l-6.73-18.05
			c-1.04,2.53-2.08,5.09-3.11,7.67c-1.04,2.58-2.06,5.14-3.06,7.67c-0.19,0.5-0.37,0.98-0.56,1.45c-0.19,0.47-0.35,0.88-0.5,1.25
			H537.54z M525.8,222.17c0.7,1.03,1.66,1.87,2.86,2.5c1.2,0.63,2.49,0.95,3.86,0.95c1.3,0,2.47-0.31,3.53-0.92
			c1.06-0.62,2.09-1.46,3.09-2.53l0.5,0.15c-0.52,1.9-1.33,3.34-2.42,4.33c-1.09,0.98-2.7,1.47-4.81,1.47
			c-1.22,0-2.24-0.16-3.06-0.47c-0.82-0.32-1.49-0.75-2.03-1.3c-0.54-0.55-0.95-1.17-1.25-1.88c-0.3-0.7-0.56-1.42-0.78-2.15
			L525.8,222.17z M539.59,214.82l3.34,0.9l-10.56,6.45h-0.72L539.59,214.82z"/>
		<path fill="#006B52" d="M571.01,230.82c-2.45,0-4.63,0.41-6.56,1.22c-1.93,0.82-3.56,2-4.89,3.55c-1.33,1.55-2.35,3.44-3.03,5.68
			c-0.69,2.23-1.03,4.75-1.03,7.55c0,2.83,0.35,5.36,1.06,7.58s1.72,4.1,3.06,5.65c1.33,1.55,2.96,2.73,4.87,3.55
			c1.91,0.82,4.07,1.23,6.48,1.23c3.34,0,6.14-0.76,8.42-2.28c2.28-1.52,3.94-3.71,4.98-6.58l0.72,0.25
			c-1.19,3.17-3.04,5.56-5.56,7.18c-2.52,1.62-5.67,2.42-9.45,2.42c-2.82,0-5.38-0.46-7.7-1.38c-2.32-0.92-4.3-2.21-5.95-3.88
			c-1.65-1.67-2.92-3.67-3.81-6.03c-0.89-2.35-1.32-4.97-1.28-7.88c0.04-2.9,0.53-5.5,1.47-7.8s2.32-4.25,4.11-5.85
			c1.8-1.6,3.98-2.82,6.56-3.65c2.58-0.83,5.5-1.25,8.76-1.25c2.37,0,4.5,0.22,6.39,0.65s3.41,1.03,4.56,1.8l0.22,5.8h-0.44
			c-1.19-2.57-2.72-4.47-4.62-5.7C576.46,231.44,574.01,230.82,571.01,230.82z"/>
		<path fill="#006B52" d="M628.11,230.62l0.83,5.9h-0.45c-0.41-1.63-1.35-2.92-2.83-3.85c-1.48-0.93-3.61-1.4-6.39-1.4h-0.83
			c-0.96,0-1.76,0.2-2.39,0.6c-0.63,0.4-0.95,1-0.95,1.8v30.75c0,0.77,0.29,1.35,0.86,1.75c0.57,0.4,1.25,0.6,2.03,0.6v0.4h-9.79
			v-0.4c0.81,0,1.5-0.2,2.06-0.6c0.56-0.4,0.83-0.98,0.83-1.75v-30.75c0-0.8-0.32-1.4-0.95-1.8c-0.63-0.4-1.43-0.6-2.39-0.6h-0.83
			c-2.78,0-4.91,0.47-6.39,1.4c-1.48,0.93-2.43,2.22-2.83,3.85h-0.45l0.83-5.9H628.11z"/>
		<path fill="#006B52" d="M634.06,233.37c0-0.8-0.29-1.39-0.86-1.78c-0.58-0.38-1.25-0.57-2.03-0.57v-0.4h9.79v0.4
			c-0.82,0-1.5,0.19-2.06,0.57c-0.56,0.38-0.83,0.98-0.83,1.78v15.3h17.51v-15.3c0-0.8-0.29-1.39-0.86-1.78
			c-0.58-0.38-1.25-0.57-2.03-0.57v-0.4h9.79v0.4c-0.82,0-1.5,0.19-2.06,0.57c-0.56,0.38-0.83,0.98-0.83,1.78v31.05
			c0,0.77,0.28,1.35,0.83,1.75c0.56,0.4,1.24,0.6,2.06,0.6v0.4h-9.79v-0.4c0.78,0,1.46-0.2,2.03-0.6c0.57-0.4,0.86-0.98,0.86-1.75
			v-15.1h-17.51v15.1c0,0.77,0.28,1.35,0.83,1.75c0.56,0.4,1.24,0.6,2.06,0.6v0.4h-9.79v-0.4c0.78,0,1.45-0.2,2.03-0.6
			c0.57-0.4,0.86-0.98,0.86-1.75V233.37z"/>
		<path fill="#006B52" d="M694.39,261.22c0.26,0.67,0.54,1.33,0.83,2c0.3,0.67,0.64,1.26,1.03,1.78c0.39,0.52,0.85,0.94,1.39,1.28
			s1.16,0.5,1.86,0.5v0.4h-10.84v-0.4c0.89,0,1.53-0.12,1.92-0.35c0.39-0.23,0.62-0.55,0.7-0.95c0.07-0.4,0.03-0.88-0.14-1.45
			c-0.17-0.57-0.36-1.17-0.58-1.8l-2.78-7.45h-14.51c-0.37,1.03-0.68,1.89-0.92,2.57c-0.24,0.68-0.44,1.27-0.58,1.75
			c-0.15,0.48-0.27,0.88-0.36,1.2c-0.09,0.32-0.18,0.61-0.25,0.88c-0.59,1.8-0.64,3.18-0.14,4.15c0.5,0.97,1.47,1.45,2.92,1.45v0.4
			h-9.79v-0.4c1.3,0,2.35-0.35,3.17-1.05c0.82-0.7,1.61-1.93,2.39-3.7c0.37-0.83,0.81-1.94,1.33-3.33c0.52-1.38,1.25-3.28,2.2-5.7
			c0.95-2.42,2.15-5.47,3.61-9.17c1.46-3.7,3.33-8.27,5.59-13.7L694.39,261.22z M687.49,254.12l-6.73-18.05
			c-1.04,2.53-2.08,5.09-3.11,7.67c-1.04,2.58-2.06,5.14-3.06,7.67c-0.19,0.5-0.37,0.98-0.56,1.45c-0.19,0.47-0.35,0.88-0.5,1.25
			H687.49z M684.77,220.77l3.34,0.9l-10.56,6.45h-0.72L684.77,220.77z"/>
		<path fill="#006B52" d="M704.06,233.37c0-0.8-0.29-1.39-0.86-1.78c-0.58-0.38-1.25-0.57-2.03-0.57v-0.4h9.79v0.4
			c-0.82,0-1.5,0.19-2.06,0.57c-0.56,0.38-0.83,0.98-0.83,1.78v31.05c0,0.77,0.28,1.35,0.83,1.75c0.56,0.4,1.24,0.6,2.06,0.6v0.4
			h-9.79v-0.4c0.78,0,1.45-0.2,2.03-0.6c0.57-0.4,0.86-0.98,0.86-1.75V233.37z"/>
		<path fill="#006B52" d="M488.88,313.02h-5.67v-1.85h5.67v-17.8c0-0.77-0.28-1.35-0.83-1.75c-0.56-0.4-1.24-0.6-2.06-0.6v-0.4
			h12.23c6.19,0,10.92,1.53,14.18,4.6c3.26,3.07,4.93,7.52,5,13.35c0.04,2.93-0.37,5.56-1.22,7.88c-0.85,2.32-2.09,4.27-3.73,5.85
			c-1.63,1.58-3.64,2.79-6.03,3.62c-2.39,0.83-5.12,1.25-8.2,1.25h-12.23v-0.4c0.82,0,1.5-0.2,2.06-0.6
			c0.56-0.4,0.83-0.98,0.83-1.75V313.02z M492.89,324.17c0,0.87,0.3,1.47,0.89,1.83c0.59,0.35,1.32,0.52,2.17,0.52h2.28
			c5.04,0,8.8-1.39,11.29-4.17c2.48-2.78,3.73-7.27,3.73-13.47c0-3.07-0.31-5.71-0.92-7.92c-0.61-2.22-1.54-4.04-2.78-5.48
			c-1.24-1.43-2.79-2.49-4.64-3.17c-1.85-0.68-4.02-1.03-6.5-1.03h-2.45c-0.85,0-1.58,0.18-2.17,0.53s-0.89,0.96-0.89,1.83v17.6
			h7.45v1.85h-7.45V324.17z"/>
		<path fill="#006B52" d="M546.82,321.22c0.26,0.67,0.54,1.33,0.83,2c0.3,0.67,0.64,1.26,1.03,1.78c0.39,0.52,0.85,0.94,1.39,1.27
			c0.54,0.33,1.16,0.5,1.86,0.5v0.4h-10.84v-0.4c0.89,0,1.53-0.12,1.92-0.35c0.39-0.23,0.62-0.55,0.7-0.95
			c0.07-0.4,0.03-0.88-0.14-1.45c-0.17-0.57-0.36-1.17-0.58-1.8l-2.78-7.45h-14.51c-0.37,1.03-0.68,1.89-0.92,2.58
			c-0.24,0.68-0.44,1.27-0.58,1.75c-0.15,0.48-0.27,0.88-0.36,1.2c-0.09,0.32-0.18,0.61-0.25,0.88c-0.59,1.8-0.64,3.18-0.14,4.15
			c0.5,0.97,1.47,1.45,2.92,1.45v0.4h-9.79v-0.4c1.3,0,2.35-0.35,3.17-1.05s1.61-1.93,2.39-3.7c0.37-0.83,0.81-1.94,1.33-3.32
			c0.52-1.38,1.25-3.28,2.2-5.7s2.15-5.48,3.61-9.17c1.46-3.7,3.33-8.27,5.59-13.7L546.82,321.22z M539.93,314.12l-6.73-18.05
			c-1.04,2.53-2.08,5.09-3.11,7.67c-1.04,2.58-2.06,5.14-3.06,7.67c-0.19,0.5-0.37,0.98-0.56,1.45c-0.19,0.47-0.35,0.88-0.5,1.25
			H539.93z"/>
		<path fill="#006B52" d="M583.3,306.07l7.56-10.7c0.85-1.2,1.22-2.23,1.11-3.1c-0.11-0.87-0.98-1.3-2.61-1.3v-0.35h9.79v0.35
			c-1.63,0-3.07,0.43-4.31,1.3c-1.24,0.87-2.29,1.9-3.14,3.1l-8.01,11.35l12.01,17.7c0.52,0.8,1.17,1.39,1.95,1.78
			c0.78,0.38,1.56,0.57,2.34,0.57v0.4h-9.56v-0.4c1.52,0,1.76-0.78,0.72-2.35l-9.79-14.45l-8.79,12.5c-0.85,1.2-1.16,2.22-0.92,3.05
			c0.24,0.83,1.2,1.25,2.86,1.25v0.4h-9.79v-0.4c1.63,0,2.99-0.42,4.09-1.25c1.09-0.83,2.07-1.85,2.92-3.05l9.23-13.1l-10.84-16
			c-1.08-1.57-2.45-2.35-4.11-2.35v-0.4h9.56v0.4c-0.78,0-1.26,0.19-1.45,0.58c-0.19,0.38,0,0.98,0.56,1.78L583.3,306.07z"/>
		<path fill="#006B52" d="M604.54,293.27c0-0.77-0.29-1.34-0.86-1.72c-0.58-0.38-1.25-0.58-2.03-0.58v-0.35h9.79v0.35
			c-0.82,0-1.5,0.19-2.06,0.58c-0.56,0.38-0.83,0.96-0.83,1.72v24.2c0,1.7,0.29,3.12,0.86,4.25c0.57,1.13,1.35,2.05,2.33,2.75
			c0.98,0.7,2.1,1.2,3.36,1.5c1.26,0.3,2.58,0.45,3.95,0.45c1.22,0,2.43-0.12,3.61-0.38c1.19-0.25,2.24-0.7,3.17-1.35
			c0.93-0.65,1.67-1.53,2.22-2.62c0.56-1.1,0.83-2.5,0.83-4.2c0-3.73,0.01-7.48,0.03-11.25s0.03-7.52,0.03-11.25
			c0-1.2-0.33-2.23-1-3.1c-0.67-0.87-1.82-1.3-3.45-1.3v-0.35h9.79v0.35c-1.67,0-2.86,0.43-3.56,1.3c-0.71,0.87-1.06,1.9-1.06,3.1
			v22.7c0,1.9-0.35,3.47-1.06,4.72s-1.64,2.25-2.81,3s-2.49,1.28-3.98,1.58c-1.48,0.3-3,0.45-4.56,0.45c-1.67,0-3.26-0.17-4.78-0.5
			c-1.52-0.33-2.87-0.89-4.06-1.68c-1.19-0.78-2.13-1.82-2.83-3.12c-0.71-1.3-1.06-2.92-1.06-4.85V293.27z M620.33,280.77l3.34,0.9
			l-10.56,6.45h-0.72L620.33,280.77z"/>
		<path fill="#006B52" d="M655.47,290.82c-2.45,0-4.63,0.41-6.56,1.22c-1.93,0.82-3.56,2-4.89,3.55c-1.33,1.55-2.35,3.44-3.03,5.67
			c-0.69,2.23-1.03,4.75-1.03,7.55c0,2.83,0.35,5.36,1.06,7.57c0.7,2.22,1.72,4.1,3.06,5.65c1.33,1.55,2.96,2.73,4.87,3.55
			c1.91,0.82,4.07,1.23,6.48,1.23c3.34,0,6.14-0.76,8.42-2.28c2.28-1.52,3.94-3.71,4.98-6.58l0.72,0.25
			c-1.19,3.17-3.04,5.56-5.56,7.17c-2.52,1.62-5.67,2.43-9.45,2.43c-2.82,0-5.38-0.46-7.7-1.38c-2.32-0.92-4.3-2.21-5.95-3.88
			c-1.65-1.67-2.92-3.68-3.81-6.03c-0.89-2.35-1.32-4.97-1.28-7.88c0.04-2.9,0.53-5.5,1.47-7.8s2.32-4.25,4.11-5.85
			c1.8-1.6,3.98-2.82,6.56-3.65c2.58-0.83,5.5-1.25,8.76-1.25c2.37,0,4.5,0.22,6.39,0.65c1.89,0.43,3.41,1.03,4.56,1.8l0.22,5.8
			h-0.44c-1.19-2.57-2.72-4.47-4.62-5.7C660.92,291.44,658.47,290.82,655.47,290.82z"/>
		<path fill="#006B52" d="M697.89,290.82c-2.45,0-4.63,0.41-6.56,1.22c-1.93,0.82-3.56,2-4.89,3.55c-1.33,1.55-2.35,3.44-3.03,5.67
			c-0.69,2.23-1.03,4.75-1.03,7.55c0,2.83,0.35,5.36,1.06,7.57c0.7,2.22,1.72,4.1,3.06,5.65c1.33,1.55,2.96,2.73,4.87,3.55
			c1.91,0.82,4.07,1.23,6.48,1.23c3.34,0,6.14-0.76,8.42-2.28c2.28-1.52,3.94-3.71,4.98-6.58l0.72,0.25
			c-1.19,3.17-3.04,5.56-5.56,7.17c-2.52,1.62-5.67,2.43-9.45,2.43c-2.82,0-5.38-0.46-7.7-1.38c-2.32-0.92-4.3-2.21-5.95-3.88
			c-1.65-1.67-2.92-3.68-3.81-6.03c-0.89-2.35-1.32-4.97-1.28-7.88c0.04-2.9,0.53-5.5,1.47-7.8s2.32-4.25,4.11-5.85
			c1.8-1.6,3.98-2.82,6.56-3.65c2.58-0.83,5.5-1.25,8.76-1.25c2.37,0,4.5,0.22,6.39,0.65c1.89,0.43,3.41,1.03,4.56,1.8l0.22,5.8
			h-0.44c-1.19-2.57-2.72-4.47-4.62-5.7C703.34,291.44,700.89,290.82,697.89,290.82z"/>
		<path fill="#006B52" d="M742.43,321.22c0.26,0.67,0.54,1.33,0.83,2c0.3,0.67,0.64,1.26,1.03,1.78c0.39,0.52,0.85,0.94,1.39,1.27
			c0.54,0.33,1.16,0.5,1.86,0.5v0.4H736.7v-0.4c0.89,0,1.53-0.12,1.92-0.35c0.39-0.23,0.62-0.55,0.7-0.95
			c0.07-0.4,0.03-0.88-0.14-1.45c-0.17-0.57-0.36-1.17-0.58-1.8l-2.78-7.45H721.3c-0.37,1.03-0.68,1.89-0.92,2.58
			c-0.24,0.68-0.44,1.27-0.58,1.75c-0.15,0.48-0.27,0.88-0.36,1.2c-0.09,0.32-0.18,0.61-0.25,0.88c-0.59,1.8-0.64,3.18-0.14,4.15
			c0.5,0.97,1.47,1.45,2.92,1.45v0.4h-9.79v-0.4c1.3,0,2.35-0.35,3.17-1.05s1.61-1.93,2.39-3.7c0.37-0.83,0.81-1.94,1.33-3.32
			c0.52-1.38,1.25-3.28,2.2-5.7s2.15-5.48,3.61-9.17c1.46-3.7,3.33-8.27,5.59-13.7L742.43,321.22z M735.53,314.12l-6.73-18.05
			c-1.04,2.53-2.08,5.09-3.11,7.67c-1.04,2.58-2.06,5.14-3.06,7.67c-0.19,0.5-0.37,0.98-0.56,1.45c-0.19,0.47-0.35,0.88-0.5,1.25
			H735.53z M730.36,278.92c0.56,0,1.13,0.05,1.72,0.15c0.59,0.1,1.14,0.27,1.64,0.52c0.5,0.25,0.91,0.58,1.22,0.98
			c0.32,0.4,0.47,0.9,0.47,1.5c0,0.77-0.25,1.37-0.75,1.8c-0.5,0.43-1.04,0.83-1.61,1.2c-0.58,0.37-1.11,0.77-1.61,1.2
			c-0.5,0.43-0.75,1.05-0.75,1.85h-0.45c-0.33-0.97-0.36-1.73-0.08-2.28s0.65-1.04,1.11-1.47c0.46-0.43,0.92-0.87,1.36-1.3
			c0.44-0.43,0.67-1,0.67-1.7c0-0.67-0.21-1.18-0.64-1.55c-0.43-0.37-0.94-0.55-1.53-0.55c-0.48,0-0.9,0.11-1.25,0.33
			c-0.35,0.22-0.66,0.48-0.92,0.8c-0.26,0.32-0.46,0.67-0.61,1.05c-0.15,0.38-0.24,0.74-0.28,1.07l-2.22-1.3
			c0.52-0.57,1.18-1.09,1.97-1.58C728.63,279.17,729.47,278.92,730.36,278.92z"/>
		<path fill="#006B52" d="M786.02,290.62v0.4c-0.78,0-1.46,0.19-2.03,0.58c-0.58,0.38-0.86,0.98-0.86,1.78v31.05
			c0,0.77,0.29,1.35,0.86,1.75c0.57,0.4,1.25,0.6,2.03,0.6v0.4h-9.79v-0.4c0.82,0,1.5-0.2,2.06-0.6c0.56-0.4,0.83-0.98,0.83-1.75
			v-31.6l-12.29,34.3l-11.95-30.55l-0.5-1.2v27.1c0,1.2,0.35,2.22,1.06,3.05c0.7,0.83,1.89,1.25,3.56,1.25v0.4h-9.79v-0.4
			c1.63,0,2.78-0.42,3.45-1.25c0.67-0.83,1-1.85,1-3.05v-27.1c0-0.33-0.01-0.66-0.03-0.98c-0.02-0.32-0.07-0.61-0.14-0.88
			c-0.41-0.73-0.92-1.33-1.53-1.8c-0.61-0.47-1.34-0.7-2.2-0.7v-0.4h6.95l11.68,30.1l10.73-30.1H786.02z"/>
	</g>
</g>
<g>
	<g>
		<path fill="#006B52" d="M23.28,10.51l0.58,4.13h-0.31c-0.29-1.14-0.95-2.04-1.99-2.69c-1.04-0.65-2.53-0.98-4.48-0.98h-0.58
			c-0.67,0-1.23,0.14-1.67,0.42c-0.44,0.28-0.66,0.7-0.66,1.26v21.53c0,0.54,0.2,0.94,0.6,1.22c0.4,0.28,0.88,0.42,1.42,0.42v0.28
			H9.35v-0.28c0.57,0,1.05-0.14,1.44-0.42c0.39-0.28,0.58-0.69,0.58-1.22V12.65c0-0.56-0.22-0.98-0.66-1.26
			c-0.44-0.28-1-0.42-1.67-0.42H8.45c-1.95,0-3.44,0.33-4.48,0.98c-1.04,0.65-1.7,1.55-1.98,2.69H1.68l0.58-4.13H23.28z"/>
		<path fill="#006B52" d="M27.45,12.44c0-0.56-0.2-0.97-0.6-1.24c-0.4-0.27-0.88-0.4-1.42-0.4v-0.28h6.85v0.28
			c-0.57,0-1.05,0.13-1.44,0.4c-0.39,0.27-0.58,0.68-0.58,1.24v21.74c0,0.54,0.19,0.94,0.58,1.22c0.39,0.28,0.87,0.42,1.44,0.42
			v0.28h-6.85v-0.28c0.54,0,1.02-0.14,1.42-0.42c0.4-0.28,0.6-0.69,0.6-1.22V12.44z"/>
		<path fill="#006B52" d="M52.04,36.1H34.61v-0.28c0.52,0,0.99-0.14,1.4-0.42c0.42-0.28,0.62-0.69,0.62-1.22V12.44
			c0-0.49-0.19-0.88-0.56-1.17c-0.38-0.29-0.86-0.45-1.46-0.47v-0.28h17.44l0.58,4.13h-0.31c-0.29-1.14-0.95-2.04-1.99-2.69
			c-1.04-0.65-2.53-0.98-4.48-0.98h-4.09c-0.67,0-1.23,0.14-1.67,0.42c-0.44,0.28-0.66,0.7-0.66,1.26V22.8h6.62
			c0.93,0,1.67-0.22,2.22-0.67s0.82-1.18,0.82-2.21h0.31v6.19h-0.31c0-1.05-0.27-1.79-0.82-2.22s-1.28-0.65-2.22-0.65h-6.62V34
			c0,0.54,0.22,0.95,0.66,1.23s1,0.42,1.67,0.42h4.09c1.95,0,3.44-0.33,4.48-0.98c1.04-0.65,1.7-1.55,1.99-2.69h0.31L52.04,36.1z
			 M44.18,3.65l5.06,5.11h-0.39l-4.71-2.59l-4.63,2.59h-0.39L44.18,3.65z M44.18,38.09c0.57,0,1.05,0.17,1.44,0.52
			c0.39,0.35,0.58,0.79,0.58,1.33c0,0.51-0.2,0.95-0.58,1.29c-0.39,0.35-0.87,0.53-1.44,0.53c-0.6,0-1.09-0.17-1.48-0.53
			c-0.39-0.35-0.58-0.78-0.58-1.29c0-0.54,0.19-0.98,0.58-1.33C43.09,38.27,43.59,38.09,44.18,38.09z"/>
		<path fill="#006B52" d="M73.68,36.06L58.93,14.68c-0.05-0.09-0.11-0.19-0.17-0.28c-0.07-0.09-0.12-0.19-0.18-0.28v18.69
			c0,0.84,0.25,1.55,0.74,2.14c0.49,0.58,1.32,0.88,2.49,0.88v0.28h-6.85v-0.28c1.14,0,1.95-0.29,2.41-0.88
			c0.47-0.58,0.7-1.3,0.7-2.14V13.84c0-0.12,0-0.23,0-0.35s-0.01-0.23-0.04-0.35c-0.34-0.63-0.69-1.18-1.07-1.65
			c-0.38-0.47-0.91-0.7-1.62-0.7v-0.28h4.01L73.68,31.3V13.8c0-0.84-0.25-1.55-0.74-2.14c-0.49-0.58-1.32-0.88-2.49-0.88v-0.28h6.85
			v0.28c-1.14,0-1.95,0.29-2.41,0.88c-0.47,0.58-0.7,1.3-0.7,2.14V36.1h-0.51V36.06z"/>
		<path fill="#006B52" d="M91.9,3.62l2.33,0.63l-7.39,4.52h-0.51L91.9,3.62z M88.86,12.44c0-0.56-0.2-0.97-0.6-1.24
			c-0.4-0.27-0.88-0.4-1.42-0.4v-0.28h6.85v0.28c-0.57,0-1.05,0.13-1.44,0.4c-0.39,0.27-0.58,0.68-0.58,1.24v21.74
			c0,0.54,0.19,0.94,0.58,1.22c0.39,0.28,0.87,0.42,1.44,0.42v0.28h-6.85v-0.28c0.54,0,1.02-0.14,1.42-0.42
			c0.4-0.28,0.6-0.69,0.6-1.22V12.44z"/>
		<path fill="#006B52" d="M109.88,10.65c-1.71,0-3.24,0.29-4.59,0.86s-2.49,1.4-3.42,2.48s-1.64,2.41-2.12,3.97
			c-0.48,1.56-0.72,3.32-0.72,5.28c0,1.98,0.25,3.75,0.74,5.3c0.49,1.55,1.21,2.87,2.14,3.96c0.93,1.08,2.07,1.91,3.41,2.48
			c1.34,0.57,2.85,0.86,4.53,0.86c2.34,0,4.3-0.53,5.9-1.59c1.6-1.06,2.76-2.6,3.48-4.6l0.51,0.17c-0.83,2.22-2.13,3.89-3.89,5.02
			c-1.76,1.13-3.97,1.7-6.62,1.7c-1.97,0-3.77-0.32-5.39-0.96c-1.62-0.64-3.01-1.55-4.17-2.71c-1.15-1.17-2.04-2.57-2.67-4.22
			s-0.92-3.48-0.9-5.51c0.03-2.03,0.37-3.85,1.03-5.46c0.66-1.61,1.62-2.97,2.88-4.09c1.26-1.12,2.79-1.97,4.59-2.56
			c1.8-0.58,3.85-0.88,6.13-0.88c1.66,0,3.15,0.15,4.48,0.46c1.32,0.3,2.39,0.72,3.19,1.26l0.16,4.06h-0.31
			c-0.83-1.8-1.91-3.13-3.23-3.99S111.98,10.65,109.88,10.65z"/>
		<path fill="#006B52" d="M123.07,12.44c0-0.56-0.2-0.97-0.6-1.24c-0.4-0.27-0.88-0.4-1.42-0.4v-0.28h6.85v0.28
			c-0.57,0-1.05,0.13-1.44,0.4c-0.39,0.27-0.58,0.68-0.58,1.24v10.71h12.26V12.44c0-0.56-0.2-0.97-0.6-1.24
			c-0.4-0.27-0.88-0.4-1.42-0.4v-0.28h6.85v0.28c-0.57,0-1.05,0.13-1.44,0.4c-0.39,0.27-0.58,0.68-0.58,1.24v21.74
			c0,0.54,0.19,0.94,0.58,1.22c0.39,0.28,0.87,0.42,1.44,0.42v0.28h-6.85v-0.28c0.54,0,1.02-0.14,1.42-0.42
			c0.4-0.28,0.6-0.69,0.6-1.22V23.6h-12.26v10.57c0,0.54,0.19,0.94,0.58,1.22c0.39,0.28,0.87,0.42,1.44,0.42v0.28h-6.85v-0.28
			c0.54,0,1.02-0.14,1.42-0.42c0.4-0.28,0.6-0.69,0.6-1.22V12.44z"/>
	</g>
</g>
<linearGradient id="SVGID_1_" gradientUnits="userSpaceOnUse" x1="-52.0314" y1="108.775" x2="407.474" y2="-24.1212">
	<stop  offset="0" style="stop-color:#7F1416"/>
	<stop  offset="0.3556" style="stop-color:#DB414B"/>
	<stop  offset="0.6768" style="stop-color:#C4202D"/>
	<stop  offset="1" style="stop-color:#7F1416"/>
</linearGradient>
<path fill="url(#SVGID_1_)" d="M2.42,51.44H28c3.68,0,7.04,0.46,10.08,1.38c3.03,0.92,5.64,2.25,7.83,4
	c2.18,1.75,3.89,3.85,5.12,6.3c1.23,2.45,1.84,5.24,1.84,8.37c0,2.94-0.51,5.61-1.53,8c-1.02,2.39-2.47,4.45-4.35,6.16
	c-1.88,1.72-4.11,3.1-6.7,4.14c-2.59,1.04-5.46,1.69-8.59,1.93l13.1,16.01c1.02,1.17,2.06,2.36,3.12,3.59
	c1.06,1.23,2.11,2.33,3.17,3.31c1.06,0.98,2.13,1.78,3.22,2.39c1.09,0.61,2.15,0.92,3.17,0.92v0.74H44.88L23.08,91.83H15.1v21.8
	c0,1.41,0.51,2.48,1.53,3.22c1.02,0.74,2.28,1.1,3.79,1.1v0.74H2.42v-0.74c1.5,0,2.76-0.37,3.79-1.1c1.02-0.74,1.54-1.81,1.54-3.22
	V56.5c0-1.41-0.51-2.48-1.54-3.22c-1.02-0.74-2.29-1.1-3.79-1.1V51.44z M15.1,90.63h13.3c2.52,0,4.81-0.46,6.85-1.38
	s3.8-2.21,5.27-3.86c1.47-1.66,2.61-3.66,3.43-6.03c0.82-2.36,1.23-4.95,1.23-7.77c0-2.88-0.41-5.49-1.23-7.82
	c-0.82-2.33-2-4.32-3.53-5.98c-1.53-1.66-3.39-2.93-5.58-3.82c-2.18-0.89-4.6-1.33-7.26-1.33h-4.3c-3.07,0-5.2,0.37-6.39,1.1
	c-1.19,0.74-1.79,1.81-1.79,3.22V90.63z"/>
<linearGradient id="SVGID_00000047778732303067478560000005100000228899996818_" gradientUnits="userSpaceOnUse" x1="-47.8223" y1="123.3284" x2="411.6831" y2="-9.5678">
	<stop  offset="0" style="stop-color:#7F1416"/>
	<stop  offset="0.3556" style="stop-color:#DB414B"/>
	<stop  offset="0.6768" style="stop-color:#C4202D"/>
	<stop  offset="1" style="stop-color:#7F1416"/>
</linearGradient>
<path fill="url(#SVGID_00000047778732303067478560000005100000228899996818_)" d="M107.38,118.69H61.55v-0.74
	c1.36,0,2.59-0.37,3.68-1.1c1.09-0.74,1.64-1.81,1.64-3.22V56.5c0-1.29-0.5-2.31-1.48-3.08c-0.99-0.77-2.27-1.18-3.84-1.24v-0.74
	h45.83l1.53,10.86h-0.82c-0.75-3-2.49-5.37-5.22-7.08c-2.73-1.72-6.65-2.58-11.77-2.58H80.38c-1.77,0-3.24,0.37-4.4,1.1
	c-1.16,0.74-1.74,1.84-1.74,3.31v26.68h17.39c2.46,0,4.4-0.58,5.83-1.75c1.43-1.17,2.15-3.1,2.15-5.8h0.82v16.28h-0.82
	c0-2.76-0.72-4.71-2.15-5.84c-1.43-1.13-3.38-1.7-5.83-1.7H74.24v28.24c0,1.41,0.58,2.48,1.74,3.22c1.16,0.74,2.62,1.1,4.4,1.1
	h10.74c5.12,0,9.04-0.86,11.77-2.58c2.73-1.72,4.47-4.08,5.22-7.08h0.82L107.38,118.69z"/>
<linearGradient id="SVGID_00000154398591376722207440000011264393501670237585_" gradientUnits="userSpaceOnUse" x1="-43.6283" y1="137.8296" x2="415.877" y2="4.9334">
	<stop  offset="0" style="stop-color:#7F1416"/>
	<stop  offset="0.3556" style="stop-color:#DB414B"/>
	<stop  offset="0.6768" style="stop-color:#C4202D"/>
	<stop  offset="1" style="stop-color:#7F1416"/>
</linearGradient>
<path fill="url(#SVGID_00000154398591376722207440000011264393501670237585_)" d="M136.44,119.89c-1.5,0-3.16-0.08-4.96-0.23
	c-1.81-0.15-3.63-0.41-5.47-0.78c-1.84-0.37-3.65-0.87-5.42-1.52c-1.77-0.64-3.44-1.46-5.01-2.44l-0.51-12.14h0.82
	c4.16,10.55,11.7,15.82,22.61,15.82c5.46,0,9.77-1.2,12.94-3.59c3.17-2.39,4.76-5.64,4.76-9.75c0-3.31-0.99-6.13-2.97-8.46
	c-1.98-2.33-4.47-4.4-7.47-6.21c-3-1.81-6.22-3.51-9.67-5.11c-3.45-1.59-6.67-3.3-9.67-5.11c-3-1.81-5.49-3.86-7.47-6.16
	c-1.98-2.3-2.97-5.07-2.97-8.33c0-4.72,2.18-8.46,6.55-11.22c4.36-2.76,10.3-4.14,17.8-4.14c3.96,0,7.6,0.4,10.95,1.2
	c3.34,0.8,6.07,1.9,8.18,3.31l0.41,10.67h-0.82c-4.37-9.26-11.39-13.89-21.08-13.89c-4.91,0-8.78,1-11.61,2.99
	c-2.83,1.99-4.25,4.71-4.25,8.14c0,2.88,0.99,5.37,2.97,7.45c1.98,2.09,4.45,3.99,7.42,5.7c2.97,1.72,6.19,3.36,9.67,4.92
	c3.48,1.56,6.7,3.33,9.67,5.29s5.44,4.22,7.42,6.76c1.98,2.55,2.97,5.63,2.97,9.25c0,2.7-0.6,5.14-1.79,7.31
	c-1.19,2.18-2.9,4.02-5.12,5.52c-2.22,1.5-4.91,2.67-8.08,3.5S140.46,119.89,136.44,119.89z"/>
<linearGradient id="SVGID_00000106863022142805674570000013458229241058347959_" gradientUnits="userSpaceOnUse" x1="-33.7184" y1="172.0944" x2="425.787" y2="39.1982">
	<stop  offset="0" style="stop-color:#7F1416"/>
	<stop  offset="0.3556" style="stop-color:#DB414B"/>
	<stop  offset="0.6768" style="stop-color:#C4202D"/>
	<stop  offset="1" style="stop-color:#7F1416"/>
</linearGradient>
<path fill="url(#SVGID_00000106863022142805674570000013458229241058347959_)" d="M239.67,51.44h25.58c3.68,0,7.04,0.46,10.08,1.38
	c3.03,0.92,5.64,2.25,7.83,4c2.18,1.75,3.89,3.85,5.12,6.3c1.23,2.45,1.84,5.24,1.84,8.37c0,2.94-0.51,5.61-1.53,8
	c-1.02,2.39-2.47,4.45-4.35,6.16c-1.88,1.72-4.11,3.1-6.7,4.14c-2.59,1.04-5.46,1.69-8.59,1.93l13.1,16.01
	c1.02,1.17,2.06,2.36,3.12,3.59c1.06,1.23,2.11,2.33,3.17,3.31c1.06,0.98,2.13,1.78,3.22,2.39c1.09,0.61,2.15,0.92,3.17,0.92v0.74
	h-12.58l-21.79-26.86h-7.98v21.8c0,1.41,0.51,2.48,1.53,3.22c1.02,0.74,2.28,1.1,3.79,1.1v0.74h-18.01v-0.74
	c1.5,0,2.76-0.37,3.79-1.1c1.02-0.74,1.54-1.81,1.54-3.22V56.5c0-1.41-0.51-2.48-1.54-3.22c-1.02-0.74-2.29-1.1-3.79-1.1V51.44z
	 M252.35,90.63h13.3c2.52,0,4.81-0.46,6.85-1.38s3.8-2.21,5.27-3.86c1.47-1.66,2.61-3.66,3.43-6.03c0.82-2.36,1.23-4.95,1.23-7.77
	c0-2.88-0.41-5.49-1.23-7.82c-0.82-2.33-2-4.32-3.53-5.98c-1.53-1.66-3.39-2.93-5.58-3.82c-2.18-0.89-4.6-1.33-7.26-1.33h-4.3
	c-3.07,0-5.2,0.37-6.39,1.1c-1.19,0.74-1.79,1.81-1.79,3.22V90.63z"/>
<linearGradient id="SVGID_00000157268875136412124540000014589180031269741199_" gradientUnits="userSpaceOnUse" x1="-30.0226" y1="184.8733" x2="429.4828" y2="51.9771">
	<stop  offset="0" style="stop-color:#7F1416"/>
	<stop  offset="0.3556" style="stop-color:#DB414B"/>
	<stop  offset="0.6768" style="stop-color:#C4202D"/>
	<stop  offset="1" style="stop-color:#7F1416"/>
</linearGradient>
<path fill="url(#SVGID_00000157268875136412124540000014589180031269741199_)" d="M352,51.44l1.53,10.86h-0.82
	c-0.75-3-2.49-5.37-5.22-7.08c-2.73-1.72-6.65-2.58-11.76-2.58h-1.54c-1.77,0-3.24,0.37-4.4,1.1c-1.16,0.74-1.74,1.84-1.74,3.31
	v56.58c0,1.41,0.53,2.48,1.59,3.22c1.06,0.74,2.3,1.1,3.73,1.1v0.74h-18.01v-0.74c1.5,0,2.76-0.37,3.79-1.1
	c1.02-0.74,1.53-1.81,1.53-3.22V57.05c0-1.47-0.58-2.58-1.74-3.31c-1.16-0.74-2.63-1.1-4.4-1.1h-1.54c-5.12,0-9.04,0.86-11.77,2.58
	c-2.73,1.72-4.47,4.08-5.22,7.08h-0.82l1.54-10.86H352z"/>
<g>
	
		<linearGradient id="SVGID_00000054240159778489431850000003583909434624837270_" gradientUnits="userSpaceOnUse" x1="80.9189" y1="180.9177" x2="700.3502" y2="14.2344">
		<stop  offset="0" style="stop-color:#7F1416"/>
		<stop  offset="0.3556" style="stop-color:#DB414B"/>
		<stop  offset="0.6768" style="stop-color:#C4202D"/>
		<stop  offset="1" style="stop-color:#7F1416"/>
	</linearGradient>
	<path fill="url(#SVGID_00000054240159778489431850000003583909434624837270_)" d="M164.64,134.7l1.53,10.86h-0.82
		c-0.75-3-2.49-5.37-5.22-7.08c-2.73-1.72-6.65-2.58-11.76-2.58h-1.54c-1.77,0-3.24,0.37-4.4,1.1c-1.16,0.74-1.74,1.84-1.74,3.31
		v56.58c0,1.41,0.53,2.48,1.59,3.22c1.06,0.74,2.3,1.1,3.73,1.1v0.74h-18.01v-0.74c1.5,0,2.76-0.37,3.79-1.1
		c1.02-0.74,1.53-1.81,1.53-3.22v-56.58c0-1.47-0.58-2.58-1.74-3.31c-1.16-0.74-2.63-1.1-4.4-1.1h-1.54
		c-5.12,0-9.04,0.86-11.77,2.58c-2.73,1.72-4.47,4.08-5.22,7.08h-0.82l1.54-10.86H164.64z"/>
	
		<linearGradient id="SVGID_00000129174290025203862450000008117761100869621177_" gradientUnits="userSpaceOnUse" x1="83.4866" y1="190.4597" x2="702.9179" y2="23.7764">
		<stop  offset="0" style="stop-color:#7F1416"/>
		<stop  offset="0.3556" style="stop-color:#DB414B"/>
		<stop  offset="0.6768" style="stop-color:#C4202D"/>
		<stop  offset="1" style="stop-color:#7F1416"/>
	</linearGradient>
	<path fill="url(#SVGID_00000129174290025203862450000008117761100869621177_)" d="M223.37,191c0.48,1.23,0.99,2.45,1.54,3.68
		c0.54,1.23,1.18,2.32,1.89,3.27c0.72,0.95,1.57,1.73,2.56,2.35c0.99,0.61,2.13,0.92,3.43,0.92v0.74h-19.95v-0.74
		c1.64,0,2.81-0.21,3.53-0.64c0.72-0.43,1.14-1.01,1.28-1.75c0.14-0.74,0.05-1.62-0.26-2.67c-0.31-1.04-0.66-2.15-1.07-3.31
		l-5.12-13.71h-26.7c-0.68,1.9-1.25,3.48-1.69,4.74c-0.45,1.26-0.8,2.33-1.07,3.22c-0.27,0.89-0.5,1.63-0.67,2.21
		c-0.17,0.58-0.33,1.12-0.46,1.61c-1.09,3.31-1.18,5.86-0.26,7.64c0.92,1.78,2.71,2.67,5.37,2.67v0.74h-18.01v-0.74
		c2.39,0,4.33-0.64,5.83-1.93c1.5-1.29,2.97-3.56,4.4-6.81c0.68-1.53,1.5-3.57,2.46-6.12c0.95-2.54,2.3-6.04,4.04-10.49
		c1.74-4.45,3.96-10.07,6.65-16.88c2.69-6.81,6.12-15.21,10.28-25.21L223.37,191z M210.68,177.94l-12.38-33.21
		c-1.91,4.66-3.82,9.37-5.73,14.12c-1.91,4.75-3.79,9.46-5.63,14.12c-0.34,0.92-0.68,1.81-1.02,2.67c-0.34,0.86-0.65,1.63-0.92,2.3
		H210.68z M201.37,116.67l13.3,13.43h-1.02l-12.38-6.81l-12.17,6.81h-1.02L201.37,116.67z M203.32,106.55l14.63,13.52h-1.33
		l-19.44-11.87L203.32,106.55z"/>
	
		<linearGradient id="SVGID_00000049218593284705066190000018437718832837421468_" gradientUnits="userSpaceOnUse" x1="89.9612" y1="214.5209" x2="709.3925" y2="47.8375">
		<stop  offset="0" style="stop-color:#7F1416"/>
		<stop  offset="0.3556" style="stop-color:#DB414B"/>
		<stop  offset="0.6768" style="stop-color:#C4202D"/>
		<stop  offset="1" style="stop-color:#7F1416"/>
	</linearGradient>
	<path fill="url(#SVGID_00000049218593284705066190000018437718832837421468_)" d="M285.06,201.86l-38.77-56.21
		c-0.14-0.24-0.29-0.49-0.46-0.74c-0.17-0.24-0.32-0.49-0.46-0.74v49.13c0,2.21,0.65,4.08,1.94,5.61c1.29,1.53,3.48,2.3,6.55,2.3
		v0.74h-18.01v-0.74c3,0,5.12-0.77,6.34-2.3c1.23-1.53,1.84-3.4,1.84-5.61v-49.86c0-0.31,0-0.61,0-0.92c0-0.31-0.04-0.61-0.1-0.92
		c-0.89-1.66-1.83-3.1-2.81-4.32c-0.99-1.23-2.4-1.84-4.25-1.84v-0.74h10.54l37.65,54.65v-46c0-2.21-0.65-4.08-1.94-5.61
		c-1.3-1.53-3.48-2.3-6.55-2.3v-0.74h18.01v0.74c-3,0-5.12,0.77-6.34,2.3c-1.23,1.53-1.84,3.4-1.84,5.61v58.6h-1.33V201.86z"/>
	
		<linearGradient id="SVGID_00000150790444340944750300000009075777258485779596_" gradientUnits="userSpaceOnUse" x1="94.8596" y1="232.7242" x2="714.2909" y2="66.0408">
		<stop  offset="0" style="stop-color:#7F1416"/>
		<stop  offset="0.3556" style="stop-color:#DB414B"/>
		<stop  offset="0.6768" style="stop-color:#C4202D"/>
		<stop  offset="1" style="stop-color:#7F1416"/>
	</linearGradient>
	<path fill="url(#SVGID_00000150790444340944750300000009075777258485779596_)" d="M353.09,172.79c0-1.41-0.51-2.45-1.54-3.13
		c-1.02-0.67-2.29-1.01-3.79-1.01v-0.74h16.98v0.74c-2.87,0-4.3,1.38-4.3,4.14v12.7c-2.18,5.83-5.59,10.23-10.23,13.2
		c-4.64,2.98-10.44,4.46-17.39,4.46c-5.18,0-9.91-0.84-14.17-2.53c-4.26-1.69-7.91-4.06-10.95-7.13c-3.04-3.07-5.37-6.76-7.01-11.09
		c-1.64-4.32-2.42-9.15-2.35-14.49c0.07-5.34,0.97-10.12,2.71-14.35c1.74-4.23,4.26-7.82,7.57-10.76c3.31-2.94,7.33-5.18,12.07-6.72
		c4.74-1.53,10.11-2.3,16.11-2.3c4.36,0,8.29,0.4,11.77,1.2c3.48,0.8,6.27,1.9,8.39,3.31l0.41,10.67h-0.82
		c-2.18-4.72-5.01-8.22-8.49-10.49c-3.48-2.27-7.98-3.4-13.5-3.4c-4.5,0-8.53,0.75-12.07,2.25c-3.55,1.5-6.55,3.68-9,6.53
		c-2.46,2.85-4.31,6.33-5.58,10.44c-1.26,4.11-1.89,8.74-1.89,13.89c0,5.21,0.65,9.89,1.94,14.03c1.29,4.14,3.15,7.65,5.58,10.53
		c2.42,2.88,5.39,5.11,8.9,6.67c3.51,1.56,7.45,2.35,11.82,2.35c3.96,0,7.5-0.61,10.64-1.84c3.14-1.23,5.86-2.97,8.18-5.24V172.79z"
		/>
	
		<linearGradient id="SVGID_00000031897986939467397460000007416400799612653493_" gradientUnits="userSpaceOnUse" x1="100.4922" y1="253.6562" x2="719.9235" y2="86.9729">
		<stop  offset="0" style="stop-color:#7F1416"/>
		<stop  offset="0.3556" style="stop-color:#DB414B"/>
		<stop  offset="0.6768" style="stop-color:#C4202D"/>
		<stop  offset="1" style="stop-color:#7F1416"/>
	</linearGradient>
	<path fill="url(#SVGID_00000031897986939467397460000007416400799612653493_)" d="M424.09,134.7h18.21v0.83
		c-1.71,0-3.53,0.55-5.47,1.66c-1.94,1.1-4.04,3.28-6.29,6.53L420.2,158.9c-0.75,1.1-1.52,2.25-2.3,3.45
		c-0.78,1.2-1.62,2.41-2.51,3.63l18.93,27.42c0.61,0.92,1.28,1.84,2,2.76c0.72,0.92,1.5,1.75,2.35,2.48
		c0.85,0.74,1.82,1.35,2.92,1.84c1.09,0.49,2.35,0.74,3.79,0.74v0.74h-19.75v-0.74c1.84,0,2.98-0.32,3.43-0.97
		c0.44-0.64,0.08-1.79-1.07-3.45L411,172.24c-1.5,2.15-2.98,4.23-4.45,6.26c-1.47,2.02-2.81,3.93-4.04,5.7v12.7
		c0,1.41,0.51,2.48,1.53,3.22c1.02,0.74,2.28,1.1,3.79,1.1v0.74h-18.01v-0.74c1.43,0,2.68-0.37,3.73-1.1
		c1.06-0.74,1.59-1.81,1.59-3.22v-57.13c0-1.47-0.53-2.56-1.59-3.27c-1.06-0.7-2.3-1.06-3.73-1.06v-0.74h18.01v0.74
		c-1.5,0-2.76,0.35-3.79,1.06c-1.02,0.71-1.53,1.79-1.53,3.27v42.32c4.23-6.01,8.39-11.99,12.48-17.94
		c4.09-5.95,8.15-11.99,12.17-18.12c2.25-3.43,3.07-6.01,2.46-7.73c-0.61-1.72-2.46-2.64-5.52-2.76V134.7z"/>
	
		<linearGradient id="SVGID_00000024683945067986138290000000559568060476982663_" gradientUnits="userSpaceOnUse" x1="104.5195" y1="268.6224" x2="723.9507" y2="101.9391">
		<stop  offset="0" style="stop-color:#7F1416"/>
		<stop  offset="0.3556" style="stop-color:#DB414B"/>
		<stop  offset="0.6768" style="stop-color:#C4202D"/>
		<stop  offset="1" style="stop-color:#7F1416"/>
	</linearGradient>
	<path fill="url(#SVGID_00000024683945067986138290000000559568060476982663_)" d="M453.76,139.76c0-1.47-0.53-2.56-1.59-3.27
		c-1.06-0.7-2.3-1.06-3.73-1.06v-0.74h18.01v0.74c-1.5,0-2.76,0.35-3.79,1.06c-1.02,0.71-1.53,1.79-1.53,3.27v28.15h32.23v-28.15
		c0-1.47-0.53-2.56-1.59-3.27c-1.06-0.7-2.3-1.06-3.73-1.06v-0.74h18.01v0.74c-1.5,0-2.76,0.35-3.79,1.06
		c-1.02,0.71-1.53,1.79-1.53,3.27v57.13c0,1.41,0.51,2.48,1.53,3.22c1.02,0.74,2.28,1.1,3.79,1.1v0.74h-18.01v-0.74
		c1.43,0,2.68-0.37,3.73-1.1c1.06-0.74,1.59-1.81,1.59-3.22v-27.78h-32.23v27.78c0,1.41,0.51,2.48,1.53,3.22
		c1.02,0.74,2.28,1.1,3.79,1.1v0.74h-18.01v-0.74c1.43,0,2.68-0.37,3.73-1.1c1.06-0.74,1.59-1.81,1.59-3.22V139.76z"/>
	
		<linearGradient id="SVGID_00000142149995278320638200000003641851397529369984_" gradientUnits="userSpaceOnUse" x1="107.1521" y1="278.4059" x2="726.5834" y2="111.7225">
		<stop  offset="0" style="stop-color:#7F1416"/>
		<stop  offset="0.3556" style="stop-color:#DB414B"/>
		<stop  offset="0.6768" style="stop-color:#C4202D"/>
		<stop  offset="1" style="stop-color:#7F1416"/>
	</linearGradient>
	<path fill="url(#SVGID_00000142149995278320638200000003641851397529369984_)" d="M544.71,133.78c5.25,0,9.92,0.87,14.02,2.62
		c4.09,1.75,7.52,4.19,10.28,7.31c2.76,3.13,4.84,6.85,6.24,11.18c1.4,4.32,2.06,9.03,2,14.12c-0.07,5.09-0.84,9.74-2.3,13.94
		c-1.47,4.2-3.58,7.79-6.34,10.76c-2.76,2.98-6.14,5.29-10.13,6.95s-8.51,2.48-13.56,2.48c-5.32,0-10.01-0.89-14.07-2.67
		c-4.06-1.78-7.47-4.23-10.23-7.36c-2.76-3.13-4.86-6.85-6.29-11.18c-1.43-4.32-2.12-9.03-2.05-14.12c0.07-5.09,0.83-9.72,2.3-13.89
		c1.47-4.17,3.58-7.76,6.34-10.76c2.76-3,6.14-5.32,10.13-6.95C535.04,134.59,539.6,133.78,544.71,133.78z M544.81,134.98
		c-4.09,0-7.69,0.83-10.79,2.48c-3.1,1.66-5.7,3.97-7.78,6.95c-2.08,2.98-3.65,6.53-4.71,10.67c-1.06,4.14-1.59,8.69-1.59,13.66
		c0,5.03,0.53,9.6,1.59,13.71c1.06,4.11,2.64,7.61,4.76,10.49c2.11,2.88,4.71,5.11,7.78,6.67c3.07,1.56,6.62,2.35,10.64,2.35
		c4.09,0,7.69-0.83,10.79-2.48c3.1-1.66,5.69-3.96,7.78-6.9c2.08-2.94,3.65-6.49,4.71-10.63c1.06-4.14,1.59-8.69,1.59-13.66
		c0-5.09-0.53-9.67-1.59-13.75c-1.06-4.08-2.64-7.57-4.76-10.49c-2.12-2.91-4.71-5.15-7.78-6.72S548.84,134.98,544.81,134.98z
		 M544.81,116.67l13.3,13.43h-1.02l-12.38-6.81l-12.17,6.81h-1.02L544.81,116.67z"/>
	
		<linearGradient id="SVGID_00000109716911468335397720000001761599916006276031_" gradientUnits="userSpaceOnUse" x1="113.434" y1="301.7507" x2="732.8653" y2="135.0674">
		<stop  offset="0" style="stop-color:#7F1416"/>
		<stop  offset="0.3556" style="stop-color:#DB414B"/>
		<stop  offset="0.6768" style="stop-color:#C4202D"/>
		<stop  offset="1" style="stop-color:#7F1416"/>
	</linearGradient>
	<path fill="url(#SVGID_00000109716911468335397720000001761599916006276031_)" d="M632.69,201.86l-38.77-56.21
		c-0.14-0.24-0.29-0.49-0.46-0.74c-0.17-0.24-0.32-0.49-0.46-0.74v49.13c0,2.21,0.65,4.08,1.94,5.61c1.29,1.53,3.48,2.3,6.55,2.3
		v0.74h-18.01v-0.74c3,0,5.12-0.77,6.34-2.3c1.23-1.53,1.84-3.4,1.84-5.61v-49.86c0-0.31,0-0.61,0-0.92c0-0.31-0.04-0.61-0.1-0.92
		c-0.89-1.66-1.83-3.1-2.81-4.32c-0.99-1.23-2.4-1.84-4.25-1.84v-0.74h10.54l37.65,54.65v-46c0-2.21-0.65-4.08-1.94-5.61
		c-1.3-1.53-3.48-2.3-6.55-2.3v-0.74h18.01v0.74c-3,0-5.12,0.77-6.34,2.3c-1.23,1.53-1.84,3.4-1.84,5.61v58.6h-1.33V201.86z"/>
	
		<linearGradient id="SVGID_00000046297972553291449510000017729128275920424095_" gradientUnits="userSpaceOnUse" x1="118.3323" y1="319.954" x2="737.7636" y2="153.2707">
		<stop  offset="0" style="stop-color:#7F1416"/>
		<stop  offset="0.3556" style="stop-color:#DB414B"/>
		<stop  offset="0.6768" style="stop-color:#C4202D"/>
		<stop  offset="1" style="stop-color:#7F1416"/>
	</linearGradient>
	<path fill="url(#SVGID_00000046297972553291449510000017729128275920424095_)" d="M700.73,172.79c0-1.41-0.51-2.45-1.54-3.13
		c-1.02-0.67-2.29-1.01-3.79-1.01v-0.74h16.98v0.74c-2.87,0-4.3,1.38-4.3,4.14v12.7c-2.18,5.83-5.59,10.23-10.23,13.2
		c-4.64,2.98-10.44,4.46-17.39,4.46c-5.18,0-9.91-0.84-14.17-2.53c-4.26-1.69-7.91-4.06-10.95-7.13c-3.04-3.07-5.37-6.76-7.01-11.09
		c-1.64-4.32-2.42-9.15-2.35-14.49c0.07-5.34,0.97-10.12,2.71-14.35c1.74-4.23,4.26-7.82,7.57-10.76c3.31-2.94,7.33-5.18,12.07-6.72
		c4.74-1.53,10.11-2.3,16.11-2.3c4.36,0,8.29,0.4,11.77,1.2c3.48,0.8,6.27,1.9,8.39,3.31l0.41,10.67h-0.82
		c-2.18-4.72-5.01-8.22-8.49-10.49c-3.48-2.27-7.98-3.4-13.5-3.4c-4.5,0-8.53,0.75-12.07,2.25c-3.55,1.5-6.55,3.68-9,6.53
		c-2.46,2.85-4.31,6.33-5.58,10.44c-1.26,4.11-1.89,8.74-1.89,13.89c0,5.21,0.65,9.89,1.94,14.03c1.29,4.14,3.15,7.65,5.58,10.53
		c2.42,2.88,5.39,5.11,8.9,6.67c3.51,1.56,7.45,2.35,11.82,2.35c3.96,0,7.5-0.61,10.64-1.84c3.14-1.23,5.86-2.97,8.18-5.24V172.79z"
		/>
</g>
<linearGradient id="SVGID_00000079464406496077912560000006439112176375484059_" gradientUnits="userSpaceOnUse" x1="-39.581" y1="151.8237" x2="419.9243" y2="18.9275">
	<stop  offset="0" style="stop-color:#7F1416"/>
	<stop  offset="0.3556" style="stop-color:#DB414B"/>
	<stop  offset="0.6768" style="stop-color:#C4202D"/>
	<stop  offset="1" style="stop-color:#7F1416"/>
</linearGradient>
<path fill="url(#SVGID_00000079464406496077912560000006439112176375484059_)" d="M175.45,108.21c1.66-0.61,3.36-1.16,5.07-1.65
	c-1.17-2.19-2.11-4.64-2.81-7.36c-1.06-4.11-1.59-8.68-1.59-13.71c0-4.97,0.53-9.52,1.59-13.66c1.06-4.14,2.62-7.7,4.71-10.67
	c2.08-2.97,4.67-5.29,7.78-6.95c3.1-1.66,6.7-2.48,10.79-2.48c4.02,0,7.57,0.78,10.64,2.35s5.66,3.8,7.78,6.72
	c2.11,2.91,3.7,6.41,4.76,10.49c1.06,4.08,1.59,8.66,1.59,13.75c0,4.97-0.53,9.52-1.59,13.66c-0.74,2.91-1.75,5.5-3,7.82
	c1.84,0.53,3.66,1.11,5.44,1.77c1.89-2.5,3.39-5.36,4.52-8.58c1.47-4.2,2.23-8.85,2.3-13.94c0.07-5.09-0.6-9.8-2-14.12
	c-1.4-4.32-3.48-8.05-6.24-11.18c-2.76-3.13-6.19-5.57-10.28-7.31c-4.09-1.75-8.76-2.62-14.02-2.62c-5.12,0-9.67,0.81-13.66,2.44
	c-3.99,1.63-7.37,3.94-10.13,6.95c-2.76,3.01-4.88,6.59-6.34,10.76c-1.47,4.17-2.24,8.8-2.3,13.89c-0.07,5.09,0.61,9.8,2.05,14.12
	C171.7,102.27,173.35,105.44,175.45,108.21z"/>
<g>
</g>
<g>
</g>
<g>
</g>
<g>
</g>
<g>
</g>
<g>
</g>
</svg>
