<svg width="89" height="89" viewBox="0 0 89 89" fill="none" xmlns="http://www.w3.org/2000/svg">
<path d="M45.45 66.6728L65.9 42.5916L59.0292 30.6797H31.8708L25 42.5916L45.45 66.6728Z" stroke="#C6A45A" stroke-width="2" stroke-linecap="round" stroke-linejoin="round"/>
<path d="M25 42.5918H65.9" stroke="#C6A45A" stroke-width="2" stroke-linecap="round" stroke-linejoin="round"/>
<path d="M59.0296 30.6797L52.7967 42.5916L45.4503 30.6797L38.104 42.5916L31.8711 30.6797" stroke="#C6A45A" stroke-width="2" stroke-linecap="round" stroke-linejoin="round"/>
<path d="M38.1045 42.5918L45.4508 66.673L52.7972 42.5918" stroke="#C6A45A" stroke-width="2" stroke-linecap="round" stroke-linejoin="round"/>
<path d="M45.4502 21.0293C45.6644 21.4498 45.9224 21.8237 46.248 22.1494C46.5735 22.4748 46.9471 22.7331 47.3672 22.9473C46.947 23.1614 46.5735 23.4197 46.248 23.7451C45.9226 24.0706 45.6643 24.4441 45.4502 24.8643C45.2361 24.4441 44.9778 24.0705 44.6523 23.7451C44.3267 23.4195 43.9528 23.1615 43.5322 22.9473C43.9528 22.733 44.3266 22.4751 44.6523 22.1494C44.978 21.8237 45.236 21.4499 45.4502 21.0293Z" fill="#2C2620" stroke="#C6A45A" stroke-width="2"/>
</svg>
