<?xml version="1.0" encoding="utf-8"?>
<!-- Generator: Adobe Illustrator 29.1.0, SVG Export Plug-In . SVG Version: 9.03 Build 55587)  -->
<svg version="1.0" id="Layer_1" xmlns="http://www.w3.org/2000/svg" xmlns:xlink="http://www.w3.org/1999/xlink" x="0px" y="0px"
	 width="54px" height="47px" viewBox="0 0 54 47" enable-background="new 0 0 54 47" xml:space="preserve">
<circle fill="none" stroke="#9fbdb4" stroke-width="2" stroke-linecap="round" stroke-linejoin="round" stroke-miterlimit="10" cx="42.86" cy="2.98" r="1.99"/>
<path fill="none" stroke="#9fbdb4" stroke-width="2" stroke-linecap="round" stroke-linejoin="round" stroke-miterlimit="10" d="
	M42.37,11.9c6.35,1.29,10.47,3.37,10.47,5.71s-4.12,4.41-10.47,5.71c-4.3,0.87-9.62,1.39-15.39,1.39c-5.68,0-10.93-0.5-15.19-1.36
	c-6.46-1.29-10.66-3.38-10.66-5.75c0-2.36,4.2-4.46,10.66-5.75"/>
<path fill="none" stroke="#9fbdb4" stroke-width="2" stroke-linecap="round" stroke-linejoin="round" stroke-miterlimit="10" d="
	M1.12,38.9c0,3.92,11.58,7.1,25.86,7.1s25.86-3.18,25.86-7.1V17.61"/>
<line fill="none" stroke="#9fbdb4" stroke-width="2" stroke-linecap="round" stroke-linejoin="round" stroke-miterlimit="10" x1="1.12" y1="39.31" x2="1.12" y2="17.61"/>
<line fill="none" stroke="#9fbdb4" stroke-width="2" stroke-linecap="round" stroke-linejoin="round" stroke-miterlimit="10" x1="11.79" y1="11.86" x2="11.79" y2="23.36"/>
<line fill="none" stroke="#9fbdb4" stroke-width="2" stroke-linecap="round" stroke-linejoin="round" stroke-miterlimit="10" x1="42.37" y1="11.9" x2="42.37" y2="23.36"/>
<circle fill="none" stroke="#9fbdb4" stroke-width="2" stroke-linecap="round" stroke-linejoin="round" stroke-miterlimit="10" cx="23.77" cy="31.81" r="2.9"/>
<polyline fill="none" stroke="#9fbdb4" stroke-width="2" stroke-linecap="round" stroke-linejoin="round" stroke-miterlimit="10" points="
	12.16,44.72 19.84,37.7 26.29,46 "/>
<polyline fill="none" stroke="#9fbdb4" stroke-width="2" stroke-linecap="round" stroke-linejoin="round" stroke-miterlimit="10" points="
	23.59,42.52 32.31,34.47 42.15,44.65 "/>
<g>
	<path fill="#9fbdb4" d="M18.5,18.36c-0.82,0-1.49-0.13-2.01-0.39c-0.52-0.26-0.91-0.62-1.15-1.1c-0.24-0.47-0.37-1.03-0.37-1.66
		v-1.4h2.07v0.9c0,0.69,0.11,1.22,0.34,1.58c0.23,0.37,0.6,0.56,1.1,0.57c0.46,0,0.81-0.16,1.06-0.5c0.24-0.33,0.37-0.77,0.37-1.31
		v-1.23c0-0.53-0.18-0.92-0.54-1.17c-0.36-0.25-0.86-0.38-1.51-0.4h-1.1v-1.21h1.12c0.3,0,0.58-0.04,0.84-0.13
		c0.26-0.09,0.47-0.22,0.65-0.39c0.17-0.16,0.29-0.33,0.37-0.52c0.07-0.19,0.11-0.39,0.11-0.6V8.57c0-0.46-0.1-0.85-0.31-1.19
		c-0.21-0.33-0.56-0.5-1.04-0.5c-0.52,0-0.88,0.18-1.08,0.55s-0.3,0.86-0.3,1.48v0.6h-2.09v-1.1c0-0.98,0.28-1.72,0.85-2.24
		c0.57-0.52,1.45-0.78,2.64-0.78c1.24,0,2.13,0.24,2.67,0.72C21.72,6.61,22,7.32,22,8.25v0.86c0,0.73-0.18,1.32-0.55,1.77
		c-0.37,0.45-0.88,0.73-1.54,0.84c0.69,0.07,1.22,0.34,1.59,0.8c0.37,0.46,0.56,1.06,0.56,1.79v0.91c0,0.68-0.12,1.25-0.36,1.72
		c-0.24,0.47-0.61,0.83-1.13,1.07C20.06,18.24,19.37,18.36,18.5,18.36z"/>
	<path fill="#9fbdb4" d="M26.97,18.42c-0.78,0-1.42-0.13-1.93-0.4c-0.51-0.27-0.89-0.66-1.14-1.17c-0.25-0.52-0.38-1.13-0.38-1.83
		V8.47c0-1.02,0.32-1.79,0.95-2.32s1.48-0.79,2.54-0.79c1.08,0,1.91,0.24,2.5,0.73C30.1,6.58,30.4,7.35,30.4,8.4v0.86h-2.05v-1.1
		c0-0.53-0.11-0.91-0.34-1.14s-0.56-0.35-0.99-0.35c-0.45,0-0.79,0.14-1.04,0.42c-0.25,0.28-0.38,0.65-0.38,1.11v2.99
		c0.23-0.33,0.55-0.58,0.96-0.77c0.41-0.18,0.84-0.27,1.28-0.27c0.78,0,1.42,0.21,1.93,0.64c0.51,0.42,0.76,1.03,0.76,1.82v2.61
		c0,0.63-0.14,1.19-0.41,1.67c-0.27,0.48-0.67,0.86-1.19,1.12C28.42,18.29,27.76,18.42,26.97,18.42z M27.02,17.17
		c0.43,0,0.78-0.13,1.04-0.4c0.27-0.27,0.4-0.68,0.4-1.24v-2.59c0-0.52-0.15-0.88-0.44-1.1c-0.29-0.22-0.64-0.33-1.02-0.35
		c-0.39,0-0.72,0.11-0.98,0.33c-0.27,0.22-0.41,0.52-0.42,0.89v2.8c0,0.55,0.13,0.95,0.39,1.22C26.24,17.02,26.59,17.16,27.02,17.17
		z"/>
	<path fill="#9fbdb4" d="M35.53,18.49c-0.68-0.01-1.28-0.16-1.8-0.44c-0.52-0.28-0.93-0.72-1.23-1.32c-0.29-0.6-0.44-1.4-0.44-2.39
		v-5.3c0-1.26,0.33-2.2,0.99-2.8c0.66-0.6,1.5-0.9,2.52-0.9c0.99,0,1.81,0.3,2.46,0.9C38.67,6.83,39,7.76,39,9.03v5.28
		c0,1.01-0.15,1.82-0.44,2.43c-0.29,0.62-0.7,1.06-1.23,1.34C36.8,18.35,36.2,18.49,35.53,18.49z M35.53,17.24
		c0.4,0,0.74-0.16,1.01-0.48c0.27-0.32,0.41-0.79,0.41-1.41V8.49c0-0.63-0.14-1.11-0.42-1.43c-0.28-0.32-0.61-0.48-1-0.48
		c-0.4,0-0.74,0.16-1.01,0.48c-0.27,0.32-0.41,0.8-0.41,1.43v6.85c0,0.62,0.14,1.09,0.41,1.41C34.79,17.07,35.12,17.24,35.53,17.24z
		"/>
</g>
<g>
</g>
<g>
</g>
<g>
</g>
<g>
</g>
<g>
</g>
<g>
</g>
</svg>
