<?xml version="1.0" encoding="UTF-8"?>
<svg id="Layer_2" data-name="Layer 2" xmlns="http://www.w3.org/2000/svg" viewBox="0 0 56 56">
  <defs>
    <style>
      .cls-1 {
        opacity: 0;
      }

      .cls-1, .cls-2 {
        fill: #fff;
      }

      .cls-1, .cls-2, .cls-3 {
        stroke-width: 0px;
      }

      .cls-2, .cls-3 {
        fill-rule: evenodd;
      }

      .cls-3 {
        fill: #006a51;
      }
    </style>
  </defs>
  <g id="Graphic_Elements" data-name="Graphic Elements">
    <g>
      <path class="cls-3" d="M28,3C13.92,3,3,13.32,3,27.25c0,7.29,2.99,13.59,7.85,17.94.41.37.65.88.67,1.43l.14,4.45c.04,1.42,1.51,2.34,2.81,1.77l4.96-2.19c.42-.19.89-.22,1.34-.1,2.28.63,4.71.96,7.24.96,14.08,0,25-10.32,25-24.25S42.08,3,28,3Z"/>
      <path class="cls-2" d="M43.01,21.66l-7.34,11.65c-1.17,1.85-3.67,2.31-5.42,1l-5.84-4.38c-.54-.4-1.27-.4-1.81,0l-7.89,5.99c-1.05.8-2.43-.46-1.72-1.58l7.34-11.65c1.17-1.85,3.67-2.31,5.42-1l5.84,4.38c.54.4,1.27.4,1.81,0l7.89-5.99c1.05-.8,2.43.46,1.72,1.58Z"/>
      <rect class="cls-1" width="56" height="56"/>
    </g>
  </g>
</svg>
